<?xml version="1.0" encoding="utf-8" standalone="no"?>
<!DOCTYPE svg PUBLIC "-//W3C//DTD SVG 1.1//EN"
  "http://www.w3.org/Graphics/SVG/1.1/DTD/svg11.dtd">
<svg xmlns:xlink="http://www.w3.org/1999/xlink" width="720pt" height="432pt" viewBox="0 0 720 432" xmlns="http://www.w3.org/2000/svg" version="1.1">
 <metadata>
  <rdf:RDF xmlns:dc="http://purl.org/dc/elements/1.1/" xmlns:cc="http://creativecommons.org/ns#" xmlns:rdf="http://www.w3.org/1999/02/22-rdf-syntax-ns#">
   <cc:Work>
    <dc:type rdf:resource="http://purl.org/dc/dcmitype/StillImage"/>
    <dc:date>2026-05-31T04:36:25.141846</dc:date>
    <dc:format>image/svg+xml</dc:format>
    <dc:creator>
     <cc:Agent>
      <dc:title>Matplotlib v3.10.3, https://matplotlib.org/</dc:title>
     </cc:Agent>
    </dc:creator>
   </cc:Work>
  </rdf:RDF>
 </metadata>
 <defs>
  <style type="text/css">*{stroke-linejoin: round; stroke-linecap: butt}</style>
 </defs>
 <g id="figure_1">
  <g id="patch_1">
   <path d="M 0 432 
L 720 432 
L 720 0 
L 0 0 
z
" style="fill: #ffffff"/>
  </g>
  <g id="axes_1">
   <g id="patch_2">
    <path d="M 54.0875 390.04 
L 368.414231 390.04 
L 368.414231 34.56 
L 54.0875 34.56 
z
" style="fill: #ffffff"/>
   </g>
   <g id="matplotlib.axis_1">
    <g id="xtick_1">
     <g id="line2d_1">
      <path d="M 88.229215 390.04 
L 88.229215 34.56 
" clip-path="url(#p0b77ae366c)" style="fill: none; stroke: #b0b0b0; stroke-opacity: 0.35; stroke-width: 0.8; stroke-linecap: square"/>
     </g>
     <g id="line2d_2">
      <defs>
       <path id="me1848ab8f9" d="M 0 0 
L 0 3.5 
" style="stroke: #000000; stroke-width: 0.8"/>
      </defs>
      <g>
       <use xlink:href="#me1848ab8f9" x="88.229215" y="390.04" style="stroke: #000000; stroke-width: 0.8"/>
      </g>
     </g>
     <g id="text_1">
      <!-- 0.20 -->
      <g transform="translate(77.096402 404.638438) scale(0.1 -0.1)">
       <defs>
        <path id="DejaVuSans-30" d="M 2034 4250 
Q 1547 4250 1301 3770 
Q 1056 3291 1056 2328 
Q 1056 1369 1301 889 
Q 1547 409 2034 409 
Q 2525 409 2770 889 
Q 3016 1369 3016 2328 
Q 3016 3291 2770 3770 
Q 2525 4250 2034 4250 
z
M 2034 4750 
Q 2819 4750 3233 4129 
Q 3647 3509 3647 2328 
Q 3647 1150 3233 529 
Q 2819 -91 2034 -91 
Q 1250 -91 836 529 
Q 422 1150 422 2328 
Q 422 3509 836 4129 
Q 1250 4750 2034 4750 
z
" transform="scale(0.015625)"/>
        <path id="DejaVuSans-2e" d="M 684 794 
L 1344 794 
L 1344 0 
L 684 0 
L 684 794 
z
" transform="scale(0.015625)"/>
        <path id="DejaVuSans-32" d="M 1228 531 
L 3431 531 
L 3431 0 
L 469 0 
L 469 531 
Q 828 903 1448 1529 
Q 2069 2156 2228 2338 
Q 2531 2678 2651 2914 
Q 2772 3150 2772 3378 
Q 2772 3750 2511 3984 
Q 2250 4219 1831 4219 
Q 1534 4219 1204 4116 
Q 875 4013 500 3803 
L 500 4441 
Q 881 4594 1212 4672 
Q 1544 4750 1819 4750 
Q 2544 4750 2975 4387 
Q 3406 4025 3406 3419 
Q 3406 3131 3298 2873 
Q 3191 2616 2906 2266 
Q 2828 2175 2409 1742 
Q 1991 1309 1228 531 
z
" transform="scale(0.015625)"/>
       </defs>
       <use xlink:href="#DejaVuSans-30"/>
       <use xlink:href="#DejaVuSans-2e" transform="translate(63.623047 0)"/>
       <use xlink:href="#DejaVuSans-32" transform="translate(95.410156 0)"/>
       <use xlink:href="#DejaVuSans-30" transform="translate(159.033203 0)"/>
      </g>
     </g>
    </g>
    <g id="xtick_2">
     <g id="line2d_3">
      <path d="M 146.308186 390.04 
L 146.308186 34.56 
" clip-path="url(#p0b77ae366c)" style="fill: none; stroke: #b0b0b0; stroke-opacity: 0.35; stroke-width: 0.8; stroke-linecap: square"/>
     </g>
     <g id="line2d_4">
      <g>
       <use xlink:href="#me1848ab8f9" x="146.308186" y="390.04" style="stroke: #000000; stroke-width: 0.8"/>
      </g>
     </g>
     <g id="text_2">
      <!-- 0.25 -->
      <g transform="translate(135.175373 404.638438) scale(0.1 -0.1)">
       <defs>
        <path id="DejaVuSans-35" d="M 691 4666 
L 3169 4666 
L 3169 4134 
L 1269 4134 
L 1269 2991 
Q 1406 3038 1543 3061 
Q 1681 3084 1819 3084 
Q 2600 3084 3056 2656 
Q 3513 2228 3513 1497 
Q 3513 744 3044 326 
Q 2575 -91 1722 -91 
Q 1428 -91 1123 -41 
Q 819 9 494 109 
L 494 744 
Q 775 591 1075 516 
Q 1375 441 1709 441 
Q 2250 441 2565 725 
Q 2881 1009 2881 1497 
Q 2881 1984 2565 2268 
Q 2250 2553 1709 2553 
Q 1456 2553 1204 2497 
Q 953 2441 691 2322 
L 691 4666 
z
" transform="scale(0.015625)"/>
       </defs>
       <use xlink:href="#DejaVuSans-30"/>
       <use xlink:href="#DejaVuSans-2e" transform="translate(63.623047 0)"/>
       <use xlink:href="#DejaVuSans-32" transform="translate(95.410156 0)"/>
       <use xlink:href="#DejaVuSans-35" transform="translate(159.033203 0)"/>
      </g>
     </g>
    </g>
    <g id="xtick_3">
     <g id="line2d_5">
      <path d="M 204.387157 390.04 
L 204.387157 34.56 
" clip-path="url(#p0b77ae366c)" style="fill: none; stroke: #b0b0b0; stroke-opacity: 0.35; stroke-width: 0.8; stroke-linecap: square"/>
     </g>
     <g id="line2d_6">
      <g>
       <use xlink:href="#me1848ab8f9" x="204.387157" y="390.04" style="stroke: #000000; stroke-width: 0.8"/>
      </g>
     </g>
     <g id="text_3">
      <!-- 0.30 -->
      <g transform="translate(193.254345 404.638438) scale(0.1 -0.1)">
       <defs>
        <path id="DejaVuSans-33" d="M 2597 2516 
Q 3050 2419 3304 2112 
Q 3559 1806 3559 1356 
Q 3559 666 3084 287 
Q 2609 -91 1734 -91 
Q 1441 -91 1130 -33 
Q 819 25 488 141 
L 488 750 
Q 750 597 1062 519 
Q 1375 441 1716 441 
Q 2309 441 2620 675 
Q 2931 909 2931 1356 
Q 2931 1769 2642 2001 
Q 2353 2234 1838 2234 
L 1294 2234 
L 1294 2753 
L 1863 2753 
Q 2328 2753 2575 2939 
Q 2822 3125 2822 3475 
Q 2822 3834 2567 4026 
Q 2313 4219 1838 4219 
Q 1578 4219 1281 4162 
Q 984 4106 628 3988 
L 628 4550 
Q 988 4650 1302 4700 
Q 1616 4750 1894 4750 
Q 2613 4750 3031 4423 
Q 3450 4097 3450 3541 
Q 3450 3153 3228 2886 
Q 3006 2619 2597 2516 
z
" transform="scale(0.015625)"/>
       </defs>
       <use xlink:href="#DejaVuSans-30"/>
       <use xlink:href="#DejaVuSans-2e" transform="translate(63.623047 0)"/>
       <use xlink:href="#DejaVuSans-33" transform="translate(95.410156 0)"/>
       <use xlink:href="#DejaVuSans-30" transform="translate(159.033203 0)"/>
      </g>
     </g>
    </g>
    <g id="xtick_4">
     <g id="line2d_7">
      <path d="M 262.466129 390.04 
L 262.466129 34.56 
" clip-path="url(#p0b77ae366c)" style="fill: none; stroke: #b0b0b0; stroke-opacity: 0.35; stroke-width: 0.8; stroke-linecap: square"/>
     </g>
     <g id="line2d_8">
      <g>
       <use xlink:href="#me1848ab8f9" x="262.466129" y="390.04" style="stroke: #000000; stroke-width: 0.8"/>
      </g>
     </g>
     <g id="text_4">
      <!-- 0.35 -->
      <g transform="translate(251.333316 404.638438) scale(0.1 -0.1)">
       <use xlink:href="#DejaVuSans-30"/>
       <use xlink:href="#DejaVuSans-2e" transform="translate(63.623047 0)"/>
       <use xlink:href="#DejaVuSans-33" transform="translate(95.410156 0)"/>
       <use xlink:href="#DejaVuSans-35" transform="translate(159.033203 0)"/>
      </g>
     </g>
    </g>
    <g id="xtick_5">
     <g id="line2d_9">
      <path d="M 320.5451 390.04 
L 320.5451 34.56 
" clip-path="url(#p0b77ae366c)" style="fill: none; stroke: #b0b0b0; stroke-opacity: 0.35; stroke-width: 0.8; stroke-linecap: square"/>
     </g>
     <g id="line2d_10">
      <g>
       <use xlink:href="#me1848ab8f9" x="320.5451" y="390.04" style="stroke: #000000; stroke-width: 0.8"/>
      </g>
     </g>
     <g id="text_5">
      <!-- 0.40 -->
      <g transform="translate(309.412287 404.638438) scale(0.1 -0.1)">
       <defs>
        <path id="DejaVuSans-34" d="M 2419 4116 
L 825 1625 
L 2419 1625 
L 2419 4116 
z
M 2253 4666 
L 3047 4666 
L 3047 1625 
L 3713 1625 
L 3713 1100 
L 3047 1100 
L 3047 0 
L 2419 0 
L 2419 1100 
L 313 1100 
L 313 1709 
L 2253 4666 
z
" transform="scale(0.015625)"/>
       </defs>
       <use xlink:href="#DejaVuSans-30"/>
       <use xlink:href="#DejaVuSans-2e" transform="translate(63.623047 0)"/>
       <use xlink:href="#DejaVuSans-34" transform="translate(95.410156 0)"/>
       <use xlink:href="#DejaVuSans-30" transform="translate(159.033203 0)"/>
      </g>
     </g>
    </g>
    <g id="text_6">
     <!-- Объёмная влажность θ, м³/м³ -->
     <g transform="translate(133.207897 418.316562) scale(0.1 -0.1)">
      <defs>
       <path id="DejaVuSans-41e" d="M 2522 4238 
Q 1834 4238 1429 3725 
Q 1025 3213 1025 2328 
Q 1025 1447 1429 934 
Q 1834 422 2522 422 
Q 3209 422 3611 934 
Q 4013 1447 4013 2328 
Q 4013 3213 3611 3725 
Q 3209 4238 2522 4238 
z
M 2522 4750 
Q 3503 4750 4090 4092 
Q 4678 3434 4678 2328 
Q 4678 1225 4090 567 
Q 3503 -91 2522 -91 
Q 1538 -91 948 565 
Q 359 1222 359 2328 
Q 359 3434 948 4092 
Q 1538 4750 2522 4750 
z
" transform="scale(0.015625)"/>
       <path id="DejaVuSans-431" d="M 1991 3584 
Q 2741 3584 3169 3096 
Q 3597 2609 3597 1747 
Q 3597 888 3169 398 
Q 2741 -91 1991 -91 
Q 1238 -91 822 384 
Q 406 859 384 1747 
L 366 2463 
Q 350 2834 350 2963 
Q 350 3463 531 3831 
Q 816 4409 1308 4659 
Q 1800 4909 2625 4916 
Q 3006 4919 3175 4972 
L 3334 4516 
Q 3181 4453 3041 4450 
L 2259 4397 
Q 1866 4369 1628 4231 
Q 1006 3866 947 3388 
L 925 3213 
Q 1331 3584 1991 3584 
z
M 1991 3097 
Q 1528 3097 1259 2736 
Q 991 2375 991 1747 
Q 991 1119 1258 758 
Q 1525 397 1991 397 
Q 2450 397 2719 759 
Q 2988 1122 2988 1747 
Q 2988 2369 2719 2733 
Q 2450 3097 1991 3097 
z
" transform="scale(0.015625)"/>
       <path id="DejaVuSans-44a" d="M 2753 2072 
Q 3422 2072 3783 1817 
Q 4144 1563 4144 1038 
Q 4144 513 3783 256 
Q 3422 0 2753 0 
L 1328 0 
L 1328 3041 
L 194 3041 
L 194 3500 
L 1906 3500 
L 1906 2072 
L 2753 2072 
z
M 2728 1613 
L 1906 1613 
L 1906 459 
L 2728 459 
Q 3122 459 3326 607 
Q 3531 756 3531 1038 
Q 3531 1319 3326 1466 
Q 3122 1613 2728 1613 
z
" transform="scale(0.015625)"/>
       <path id="DejaVuSans-451" d="M 3597 1894 
L 3597 1613 
L 953 1613 
Q 991 1019 1311 708 
Q 1631 397 2203 397 
Q 2534 397 2845 478 
Q 3156 559 3463 722 
L 3463 178 
Q 3153 47 2828 -22 
Q 2503 -91 2169 -91 
Q 1331 -91 842 396 
Q 353 884 353 1716 
Q 353 2575 817 3079 
Q 1281 3584 2069 3584 
Q 2775 3584 3186 3129 
Q 3597 2675 3597 1894 
z
M 3022 2063 
Q 3016 2534 2758 2815 
Q 2500 3097 2075 3097 
Q 1594 3097 1305 2825 
Q 1016 2553 972 2059 
L 3022 2063 
z
M 2366 4850 
L 3000 4850 
L 3000 4219 
L 2366 4219 
L 2366 4850 
z
M 1144 4850 
L 1778 4850 
L 1778 4219 
L 1144 4219 
L 1144 4850 
z
" transform="scale(0.015625)"/>
       <path id="DejaVuSans-43c" d="M 581 3500 
L 1422 3500 
L 2416 1156 
L 3413 3500 
L 4247 3500 
L 4247 0 
L 3669 0 
L 3669 2950 
L 2703 672 
L 2128 672 
L 1159 2950 
L 1159 0 
L 581 0 
L 581 3500 
z
" transform="scale(0.015625)"/>
       <path id="DejaVuSans-43d" d="M 581 3500 
L 1159 3500 
L 1159 2072 
L 3025 2072 
L 3025 3500 
L 3603 3500 
L 3603 0 
L 3025 0 
L 3025 1613 
L 1159 1613 
L 1159 0 
L 581 0 
L 581 3500 
z
" transform="scale(0.015625)"/>
       <path id="DejaVuSans-430" d="M 2194 1759 
Q 1497 1759 1228 1600 
Q 959 1441 959 1056 
Q 959 750 1161 570 
Q 1363 391 1709 391 
Q 2188 391 2477 730 
Q 2766 1069 2766 1631 
L 2766 1759 
L 2194 1759 
z
M 3341 1997 
L 3341 0 
L 2766 0 
L 2766 531 
Q 2569 213 2275 61 
Q 1981 -91 1556 -91 
Q 1019 -91 701 211 
Q 384 513 384 1019 
Q 384 1609 779 1909 
Q 1175 2209 1959 2209 
L 2766 2209 
L 2766 2266 
Q 2766 2663 2505 2880 
Q 2244 3097 1772 3097 
Q 1472 3097 1187 3025 
Q 903 2953 641 2809 
L 641 3341 
Q 956 3463 1253 3523 
Q 1550 3584 1831 3584 
Q 2591 3584 2966 3190 
Q 3341 2797 3341 1997 
z
" transform="scale(0.015625)"/>
       <path id="DejaVuSans-44f" d="M 1181 2491 
Q 1181 2231 1381 2084 
Q 1581 1938 1953 1938 
L 2728 1938 
L 2728 3041 
L 1953 3041 
Q 1581 3041 1381 2897 
Q 1181 2753 1181 2491 
z
M 363 0 
L 1431 1534 
Q 1069 1616 828 1830 
Q 588 2044 588 2491 
Q 588 2997 923 3248 
Q 1259 3500 1938 3500 
L 3306 3500 
L 3306 0 
L 2728 0 
L 2728 1478 
L 2013 1478 
L 981 0 
L 363 0 
z
" transform="scale(0.015625)"/>
       <path id="DejaVuSans-20" transform="scale(0.015625)"/>
       <path id="DejaVuSans-432" d="M 1156 1613 
L 1156 459 
L 1975 459 
Q 2369 459 2575 607 
Q 2781 756 2781 1038 
Q 2781 1319 2575 1466 
Q 2369 1613 1975 1613 
L 1156 1613 
z
M 1156 3041 
L 1156 2072 
L 1913 2072 
Q 2238 2072 2444 2201 
Q 2650 2331 2650 2563 
Q 2650 2794 2444 2917 
Q 2238 3041 1913 3041 
L 1156 3041 
z
M 581 3500 
L 1950 3500 
Q 2566 3500 2897 3275 
Q 3228 3050 3228 2634 
Q 3228 2313 3059 2123 
Q 2891 1934 2559 1888 
Q 2956 1813 3175 1575 
Q 3394 1338 3394 981 
Q 3394 513 3033 256 
Q 2672 0 2003 0 
L 581 0 
L 581 3500 
z
" transform="scale(0.015625)"/>
       <path id="DejaVuSans-43b" d="M 238 0 
L 238 478 
Q 806 566 981 959 
Q 1194 1513 1194 2928 
L 1194 3500 
L 3559 3500 
L 3559 0 
L 2984 0 
L 2984 3041 
L 1769 3041 
L 1769 2694 
Q 1769 1344 1494 738 
Q 1200 91 238 0 
z
" transform="scale(0.015625)"/>
       <path id="DejaVuSans-436" d="M 2597 3500 
L 3169 3500 
L 3169 1856 
L 4697 3500 
L 5366 3500 
L 4109 2153 
L 5547 0 
L 4931 0 
L 3753 1769 
L 3169 1141 
L 3169 0 
L 2597 0 
L 2597 1141 
L 2013 1769 
L 834 0 
L 219 0 
L 1656 2153 
L 400 3500 
L 1069 3500 
L 2597 1856 
L 2597 3500 
z
" transform="scale(0.015625)"/>
       <path id="DejaVuSans-43e" d="M 1959 3097 
Q 1497 3097 1228 2736 
Q 959 2375 959 1747 
Q 959 1119 1226 758 
Q 1494 397 1959 397 
Q 2419 397 2687 759 
Q 2956 1122 2956 1747 
Q 2956 2369 2687 2733 
Q 2419 3097 1959 3097 
z
M 1959 3584 
Q 2709 3584 3137 3096 
Q 3566 2609 3566 1747 
Q 3566 888 3137 398 
Q 2709 -91 1959 -91 
Q 1206 -91 779 398 
Q 353 888 353 1747 
Q 353 2609 779 3096 
Q 1206 3584 1959 3584 
z
" transform="scale(0.015625)"/>
       <path id="DejaVuSans-441" d="M 3122 3366 
L 3122 2828 
Q 2878 2963 2633 3030 
Q 2388 3097 2138 3097 
Q 1578 3097 1268 2742 
Q 959 2388 959 1747 
Q 959 1106 1268 751 
Q 1578 397 2138 397 
Q 2388 397 2633 464 
Q 2878 531 3122 666 
L 3122 134 
Q 2881 22 2623 -34 
Q 2366 -91 2075 -91 
Q 1284 -91 818 406 
Q 353 903 353 1747 
Q 353 2603 823 3093 
Q 1294 3584 2113 3584 
Q 2378 3584 2631 3529 
Q 2884 3475 3122 3366 
z
" transform="scale(0.015625)"/>
       <path id="DejaVuSans-442" d="M 188 3500 
L 3541 3500 
L 3541 3041 
L 2147 3041 
L 2147 0 
L 1581 0 
L 1581 3041 
L 188 3041 
L 188 3500 
z
" transform="scale(0.015625)"/>
       <path id="DejaVuSans-44c" d="M 2781 1038 
Q 2781 1319 2576 1466 
Q 2372 1613 1978 1613 
L 1159 1613 
L 1159 459 
L 1978 459 
Q 2372 459 2576 607 
Q 2781 756 2781 1038 
z
M 581 3500 
L 1159 3500 
L 1159 2072 
L 2003 2072 
Q 2672 2072 3033 1817 
Q 3394 1563 3394 1038 
Q 3394 513 3033 256 
Q 2672 0 2003 0 
L 581 0 
L 581 3500 
z
" transform="scale(0.015625)"/>
       <path id="DejaVuSans-3b8" d="M 2953 2219 
L 963 2219 
Q 1009 1284 1225 888 
Q 1494 400 1959 400 
Q 2428 400 2688 891 
Q 2916 1322 2953 2219 
z
M 2944 2750 
Q 2856 3638 2688 3950 
Q 2419 4444 1959 4444 
Q 1481 4444 1228 3956 
Q 1028 3563 969 2750 
L 2944 2750 
z
M 1959 4913 
Q 2709 4913 3138 4250 
Q 3566 3591 3566 2422 
Q 3566 1256 3138 594 
Q 2709 -72 1959 -72 
Q 1206 -72 781 594 
Q 353 1256 353 2422 
Q 353 3591 781 4250 
Q 1206 4913 1959 4913 
z
" transform="scale(0.015625)"/>
       <path id="DejaVuSans-2c" d="M 750 794 
L 1409 794 
L 1409 256 
L 897 -744 
L 494 -744 
L 750 256 
L 750 794 
z
" transform="scale(0.015625)"/>
       <path id="DejaVuSans-b3" d="M 1638 3500 
Q 1925 3444 2083 3273 
Q 2241 3103 2241 2847 
Q 2241 2459 1944 2250 
Q 1647 2041 1094 2041 
Q 916 2041 720 2073 
Q 525 2106 306 2169 
L 306 2547 
Q 469 2463 655 2422 
Q 841 2381 1050 2381 
Q 1391 2381 1578 2504 
Q 1766 2628 1766 2847 
Q 1766 3078 1592 3197 
Q 1419 3316 1081 3316 
L 813 3316 
L 813 3653 
L 1106 3653 
Q 1400 3653 1551 3751 
Q 1703 3850 1703 4038 
Q 1703 4219 1547 4314 
Q 1391 4409 1094 4409 
Q 969 4409 809 4381 
Q 650 4353 397 4281 
L 397 4641 
Q 625 4694 825 4722 
Q 1025 4750 1197 4750 
Q 1647 4750 1911 4565 
Q 2175 4381 2175 4072 
Q 2175 3856 2034 3706 
Q 1894 3556 1638 3500 
z
" transform="scale(0.015625)"/>
       <path id="DejaVuSans-2f" d="M 1625 4666 
L 2156 4666 
L 531 -594 
L 0 -594 
L 1625 4666 
z
" transform="scale(0.015625)"/>
      </defs>
      <use xlink:href="#DejaVuSans-41e"/>
      <use xlink:href="#DejaVuSans-431" transform="translate(78.710938 0)"/>
      <use xlink:href="#DejaVuSans-44a" transform="translate(140.380859 0)"/>
      <use xlink:href="#DejaVuSans-451" transform="translate(211.035156 0)"/>
      <use xlink:href="#DejaVuSans-43c" transform="translate(272.558594 0)"/>
      <use xlink:href="#DejaVuSans-43d" transform="translate(347.998047 0)"/>
      <use xlink:href="#DejaVuSans-430" transform="translate(413.378906 0)"/>
      <use xlink:href="#DejaVuSans-44f" transform="translate(474.658203 0)"/>
      <use xlink:href="#DejaVuSans-20" transform="translate(534.814453 0)"/>
      <use xlink:href="#DejaVuSans-432" transform="translate(566.601562 0)"/>
      <use xlink:href="#DejaVuSans-43b" transform="translate(625.537109 0)"/>
      <use xlink:href="#DejaVuSans-430" transform="translate(689.453125 0)"/>
      <use xlink:href="#DejaVuSans-436" transform="translate(750.732422 0)"/>
      <use xlink:href="#DejaVuSans-43d" transform="translate(840.820312 0)"/>
      <use xlink:href="#DejaVuSans-43e" transform="translate(906.201172 0)"/>
      <use xlink:href="#DejaVuSans-441" transform="translate(967.382812 0)"/>
      <use xlink:href="#DejaVuSans-442" transform="translate(1022.363281 0)"/>
      <use xlink:href="#DejaVuSans-44c" transform="translate(1080.615234 0)"/>
      <use xlink:href="#DejaVuSans-20" transform="translate(1139.550781 0)"/>
      <use xlink:href="#DejaVuSans-3b8" transform="translate(1171.337891 0)"/>
      <use xlink:href="#DejaVuSans-2c" transform="translate(1232.519531 0)"/>
      <use xlink:href="#DejaVuSans-20" transform="translate(1264.306641 0)"/>
      <use xlink:href="#DejaVuSans-43c" transform="translate(1296.09375 0)"/>
      <use xlink:href="#DejaVuSans-b3" transform="translate(1371.533203 0)"/>
      <use xlink:href="#DejaVuSans-2f" transform="translate(1411.621094 0)"/>
      <use xlink:href="#DejaVuSans-43c" transform="translate(1445.3125 0)"/>
      <use xlink:href="#DejaVuSans-b3" transform="translate(1520.751953 0)"/>
     </g>
    </g>
   </g>
   <g id="matplotlib.axis_2">
    <g id="ytick_1">
     <g id="line2d_11">
      <path d="M 54.0875 50.718182 
L 368.414231 50.718182 
" clip-path="url(#p0b77ae366c)" style="fill: none; stroke: #b0b0b0; stroke-opacity: 0.35; stroke-width: 0.8; stroke-linecap: square"/>
     </g>
     <g id="line2d_12">
      <defs>
       <path id="m52ec76d731" d="M 0 0 
L -3.5 0 
" style="stroke: #000000; stroke-width: 0.8"/>
      </defs>
      <g>
       <use xlink:href="#m52ec76d731" x="54.0875" y="50.718182" style="stroke: #000000; stroke-width: 0.8"/>
      </g>
     </g>
     <g id="text_7">
      <!-- 0.00 -->
      <g transform="translate(24.821875 54.517401) scale(0.1 -0.1)">
       <use xlink:href="#DejaVuSans-30"/>
       <use xlink:href="#DejaVuSans-2e" transform="translate(63.623047 0)"/>
       <use xlink:href="#DejaVuSans-30" transform="translate(95.410156 0)"/>
       <use xlink:href="#DejaVuSans-30" transform="translate(159.033203 0)"/>
      </g>
     </g>
    </g>
    <g id="ytick_2">
     <g id="line2d_13">
      <path d="M 54.0875 91.624971 
L 368.414231 91.624971 
" clip-path="url(#p0b77ae366c)" style="fill: none; stroke: #b0b0b0; stroke-opacity: 0.35; stroke-width: 0.8; stroke-linecap: square"/>
     </g>
     <g id="line2d_14">
      <g>
       <use xlink:href="#m52ec76d731" x="54.0875" y="91.624971" style="stroke: #000000; stroke-width: 0.8"/>
      </g>
     </g>
     <g id="text_8">
      <!-- 0.25 -->
      <g transform="translate(24.821875 95.42419) scale(0.1 -0.1)">
       <use xlink:href="#DejaVuSans-30"/>
       <use xlink:href="#DejaVuSans-2e" transform="translate(63.623047 0)"/>
       <use xlink:href="#DejaVuSans-32" transform="translate(95.410156 0)"/>
       <use xlink:href="#DejaVuSans-35" transform="translate(159.033203 0)"/>
      </g>
     </g>
    </g>
    <g id="ytick_3">
     <g id="line2d_15">
      <path d="M 54.0875 132.531761 
L 368.414231 132.531761 
" clip-path="url(#p0b77ae366c)" style="fill: none; stroke: #b0b0b0; stroke-opacity: 0.35; stroke-width: 0.8; stroke-linecap: square"/>
     </g>
     <g id="line2d_16">
      <g>
       <use xlink:href="#m52ec76d731" x="54.0875" y="132.531761" style="stroke: #000000; stroke-width: 0.8"/>
      </g>
     </g>
     <g id="text_9">
      <!-- 0.50 -->
      <g transform="translate(24.821875 136.330979) scale(0.1 -0.1)">
       <use xlink:href="#DejaVuSans-30"/>
       <use xlink:href="#DejaVuSans-2e" transform="translate(63.623047 0)"/>
       <use xlink:href="#DejaVuSans-35" transform="translate(95.410156 0)"/>
       <use xlink:href="#DejaVuSans-30" transform="translate(159.033203 0)"/>
      </g>
     </g>
    </g>
    <g id="ytick_4">
     <g id="line2d_17">
      <path d="M 54.0875 173.43855 
L 368.414231 173.43855 
" clip-path="url(#p0b77ae366c)" style="fill: none; stroke: #b0b0b0; stroke-opacity: 0.35; stroke-width: 0.8; stroke-linecap: square"/>
     </g>
     <g id="line2d_18">
      <g>
       <use xlink:href="#m52ec76d731" x="54.0875" y="173.43855" style="stroke: #000000; stroke-width: 0.8"/>
      </g>
     </g>
     <g id="text_10">
      <!-- 0.75 -->
      <g transform="translate(24.821875 177.237769) scale(0.1 -0.1)">
       <defs>
        <path id="DejaVuSans-37" d="M 525 4666 
L 3525 4666 
L 3525 4397 
L 1831 0 
L 1172 0 
L 2766 4134 
L 525 4134 
L 525 4666 
z
" transform="scale(0.015625)"/>
       </defs>
       <use xlink:href="#DejaVuSans-30"/>
       <use xlink:href="#DejaVuSans-2e" transform="translate(63.623047 0)"/>
       <use xlink:href="#DejaVuSans-37" transform="translate(95.410156 0)"/>
       <use xlink:href="#DejaVuSans-35" transform="translate(159.033203 0)"/>
      </g>
     </g>
    </g>
    <g id="ytick_5">
     <g id="line2d_19">
      <path d="M 54.0875 214.345339 
L 368.414231 214.345339 
" clip-path="url(#p0b77ae366c)" style="fill: none; stroke: #b0b0b0; stroke-opacity: 0.35; stroke-width: 0.8; stroke-linecap: square"/>
     </g>
     <g id="line2d_20">
      <g>
       <use xlink:href="#m52ec76d731" x="54.0875" y="214.345339" style="stroke: #000000; stroke-width: 0.8"/>
      </g>
     </g>
     <g id="text_11">
      <!-- 1.00 -->
      <g transform="translate(24.821875 218.144558) scale(0.1 -0.1)">
       <defs>
        <path id="DejaVuSans-31" d="M 794 531 
L 1825 531 
L 1825 4091 
L 703 3866 
L 703 4441 
L 1819 4666 
L 2450 4666 
L 2450 531 
L 3481 531 
L 3481 0 
L 794 0 
L 794 531 
z
" transform="scale(0.015625)"/>
       </defs>
       <use xlink:href="#DejaVuSans-31"/>
       <use xlink:href="#DejaVuSans-2e" transform="translate(63.623047 0)"/>
       <use xlink:href="#DejaVuSans-30" transform="translate(95.410156 0)"/>
       <use xlink:href="#DejaVuSans-30" transform="translate(159.033203 0)"/>
      </g>
     </g>
    </g>
    <g id="ytick_6">
     <g id="line2d_21">
      <path d="M 54.0875 255.252129 
L 368.414231 255.252129 
" clip-path="url(#p0b77ae366c)" style="fill: none; stroke: #b0b0b0; stroke-opacity: 0.35; stroke-width: 0.8; stroke-linecap: square"/>
     </g>
     <g id="line2d_22">
      <g>
       <use xlink:href="#m52ec76d731" x="54.0875" y="255.252129" style="stroke: #000000; stroke-width: 0.8"/>
      </g>
     </g>
     <g id="text_12">
      <!-- 1.25 -->
      <g transform="translate(24.821875 259.051348) scale(0.1 -0.1)">
       <use xlink:href="#DejaVuSans-31"/>
       <use xlink:href="#DejaVuSans-2e" transform="translate(63.623047 0)"/>
       <use xlink:href="#DejaVuSans-32" transform="translate(95.410156 0)"/>
       <use xlink:href="#DejaVuSans-35" transform="translate(159.033203 0)"/>
      </g>
     </g>
    </g>
    <g id="ytick_7">
     <g id="line2d_23">
      <path d="M 54.0875 296.158918 
L 368.414231 296.158918 
" clip-path="url(#p0b77ae366c)" style="fill: none; stroke: #b0b0b0; stroke-opacity: 0.35; stroke-width: 0.8; stroke-linecap: square"/>
     </g>
     <g id="line2d_24">
      <g>
       <use xlink:href="#m52ec76d731" x="54.0875" y="296.158918" style="stroke: #000000; stroke-width: 0.8"/>
      </g>
     </g>
     <g id="text_13">
      <!-- 1.50 -->
      <g transform="translate(24.821875 299.958137) scale(0.1 -0.1)">
       <use xlink:href="#DejaVuSans-31"/>
       <use xlink:href="#DejaVuSans-2e" transform="translate(63.623047 0)"/>
       <use xlink:href="#DejaVuSans-35" transform="translate(95.410156 0)"/>
       <use xlink:href="#DejaVuSans-30" transform="translate(159.033203 0)"/>
      </g>
     </g>
    </g>
    <g id="ytick_8">
     <g id="line2d_25">
      <path d="M 54.0875 337.065708 
L 368.414231 337.065708 
" clip-path="url(#p0b77ae366c)" style="fill: none; stroke: #b0b0b0; stroke-opacity: 0.35; stroke-width: 0.8; stroke-linecap: square"/>
     </g>
     <g id="line2d_26">
      <g>
       <use xlink:href="#m52ec76d731" x="54.0875" y="337.065708" style="stroke: #000000; stroke-width: 0.8"/>
      </g>
     </g>
     <g id="text_14">
      <!-- 1.75 -->
      <g transform="translate(24.821875 340.864926) scale(0.1 -0.1)">
       <use xlink:href="#DejaVuSans-31"/>
       <use xlink:href="#DejaVuSans-2e" transform="translate(63.623047 0)"/>
       <use xlink:href="#DejaVuSans-37" transform="translate(95.410156 0)"/>
       <use xlink:href="#DejaVuSans-35" transform="translate(159.033203 0)"/>
      </g>
     </g>
    </g>
    <g id="ytick_9">
     <g id="line2d_27">
      <path d="M 54.0875 377.972497 
L 368.414231 377.972497 
" clip-path="url(#p0b77ae366c)" style="fill: none; stroke: #b0b0b0; stroke-opacity: 0.35; stroke-width: 0.8; stroke-linecap: square"/>
     </g>
     <g id="line2d_28">
      <g>
       <use xlink:href="#m52ec76d731" x="54.0875" y="377.972497" style="stroke: #000000; stroke-width: 0.8"/>
      </g>
     </g>
     <g id="text_15">
      <!-- 2.00 -->
      <g transform="translate(24.821875 381.771716) scale(0.1 -0.1)">
       <use xlink:href="#DejaVuSans-32"/>
       <use xlink:href="#DejaVuSans-2e" transform="translate(63.623047 0)"/>
       <use xlink:href="#DejaVuSans-30" transform="translate(95.410156 0)"/>
       <use xlink:href="#DejaVuSans-30" transform="translate(159.033203 0)"/>
      </g>
     </g>
    </g>
    <g id="text_16">
     <!-- Глубина, м -->
     <g transform="translate(18.742187 241.120313) rotate(-90) scale(0.1 -0.1)">
      <defs>
       <path id="DejaVuSans-413" d="M 628 0 
L 628 4666 
L 3531 4666 
L 3531 4134 
L 1259 4134 
L 1259 0 
L 628 0 
z
" transform="scale(0.015625)"/>
       <path id="DejaVuSans-443" d="M 2059 -325 
Q 1816 -950 1584 -1140 
Q 1353 -1331 966 -1331 
L 506 -1331 
L 506 -850 
L 844 -850 
Q 1081 -850 1212 -737 
Q 1344 -625 1503 -206 
L 1606 56 
L 191 3500 
L 800 3500 
L 1894 763 
L 2988 3500 
L 3597 3500 
L 2059 -325 
z
" transform="scale(0.015625)"/>
       <path id="DejaVuSans-438" d="M 3578 3500 
L 3578 0 
L 3006 0 
L 3006 2809 
L 1319 0 
L 581 0 
L 581 3500 
L 1153 3500 
L 1153 697 
L 2838 3500 
L 3578 3500 
z
" transform="scale(0.015625)"/>
      </defs>
      <use xlink:href="#DejaVuSans-413"/>
      <use xlink:href="#DejaVuSans-43b" transform="translate(60.986328 0)"/>
      <use xlink:href="#DejaVuSans-443" transform="translate(124.902344 0)"/>
      <use xlink:href="#DejaVuSans-431" transform="translate(184.082031 0)"/>
      <use xlink:href="#DejaVuSans-438" transform="translate(245.751953 0)"/>
      <use xlink:href="#DejaVuSans-43d" transform="translate(310.742188 0)"/>
      <use xlink:href="#DejaVuSans-430" transform="translate(376.123047 0)"/>
      <use xlink:href="#DejaVuSans-2c" transform="translate(437.402344 0)"/>
      <use xlink:href="#DejaVuSans-20" transform="translate(469.189453 0)"/>
      <use xlink:href="#DejaVuSans-43c" transform="translate(500.976562 0)"/>
     </g>
    </g>
   </g>
   <g id="line2d_29">
    <path d="M 186.830656 50.718182 
L 178.366632 54.808861 
L 168.652411 58.89954 
L 157.590846 62.990219 
L 145.148771 67.080898 
L 131.425381 71.171577 
L 116.766967 75.262255 
L 101.933185 79.352934 
L 88.257096 83.443613 
L 77.533928 87.534292 
L 71.113573 91.624971 
L 68.602791 95.71565 
L 68.375079 99.806329 
L 69.129892 103.897008 
L 70.254169 107.987687 
L 71.519899 112.078366 
L 72.851161 116.169045 
L 74.224179 120.259724 
L 75.632411 124.350403 
L 77.074607 128.441082 
L 78.551367 132.531761 
L 80.06374 136.62244 
L 81.613124 140.713119 
L 83.200969 144.803797 
L 84.828771 148.894476 
L 86.49818 152.985155 
L 88.210894 157.075834 
L 89.968761 161.166513 
L 91.773729 165.257192 
L 93.627796 169.347871 
L 95.533109 173.43855 
L 97.492016 177.529229 
L 99.506915 181.619908 
L 101.580353 185.710587 
L 103.715127 189.801266 
L 105.914084 193.891945 
L 108.180371 197.982624 
L 110.517284 202.073303 
L 112.928369 206.163982 
L 115.417324 210.254661 
L 117.988193 214.345339 
L 120.645222 218.436018 
L 123.393107 222.526697 
L 126.236642 226.617376 
L 129.181171 230.708055 
L 132.23229 234.798734 
L 135.396041 238.889413 
L 138.679017 242.980092 
L 142.088162 247.070771 
L 145.630918 251.16145 
L 149.315526 255.252129 
L 153.150576 259.342808 
L 157.145411 263.433487 
L 161.310218 267.524166 
L 165.655736 271.614845 
L 170.193654 275.705524 
L 174.936459 279.796203 
L 179.897585 283.886881 
L 185.091319 287.97756 
L 190.532845 292.068239 
L 196.238445 296.158918 
L 202.224953 300.249597 
L 208.510149 304.340276 
L 215.112114 308.430955 
L 222.04908 312.521634 
L 229.338929 316.612313 
L 236.998092 320.702992 
L 245.040605 324.793671 
L 253.476159 328.88435 
L 262.3077 332.975029 
L 271.527835 337.065708 
L 281.113839 341.156387 
L 291.020708 345.247066 
L 301.171673 349.337745 
L 311.44501 353.428423 
L 321.656562 357.519102 
L 331.535161 361.609781 
L 340.687167 365.70046 
L 348.533235 369.791139 
L 354.126653 373.881818 
" clip-path="url(#p0b77ae366c)" style="fill: none; stroke: #1f77b4; stroke-width: 1.5; stroke-linecap: square"/>
    <defs>
     <path id="m8eb582f548" d="M 0 3 
C 0.795609 3 1.55874 2.683901 2.12132 2.12132 
C 2.683901 1.55874 3 0.795609 3 0 
C 3 -0.795609 2.683901 -1.55874 2.12132 -2.12132 
C 1.55874 -2.683901 0.795609 -3 0 -3 
C -0.795609 -3 -1.55874 -2.683901 -2.12132 -2.12132 
C -2.683901 -1.55874 -3 -0.795609 -3 0 
C -3 0.795609 -2.683901 1.55874 -2.12132 2.12132 
C -1.55874 2.683901 -0.795609 3 0 3 
z
" style="stroke: #1f77b4"/>
    </defs>
    <g clip-path="url(#p0b77ae366c)">
     <use xlink:href="#m8eb582f548" x="186.830656" y="50.718182" style="fill: #1f77b4; stroke: #1f77b4"/>
     <use xlink:href="#m8eb582f548" x="178.366632" y="54.808861" style="fill: #1f77b4; stroke: #1f77b4"/>
     <use xlink:href="#m8eb582f548" x="168.652411" y="58.89954" style="fill: #1f77b4; stroke: #1f77b4"/>
     <use xlink:href="#m8eb582f548" x="157.590846" y="62.990219" style="fill: #1f77b4; stroke: #1f77b4"/>
     <use xlink:href="#m8eb582f548" x="145.148771" y="67.080898" style="fill: #1f77b4; stroke: #1f77b4"/>
     <use xlink:href="#m8eb582f548" x="131.425381" y="71.171577" style="fill: #1f77b4; stroke: #1f77b4"/>
     <use xlink:href="#m8eb582f548" x="116.766967" y="75.262255" style="fill: #1f77b4; stroke: #1f77b4"/>
     <use xlink:href="#m8eb582f548" x="101.933185" y="79.352934" style="fill: #1f77b4; stroke: #1f77b4"/>
     <use xlink:href="#m8eb582f548" x="88.257096" y="83.443613" style="fill: #1f77b4; stroke: #1f77b4"/>
     <use xlink:href="#m8eb582f548" x="77.533928" y="87.534292" style="fill: #1f77b4; stroke: #1f77b4"/>
     <use xlink:href="#m8eb582f548" x="71.113573" y="91.624971" style="fill: #1f77b4; stroke: #1f77b4"/>
     <use xlink:href="#m8eb582f548" x="68.602791" y="95.71565" style="fill: #1f77b4; stroke: #1f77b4"/>
     <use xlink:href="#m8eb582f548" x="68.375079" y="99.806329" style="fill: #1f77b4; stroke: #1f77b4"/>
     <use xlink:href="#m8eb582f548" x="69.129892" y="103.897008" style="fill: #1f77b4; stroke: #1f77b4"/>
     <use xlink:href="#m8eb582f548" x="70.254169" y="107.987687" style="fill: #1f77b4; stroke: #1f77b4"/>
     <use xlink:href="#m8eb582f548" x="71.519899" y="112.078366" style="fill: #1f77b4; stroke: #1f77b4"/>
     <use xlink:href="#m8eb582f548" x="72.851161" y="116.169045" style="fill: #1f77b4; stroke: #1f77b4"/>
     <use xlink:href="#m8eb582f548" x="74.224179" y="120.259724" style="fill: #1f77b4; stroke: #1f77b4"/>
     <use xlink:href="#m8eb582f548" x="75.632411" y="124.350403" style="fill: #1f77b4; stroke: #1f77b4"/>
     <use xlink:href="#m8eb582f548" x="77.074607" y="128.441082" style="fill: #1f77b4; stroke: #1f77b4"/>
     <use xlink:href="#m8eb582f548" x="78.551367" y="132.531761" style="fill: #1f77b4; stroke: #1f77b4"/>
     <use xlink:href="#m8eb582f548" x="80.06374" y="136.62244" style="fill: #1f77b4; stroke: #1f77b4"/>
     <use xlink:href="#m8eb582f548" x="81.613124" y="140.713119" style="fill: #1f77b4; stroke: #1f77b4"/>
     <use xlink:href="#m8eb582f548" x="83.200969" y="144.803797" style="fill: #1f77b4; stroke: #1f77b4"/>
     <use xlink:href="#m8eb582f548" x="84.828771" y="148.894476" style="fill: #1f77b4; stroke: #1f77b4"/>
     <use xlink:href="#m8eb582f548" x="86.49818" y="152.985155" style="fill: #1f77b4; stroke: #1f77b4"/>
     <use xlink:href="#m8eb582f548" x="88.210894" y="157.075834" style="fill: #1f77b4; stroke: #1f77b4"/>
     <use xlink:href="#m8eb582f548" x="89.968761" y="161.166513" style="fill: #1f77b4; stroke: #1f77b4"/>
     <use xlink:href="#m8eb582f548" x="91.773729" y="165.257192" style="fill: #1f77b4; stroke: #1f77b4"/>
     <use xlink:href="#m8eb582f548" x="93.627796" y="169.347871" style="fill: #1f77b4; stroke: #1f77b4"/>
     <use xlink:href="#m8eb582f548" x="95.533109" y="173.43855" style="fill: #1f77b4; stroke: #1f77b4"/>
     <use xlink:href="#m8eb582f548" x="97.492016" y="177.529229" style="fill: #1f77b4; stroke: #1f77b4"/>
     <use xlink:href="#m8eb582f548" x="99.506915" y="181.619908" style="fill: #1f77b4; stroke: #1f77b4"/>
     <use xlink:href="#m8eb582f548" x="101.580353" y="185.710587" style="fill: #1f77b4; stroke: #1f77b4"/>
     <use xlink:href="#m8eb582f548" x="103.715127" y="189.801266" style="fill: #1f77b4; stroke: #1f77b4"/>
     <use xlink:href="#m8eb582f548" x="105.914084" y="193.891945" style="fill: #1f77b4; stroke: #1f77b4"/>
     <use xlink:href="#m8eb582f548" x="108.180371" y="197.982624" style="fill: #1f77b4; stroke: #1f77b4"/>
     <use xlink:href="#m8eb582f548" x="110.517284" y="202.073303" style="fill: #1f77b4; stroke: #1f77b4"/>
     <use xlink:href="#m8eb582f548" x="112.928369" y="206.163982" style="fill: #1f77b4; stroke: #1f77b4"/>
     <use xlink:href="#m8eb582f548" x="115.417324" y="210.254661" style="fill: #1f77b4; stroke: #1f77b4"/>
     <use xlink:href="#m8eb582f548" x="117.988193" y="214.345339" style="fill: #1f77b4; stroke: #1f77b4"/>
     <use xlink:href="#m8eb582f548" x="120.645222" y="218.436018" style="fill: #1f77b4; stroke: #1f77b4"/>
     <use xlink:href="#m8eb582f548" x="123.393107" y="222.526697" style="fill: #1f77b4; stroke: #1f77b4"/>
     <use xlink:href="#m8eb582f548" x="126.236642" y="226.617376" style="fill: #1f77b4; stroke: #1f77b4"/>
     <use xlink:href="#m8eb582f548" x="129.181171" y="230.708055" style="fill: #1f77b4; stroke: #1f77b4"/>
     <use xlink:href="#m8eb582f548" x="132.23229" y="234.798734" style="fill: #1f77b4; stroke: #1f77b4"/>
     <use xlink:href="#m8eb582f548" x="135.396041" y="238.889413" style="fill: #1f77b4; stroke: #1f77b4"/>
     <use xlink:href="#m8eb582f548" x="138.679017" y="242.980092" style="fill: #1f77b4; stroke: #1f77b4"/>
     <use xlink:href="#m8eb582f548" x="142.088162" y="247.070771" style="fill: #1f77b4; stroke: #1f77b4"/>
     <use xlink:href="#m8eb582f548" x="145.630918" y="251.16145" style="fill: #1f77b4; stroke: #1f77b4"/>
     <use xlink:href="#m8eb582f548" x="149.315526" y="255.252129" style="fill: #1f77b4; stroke: #1f77b4"/>
     <use xlink:href="#m8eb582f548" x="153.150576" y="259.342808" style="fill: #1f77b4; stroke: #1f77b4"/>
     <use xlink:href="#m8eb582f548" x="157.145411" y="263.433487" style="fill: #1f77b4; stroke: #1f77b4"/>
     <use xlink:href="#m8eb582f548" x="161.310218" y="267.524166" style="fill: #1f77b4; stroke: #1f77b4"/>
     <use xlink:href="#m8eb582f548" x="165.655736" y="271.614845" style="fill: #1f77b4; stroke: #1f77b4"/>
     <use xlink:href="#m8eb582f548" x="170.193654" y="275.705524" style="fill: #1f77b4; stroke: #1f77b4"/>
     <use xlink:href="#m8eb582f548" x="174.936459" y="279.796203" style="fill: #1f77b4; stroke: #1f77b4"/>
     <use xlink:href="#m8eb582f548" x="179.897585" y="283.886881" style="fill: #1f77b4; stroke: #1f77b4"/>
     <use xlink:href="#m8eb582f548" x="185.091319" y="287.97756" style="fill: #1f77b4; stroke: #1f77b4"/>
     <use xlink:href="#m8eb582f548" x="190.532845" y="292.068239" style="fill: #1f77b4; stroke: #1f77b4"/>
     <use xlink:href="#m8eb582f548" x="196.238445" y="296.158918" style="fill: #1f77b4; stroke: #1f77b4"/>
     <use xlink:href="#m8eb582f548" x="202.224953" y="300.249597" style="fill: #1f77b4; stroke: #1f77b4"/>
     <use xlink:href="#m8eb582f548" x="208.510149" y="304.340276" style="fill: #1f77b4; stroke: #1f77b4"/>
     <use xlink:href="#m8eb582f548" x="215.112114" y="308.430955" style="fill: #1f77b4; stroke: #1f77b4"/>
     <use xlink:href="#m8eb582f548" x="222.04908" y="312.521634" style="fill: #1f77b4; stroke: #1f77b4"/>
     <use xlink:href="#m8eb582f548" x="229.338929" y="316.612313" style="fill: #1f77b4; stroke: #1f77b4"/>
     <use xlink:href="#m8eb582f548" x="236.998092" y="320.702992" style="fill: #1f77b4; stroke: #1f77b4"/>
     <use xlink:href="#m8eb582f548" x="245.040605" y="324.793671" style="fill: #1f77b4; stroke: #1f77b4"/>
     <use xlink:href="#m8eb582f548" x="253.476159" y="328.88435" style="fill: #1f77b4; stroke: #1f77b4"/>
     <use xlink:href="#m8eb582f548" x="262.3077" y="332.975029" style="fill: #1f77b4; stroke: #1f77b4"/>
     <use xlink:href="#m8eb582f548" x="271.527835" y="337.065708" style="fill: #1f77b4; stroke: #1f77b4"/>
     <use xlink:href="#m8eb582f548" x="281.113839" y="341.156387" style="fill: #1f77b4; stroke: #1f77b4"/>
     <use xlink:href="#m8eb582f548" x="291.020708" y="345.247066" style="fill: #1f77b4; stroke: #1f77b4"/>
     <use xlink:href="#m8eb582f548" x="301.171673" y="349.337745" style="fill: #1f77b4; stroke: #1f77b4"/>
     <use xlink:href="#m8eb582f548" x="311.44501" y="353.428423" style="fill: #1f77b4; stroke: #1f77b4"/>
     <use xlink:href="#m8eb582f548" x="321.656562" y="357.519102" style="fill: #1f77b4; stroke: #1f77b4"/>
     <use xlink:href="#m8eb582f548" x="331.535161" y="361.609781" style="fill: #1f77b4; stroke: #1f77b4"/>
     <use xlink:href="#m8eb582f548" x="340.687167" y="365.70046" style="fill: #1f77b4; stroke: #1f77b4"/>
     <use xlink:href="#m8eb582f548" x="348.533235" y="369.791139" style="fill: #1f77b4; stroke: #1f77b4"/>
     <use xlink:href="#m8eb582f548" x="354.126653" y="373.881818" style="fill: #1f77b4; stroke: #1f77b4"/>
    </g>
   </g>
   <g id="patch_3">
    <path d="M 54.0875 390.04 
L 54.0875 34.56 
" style="fill: none; stroke: #000000; stroke-width: 0.8; stroke-linejoin: miter; stroke-linecap: square"/>
   </g>
   <g id="patch_4">
    <path d="M 368.414231 390.04 
L 368.414231 34.56 
" style="fill: none; stroke: #000000; stroke-width: 0.8; stroke-linejoin: miter; stroke-linecap: square"/>
   </g>
   <g id="patch_5">
    <path d="M 54.0875 390.04 
L 368.414231 390.04 
" style="fill: none; stroke: #000000; stroke-width: 0.8; stroke-linejoin: miter; stroke-linecap: square"/>
   </g>
   <g id="patch_6">
    <path d="M 54.0875 34.56 
L 368.414231 34.56 
" style="fill: none; stroke: #000000; stroke-width: 0.8; stroke-linejoin: miter; stroke-linecap: square"/>
   </g>
  </g>
  <g id="axes_2">
   <g id="patch_7">
    <path d="M 393.641588 390.04 
L 707.96832 390.04 
L 707.96832 34.56 
L 393.641588 34.56 
z
" style="fill: #ffffff"/>
   </g>
   <g id="matplotlib.axis_3">
    <g id="xtick_6">
     <g id="line2d_30">
      <path d="M 394.66727 390.04 
L 394.66727 34.56 
" clip-path="url(#p28537d226e)" style="fill: none; stroke: #b0b0b0; stroke-opacity: 0.35; stroke-width: 0.8; stroke-linecap: square"/>
     </g>
     <g id="line2d_31">
      <g>
       <use xlink:href="#me1848ab8f9" x="394.66727" y="390.04" style="stroke: #000000; stroke-width: 0.8"/>
      </g>
     </g>
     <g id="text_17">
      <!-- −1.75 -->
      <g transform="translate(379.344614 404.638438) scale(0.1 -0.1)">
       <defs>
        <path id="DejaVuSans-2212" d="M 678 2272 
L 4684 2272 
L 4684 1741 
L 678 1741 
L 678 2272 
z
" transform="scale(0.015625)"/>
       </defs>
       <use xlink:href="#DejaVuSans-2212"/>
       <use xlink:href="#DejaVuSans-31" transform="translate(83.789062 0)"/>
       <use xlink:href="#DejaVuSans-2e" transform="translate(147.412109 0)"/>
       <use xlink:href="#DejaVuSans-37" transform="translate(179.199219 0)"/>
       <use xlink:href="#DejaVuSans-35" transform="translate(242.822266 0)"/>
      </g>
     </g>
    </g>
    <g id="xtick_7">
     <g id="line2d_32">
      <path d="M 437.690752 390.04 
L 437.690752 34.56 
" clip-path="url(#p28537d226e)" style="fill: none; stroke: #b0b0b0; stroke-opacity: 0.35; stroke-width: 0.8; stroke-linecap: square"/>
     </g>
     <g id="line2d_33">
      <g>
       <use xlink:href="#me1848ab8f9" x="437.690752" y="390.04" style="stroke: #000000; stroke-width: 0.8"/>
      </g>
     </g>
     <g id="text_18">
      <!-- −1.50 -->
      <g transform="translate(422.368096 404.638438) scale(0.1 -0.1)">
       <use xlink:href="#DejaVuSans-2212"/>
       <use xlink:href="#DejaVuSans-31" transform="translate(83.789062 0)"/>
       <use xlink:href="#DejaVuSans-2e" transform="translate(147.412109 0)"/>
       <use xlink:href="#DejaVuSans-35" transform="translate(179.199219 0)"/>
       <use xlink:href="#DejaVuSans-30" transform="translate(242.822266 0)"/>
      </g>
     </g>
    </g>
    <g id="xtick_8">
     <g id="line2d_34">
      <path d="M 480.714234 390.04 
L 480.714234 34.56 
" clip-path="url(#p28537d226e)" style="fill: none; stroke: #b0b0b0; stroke-opacity: 0.35; stroke-width: 0.8; stroke-linecap: square"/>
     </g>
     <g id="line2d_35">
      <g>
       <use xlink:href="#me1848ab8f9" x="480.714234" y="390.04" style="stroke: #000000; stroke-width: 0.8"/>
      </g>
     </g>
     <g id="text_19">
      <!-- −1.25 -->
      <g transform="translate(465.391578 404.638438) scale(0.1 -0.1)">
       <use xlink:href="#DejaVuSans-2212"/>
       <use xlink:href="#DejaVuSans-31" transform="translate(83.789062 0)"/>
       <use xlink:href="#DejaVuSans-2e" transform="translate(147.412109 0)"/>
       <use xlink:href="#DejaVuSans-32" transform="translate(179.199219 0)"/>
       <use xlink:href="#DejaVuSans-35" transform="translate(242.822266 0)"/>
      </g>
     </g>
    </g>
    <g id="xtick_9">
     <g id="line2d_36">
      <path d="M 523.737716 390.04 
L 523.737716 34.56 
" clip-path="url(#p28537d226e)" style="fill: none; stroke: #b0b0b0; stroke-opacity: 0.35; stroke-width: 0.8; stroke-linecap: square"/>
     </g>
     <g id="line2d_37">
      <g>
       <use xlink:href="#me1848ab8f9" x="523.737716" y="390.04" style="stroke: #000000; stroke-width: 0.8"/>
      </g>
     </g>
     <g id="text_20">
      <!-- −1.00 -->
      <g transform="translate(508.41506 404.638438) scale(0.1 -0.1)">
       <use xlink:href="#DejaVuSans-2212"/>
       <use xlink:href="#DejaVuSans-31" transform="translate(83.789062 0)"/>
       <use xlink:href="#DejaVuSans-2e" transform="translate(147.412109 0)"/>
       <use xlink:href="#DejaVuSans-30" transform="translate(179.199219 0)"/>
       <use xlink:href="#DejaVuSans-30" transform="translate(242.822266 0)"/>
      </g>
     </g>
    </g>
    <g id="xtick_10">
     <g id="line2d_38">
      <path d="M 566.761198 390.04 
L 566.761198 34.56 
" clip-path="url(#p28537d226e)" style="fill: none; stroke: #b0b0b0; stroke-opacity: 0.35; stroke-width: 0.8; stroke-linecap: square"/>
     </g>
     <g id="line2d_39">
      <g>
       <use xlink:href="#me1848ab8f9" x="566.761198" y="390.04" style="stroke: #000000; stroke-width: 0.8"/>
      </g>
     </g>
     <g id="text_21">
      <!-- −0.75 -->
      <g transform="translate(551.438542 404.638438) scale(0.1 -0.1)">
       <use xlink:href="#DejaVuSans-2212"/>
       <use xlink:href="#DejaVuSans-30" transform="translate(83.789062 0)"/>
       <use xlink:href="#DejaVuSans-2e" transform="translate(147.412109 0)"/>
       <use xlink:href="#DejaVuSans-37" transform="translate(179.199219 0)"/>
       <use xlink:href="#DejaVuSans-35" transform="translate(242.822266 0)"/>
      </g>
     </g>
    </g>
    <g id="xtick_11">
     <g id="line2d_40">
      <path d="M 609.78468 390.04 
L 609.78468 34.56 
" clip-path="url(#p28537d226e)" style="fill: none; stroke: #b0b0b0; stroke-opacity: 0.35; stroke-width: 0.8; stroke-linecap: square"/>
     </g>
     <g id="line2d_41">
      <g>
       <use xlink:href="#me1848ab8f9" x="609.78468" y="390.04" style="stroke: #000000; stroke-width: 0.8"/>
      </g>
     </g>
     <g id="text_22">
      <!-- −0.50 -->
      <g transform="translate(594.462024 404.638438) scale(0.1 -0.1)">
       <use xlink:href="#DejaVuSans-2212"/>
       <use xlink:href="#DejaVuSans-30" transform="translate(83.789062 0)"/>
       <use xlink:href="#DejaVuSans-2e" transform="translate(147.412109 0)"/>
       <use xlink:href="#DejaVuSans-35" transform="translate(179.199219 0)"/>
       <use xlink:href="#DejaVuSans-30" transform="translate(242.822266 0)"/>
      </g>
     </g>
    </g>
    <g id="xtick_12">
     <g id="line2d_42">
      <path d="M 652.808162 390.04 
L 652.808162 34.56 
" clip-path="url(#p28537d226e)" style="fill: none; stroke: #b0b0b0; stroke-opacity: 0.35; stroke-width: 0.8; stroke-linecap: square"/>
     </g>
     <g id="line2d_43">
      <g>
       <use xlink:href="#me1848ab8f9" x="652.808162" y="390.04" style="stroke: #000000; stroke-width: 0.8"/>
      </g>
     </g>
     <g id="text_23">
      <!-- −0.25 -->
      <g transform="translate(637.485506 404.638438) scale(0.1 -0.1)">
       <use xlink:href="#DejaVuSans-2212"/>
       <use xlink:href="#DejaVuSans-30" transform="translate(83.789062 0)"/>
       <use xlink:href="#DejaVuSans-2e" transform="translate(147.412109 0)"/>
       <use xlink:href="#DejaVuSans-32" transform="translate(179.199219 0)"/>
       <use xlink:href="#DejaVuSans-35" transform="translate(242.822266 0)"/>
      </g>
     </g>
    </g>
    <g id="xtick_13">
     <g id="line2d_44">
      <path d="M 695.831644 390.04 
L 695.831644 34.56 
" clip-path="url(#p28537d226e)" style="fill: none; stroke: #b0b0b0; stroke-opacity: 0.35; stroke-width: 0.8; stroke-linecap: square"/>
     </g>
     <g id="line2d_45">
      <g>
       <use xlink:href="#me1848ab8f9" x="695.831644" y="390.04" style="stroke: #000000; stroke-width: 0.8"/>
      </g>
     </g>
     <g id="text_24">
      <!-- 0.00 -->
      <g transform="translate(684.698832 404.638438) scale(0.1 -0.1)">
       <use xlink:href="#DejaVuSans-30"/>
       <use xlink:href="#DejaVuSans-2e" transform="translate(63.623047 0)"/>
       <use xlink:href="#DejaVuSans-30" transform="translate(95.410156 0)"/>
       <use xlink:href="#DejaVuSans-30" transform="translate(159.033203 0)"/>
      </g>
     </g>
    </g>
    <g id="text_25">
     <!-- Напор давления h, м -->
     <g transform="translate(495.91511 418.316562) scale(0.1 -0.1)">
      <defs>
       <path id="DejaVuSans-41d" d="M 628 4666 
L 1259 4666 
L 1259 2753 
L 3553 2753 
L 3553 4666 
L 4184 4666 
L 4184 0 
L 3553 0 
L 3553 2222 
L 1259 2222 
L 1259 0 
L 628 0 
L 628 4666 
z
" transform="scale(0.015625)"/>
       <path id="DejaVuSans-43f" d="M 3603 3500 
L 3603 0 
L 3025 0 
L 3025 3041 
L 1159 3041 
L 1159 0 
L 581 0 
L 581 3500 
L 3603 3500 
z
" transform="scale(0.015625)"/>
       <path id="DejaVuSans-440" d="M 1159 525 
L 1159 -1331 
L 581 -1331 
L 581 3500 
L 1159 3500 
L 1159 2969 
Q 1341 3281 1617 3432 
Q 1894 3584 2278 3584 
Q 2916 3584 3314 3078 
Q 3713 2572 3713 1747 
Q 3713 922 3314 415 
Q 2916 -91 2278 -91 
Q 1894 -91 1617 61 
Q 1341 213 1159 525 
z
M 3116 1747 
Q 3116 2381 2855 2742 
Q 2594 3103 2138 3103 
Q 1681 3103 1420 2742 
Q 1159 2381 1159 1747 
Q 1159 1113 1420 752 
Q 1681 391 2138 391 
Q 2594 391 2855 752 
Q 3116 1113 3116 1747 
z
" transform="scale(0.015625)"/>
       <path id="DejaVuSans-434" d="M 1384 459 
L 3053 459 
L 3053 3041 
L 1844 3041 
L 1844 2603 
Q 1844 1316 1475 628 
L 1384 459 
z
M 550 459 
Q 834 584 959 850 
Q 1266 1509 1266 2838 
L 1266 3500 
L 3631 3500 
L 3631 459 
L 4091 459 
L 4091 -884 
L 3631 -884 
L 3631 0 
L 794 0 
L 794 -884 
L 334 -884 
L 334 459 
L 550 459 
z
" transform="scale(0.015625)"/>
       <path id="DejaVuSans-435" d="M 3597 1894 
L 3597 1613 
L 953 1613 
Q 991 1019 1311 708 
Q 1631 397 2203 397 
Q 2534 397 2845 478 
Q 3156 559 3463 722 
L 3463 178 
Q 3153 47 2828 -22 
Q 2503 -91 2169 -91 
Q 1331 -91 842 396 
Q 353 884 353 1716 
Q 353 2575 817 3079 
Q 1281 3584 2069 3584 
Q 2775 3584 3186 3129 
Q 3597 2675 3597 1894 
z
M 3022 2063 
Q 3016 2534 2758 2815 
Q 2500 3097 2075 3097 
Q 1594 3097 1305 2825 
Q 1016 2553 972 2059 
L 3022 2063 
z
" transform="scale(0.015625)"/>
       <path id="DejaVuSans-68" d="M 3513 2113 
L 3513 0 
L 2938 0 
L 2938 2094 
Q 2938 2591 2744 2837 
Q 2550 3084 2163 3084 
Q 1697 3084 1428 2787 
Q 1159 2491 1159 1978 
L 1159 0 
L 581 0 
L 581 4863 
L 1159 4863 
L 1159 2956 
Q 1366 3272 1645 3428 
Q 1925 3584 2291 3584 
Q 2894 3584 3203 3211 
Q 3513 2838 3513 2113 
z
" transform="scale(0.015625)"/>
      </defs>
      <use xlink:href="#DejaVuSans-41d"/>
      <use xlink:href="#DejaVuSans-430" transform="translate(75.195312 0)"/>
      <use xlink:href="#DejaVuSans-43f" transform="translate(136.474609 0)"/>
      <use xlink:href="#DejaVuSans-43e" transform="translate(201.855469 0)"/>
      <use xlink:href="#DejaVuSans-440" transform="translate(263.037109 0)"/>
      <use xlink:href="#DejaVuSans-20" transform="translate(326.513672 0)"/>
      <use xlink:href="#DejaVuSans-434" transform="translate(358.300781 0)"/>
      <use xlink:href="#DejaVuSans-430" transform="translate(427.441406 0)"/>
      <use xlink:href="#DejaVuSans-432" transform="translate(488.720703 0)"/>
      <use xlink:href="#DejaVuSans-43b" transform="translate(547.65625 0)"/>
      <use xlink:href="#DejaVuSans-435" transform="translate(611.572266 0)"/>
      <use xlink:href="#DejaVuSans-43d" transform="translate(673.095703 0)"/>
      <use xlink:href="#DejaVuSans-438" transform="translate(738.476562 0)"/>
      <use xlink:href="#DejaVuSans-44f" transform="translate(803.466797 0)"/>
      <use xlink:href="#DejaVuSans-20" transform="translate(863.623047 0)"/>
      <use xlink:href="#DejaVuSans-68" transform="translate(895.410156 0)"/>
      <use xlink:href="#DejaVuSans-2c" transform="translate(958.789062 0)"/>
      <use xlink:href="#DejaVuSans-20" transform="translate(990.576172 0)"/>
      <use xlink:href="#DejaVuSans-43c" transform="translate(1022.363281 0)"/>
     </g>
    </g>
   </g>
   <g id="matplotlib.axis_4">
    <g id="ytick_10">
     <g id="line2d_46">
      <path d="M 393.641588 50.718182 
L 707.96832 50.718182 
" clip-path="url(#p28537d226e)" style="fill: none; stroke: #b0b0b0; stroke-opacity: 0.35; stroke-width: 0.8; stroke-linecap: square"/>
     </g>
     <g id="line2d_47">
      <g>
       <use xlink:href="#m52ec76d731" x="393.641588" y="50.718182" style="stroke: #000000; stroke-width: 0.8"/>
      </g>
     </g>
    </g>
    <g id="ytick_11">
     <g id="line2d_48">
      <path d="M 393.641588 91.624971 
L 707.96832 91.624971 
" clip-path="url(#p28537d226e)" style="fill: none; stroke: #b0b0b0; stroke-opacity: 0.35; stroke-width: 0.8; stroke-linecap: square"/>
     </g>
     <g id="line2d_49">
      <g>
       <use xlink:href="#m52ec76d731" x="393.641588" y="91.624971" style="stroke: #000000; stroke-width: 0.8"/>
      </g>
     </g>
    </g>
    <g id="ytick_12">
     <g id="line2d_50">
      <path d="M 393.641588 132.531761 
L 707.96832 132.531761 
" clip-path="url(#p28537d226e)" style="fill: none; stroke: #b0b0b0; stroke-opacity: 0.35; stroke-width: 0.8; stroke-linecap: square"/>
     </g>
     <g id="line2d_51">
      <g>
       <use xlink:href="#m52ec76d731" x="393.641588" y="132.531761" style="stroke: #000000; stroke-width: 0.8"/>
      </g>
     </g>
    </g>
    <g id="ytick_13">
     <g id="line2d_52">
      <path d="M 393.641588 173.43855 
L 707.96832 173.43855 
" clip-path="url(#p28537d226e)" style="fill: none; stroke: #b0b0b0; stroke-opacity: 0.35; stroke-width: 0.8; stroke-linecap: square"/>
     </g>
     <g id="line2d_53">
      <g>
       <use xlink:href="#m52ec76d731" x="393.641588" y="173.43855" style="stroke: #000000; stroke-width: 0.8"/>
      </g>
     </g>
    </g>
    <g id="ytick_14">
     <g id="line2d_54">
      <path d="M 393.641588 214.345339 
L 707.96832 214.345339 
" clip-path="url(#p28537d226e)" style="fill: none; stroke: #b0b0b0; stroke-opacity: 0.35; stroke-width: 0.8; stroke-linecap: square"/>
     </g>
     <g id="line2d_55">
      <g>
       <use xlink:href="#m52ec76d731" x="393.641588" y="214.345339" style="stroke: #000000; stroke-width: 0.8"/>
      </g>
     </g>
    </g>
    <g id="ytick_15">
     <g id="line2d_56">
      <path d="M 393.641588 255.252129 
L 707.96832 255.252129 
" clip-path="url(#p28537d226e)" style="fill: none; stroke: #b0b0b0; stroke-opacity: 0.35; stroke-width: 0.8; stroke-linecap: square"/>
     </g>
     <g id="line2d_57">
      <g>
       <use xlink:href="#m52ec76d731" x="393.641588" y="255.252129" style="stroke: #000000; stroke-width: 0.8"/>
      </g>
     </g>
    </g>
    <g id="ytick_16">
     <g id="line2d_58">
      <path d="M 393.641588 296.158918 
L 707.96832 296.158918 
" clip-path="url(#p28537d226e)" style="fill: none; stroke: #b0b0b0; stroke-opacity: 0.35; stroke-width: 0.8; stroke-linecap: square"/>
     </g>
     <g id="line2d_59">
      <g>
       <use xlink:href="#m52ec76d731" x="393.641588" y="296.158918" style="stroke: #000000; stroke-width: 0.8"/>
      </g>
     </g>
    </g>
    <g id="ytick_17">
     <g id="line2d_60">
      <path d="M 393.641588 337.065708 
L 707.96832 337.065708 
" clip-path="url(#p28537d226e)" style="fill: none; stroke: #b0b0b0; stroke-opacity: 0.35; stroke-width: 0.8; stroke-linecap: square"/>
     </g>
     <g id="line2d_61">
      <g>
       <use xlink:href="#m52ec76d731" x="393.641588" y="337.065708" style="stroke: #000000; stroke-width: 0.8"/>
      </g>
     </g>
    </g>
    <g id="ytick_18">
     <g id="line2d_62">
      <path d="M 393.641588 377.972497 
L 707.96832 377.972497 
" clip-path="url(#p28537d226e)" style="fill: none; stroke: #b0b0b0; stroke-opacity: 0.35; stroke-width: 0.8; stroke-linecap: square"/>
     </g>
     <g id="line2d_63">
      <g>
       <use xlink:href="#m52ec76d731" x="393.641588" y="377.972497" style="stroke: #000000; stroke-width: 0.8"/>
      </g>
     </g>
    </g>
   </g>
   <g id="line2d_64">
    <path d="M 604.712544 50.718182 
L 597.704683 54.808861 
L 588.965185 58.89954 
L 577.965303 62.990219 
L 564.011185 67.080898 
L 546.251622 71.171577 
L 523.832765 75.262255 
L 496.457678 79.352934 
L 465.730737 83.443613 
L 436.84421 87.534292 
L 417.039352 91.624971 
L 408.702929 95.71565 
L 407.929167 99.806329 
L 410.482441 103.897008 
L 414.2254 107.987687 
L 418.355769 112.078366 
L 422.606883 116.169045 
L 426.894609 120.259724 
L 431.193248 124.350403 
L 435.495054 128.441082 
L 439.797741 132.531761 
L 444.100781 136.62244 
L 448.40382 140.713119 
L 452.706859 144.803797 
L 457.009898 148.894476 
L 461.313113 152.985155 
L 465.616152 157.075834 
L 469.919191 161.166513 
L 474.22223 165.257192 
L 478.525445 169.347871 
L 482.828484 173.43855 
L 487.131523 177.529229 
L 491.434562 181.619908 
L 495.737777 185.710587 
L 500.040816 189.801266 
L 504.343855 193.891945 
L 508.646894 197.982624 
L 512.950109 202.073303 
L 517.253148 206.163982 
L 521.556187 210.254661 
L 525.859226 214.345339 
L 530.162441 218.436018 
L 534.46548 222.526697 
L 538.768519 226.617376 
L 543.071734 230.708055 
L 547.374774 234.798734 
L 551.677813 238.889413 
L 555.980852 242.980092 
L 560.284067 247.070771 
L 564.587106 251.16145 
L 568.890145 255.252129 
L 573.19336 259.342808 
L 577.496399 263.433487 
L 581.799438 267.524166 
L 586.102477 271.614845 
L 590.405692 275.705524 
L 594.708731 279.796203 
L 599.01177 283.886881 
L 603.314985 287.97756 
L 607.618024 292.068239 
L 611.921063 296.158918 
L 616.224278 300.249597 
L 620.527317 304.340276 
L 624.830356 308.430955 
L 629.133571 312.521634 
L 633.43661 316.612313 
L 637.739649 320.702992 
L 642.042864 324.793671 
L 646.345903 328.88435 
L 650.649119 332.975029 
L 654.952158 337.065708 
L 659.255197 341.156387 
L 663.558412 345.247066 
L 667.861451 349.337745 
L 672.16449 353.428423 
L 676.468233 357.519102 
L 680.77004 361.609781 
L 685.073607 365.70046 
L 689.377174 369.791139 
L 693.680741 373.881818 
" clip-path="url(#p28537d226e)" style="fill: none; stroke: #c43c39; stroke-width: 1.5; stroke-linecap: square"/>
    <defs>
     <path id="m249bf2644f" d="M 0 3 
C 0.795609 3 1.55874 2.683901 2.12132 2.12132 
C 2.683901 1.55874 3 0.795609 3 0 
C 3 -0.795609 2.683901 -1.55874 2.12132 -2.12132 
C 1.55874 -2.683901 0.795609 -3 0 -3 
C -0.795609 -3 -1.55874 -2.683901 -2.12132 -2.12132 
C -2.683901 -1.55874 -3 -0.795609 -3 0 
C -3 0.795609 -2.683901 1.55874 -2.12132 2.12132 
C -1.55874 2.683901 -0.795609 3 0 3 
z
" style="stroke: #c43c39"/>
    </defs>
    <g clip-path="url(#p28537d226e)">
     <use xlink:href="#m249bf2644f" x="604.712544" y="50.718182" style="fill: #c43c39; stroke: #c43c39"/>
     <use xlink:href="#m249bf2644f" x="597.704683" y="54.808861" style="fill: #c43c39; stroke: #c43c39"/>
     <use xlink:href="#m249bf2644f" x="588.965185" y="58.89954" style="fill: #c43c39; stroke: #c43c39"/>
     <use xlink:href="#m249bf2644f" x="577.965303" y="62.990219" style="fill: #c43c39; stroke: #c43c39"/>
     <use xlink:href="#m249bf2644f" x="564.011185" y="67.080898" style="fill: #c43c39; stroke: #c43c39"/>
     <use xlink:href="#m249bf2644f" x="546.251622" y="71.171577" style="fill: #c43c39; stroke: #c43c39"/>
     <use xlink:href="#m249bf2644f" x="523.832765" y="75.262255" style="fill: #c43c39; stroke: #c43c39"/>
     <use xlink:href="#m249bf2644f" x="496.457678" y="79.352934" style="fill: #c43c39; stroke: #c43c39"/>
     <use xlink:href="#m249bf2644f" x="465.730737" y="83.443613" style="fill: #c43c39; stroke: #c43c39"/>
     <use xlink:href="#m249bf2644f" x="436.84421" y="87.534292" style="fill: #c43c39; stroke: #c43c39"/>
     <use xlink:href="#m249bf2644f" x="417.039352" y="91.624971" style="fill: #c43c39; stroke: #c43c39"/>
     <use xlink:href="#m249bf2644f" x="408.702929" y="95.71565" style="fill: #c43c39; stroke: #c43c39"/>
     <use xlink:href="#m249bf2644f" x="407.929167" y="99.806329" style="fill: #c43c39; stroke: #c43c39"/>
     <use xlink:href="#m249bf2644f" x="410.482441" y="103.897008" style="fill: #c43c39; stroke: #c43c39"/>
     <use xlink:href="#m249bf2644f" x="414.2254" y="107.987687" style="fill: #c43c39; stroke: #c43c39"/>
     <use xlink:href="#m249bf2644f" x="418.355769" y="112.078366" style="fill: #c43c39; stroke: #c43c39"/>
     <use xlink:href="#m249bf2644f" x="422.606883" y="116.169045" style="fill: #c43c39; stroke: #c43c39"/>
     <use xlink:href="#m249bf2644f" x="426.894609" y="120.259724" style="fill: #c43c39; stroke: #c43c39"/>
     <use xlink:href="#m249bf2644f" x="431.193248" y="124.350403" style="fill: #c43c39; stroke: #c43c39"/>
     <use xlink:href="#m249bf2644f" x="435.495054" y="128.441082" style="fill: #c43c39; stroke: #c43c39"/>
     <use xlink:href="#m249bf2644f" x="439.797741" y="132.531761" style="fill: #c43c39; stroke: #c43c39"/>
     <use xlink:href="#m249bf2644f" x="444.100781" y="136.62244" style="fill: #c43c39; stroke: #c43c39"/>
     <use xlink:href="#m249bf2644f" x="448.40382" y="140.713119" style="fill: #c43c39; stroke: #c43c39"/>
     <use xlink:href="#m249bf2644f" x="452.706859" y="144.803797" style="fill: #c43c39; stroke: #c43c39"/>
     <use xlink:href="#m249bf2644f" x="457.009898" y="148.894476" style="fill: #c43c39; stroke: #c43c39"/>
     <use xlink:href="#m249bf2644f" x="461.313113" y="152.985155" style="fill: #c43c39; stroke: #c43c39"/>
     <use xlink:href="#m249bf2644f" x="465.616152" y="157.075834" style="fill: #c43c39; stroke: #c43c39"/>
     <use xlink:href="#m249bf2644f" x="469.919191" y="161.166513" style="fill: #c43c39; stroke: #c43c39"/>
     <use xlink:href="#m249bf2644f" x="474.22223" y="165.257192" style="fill: #c43c39; stroke: #c43c39"/>
     <use xlink:href="#m249bf2644f" x="478.525445" y="169.347871" style="fill: #c43c39; stroke: #c43c39"/>
     <use xlink:href="#m249bf2644f" x="482.828484" y="173.43855" style="fill: #c43c39; stroke: #c43c39"/>
     <use xlink:href="#m249bf2644f" x="487.131523" y="177.529229" style="fill: #c43c39; stroke: #c43c39"/>
     <use xlink:href="#m249bf2644f" x="491.434562" y="181.619908" style="fill: #c43c39; stroke: #c43c39"/>
     <use xlink:href="#m249bf2644f" x="495.737777" y="185.710587" style="fill: #c43c39; stroke: #c43c39"/>
     <use xlink:href="#m249bf2644f" x="500.040816" y="189.801266" style="fill: #c43c39; stroke: #c43c39"/>
     <use xlink:href="#m249bf2644f" x="504.343855" y="193.891945" style="fill: #c43c39; stroke: #c43c39"/>
     <use xlink:href="#m249bf2644f" x="508.646894" y="197.982624" style="fill: #c43c39; stroke: #c43c39"/>
     <use xlink:href="#m249bf2644f" x="512.950109" y="202.073303" style="fill: #c43c39; stroke: #c43c39"/>
     <use xlink:href="#m249bf2644f" x="517.253148" y="206.163982" style="fill: #c43c39; stroke: #c43c39"/>
     <use xlink:href="#m249bf2644f" x="521.556187" y="210.254661" style="fill: #c43c39; stroke: #c43c39"/>
     <use xlink:href="#m249bf2644f" x="525.859226" y="214.345339" style="fill: #c43c39; stroke: #c43c39"/>
     <use xlink:href="#m249bf2644f" x="530.162441" y="218.436018" style="fill: #c43c39; stroke: #c43c39"/>
     <use xlink:href="#m249bf2644f" x="534.46548" y="222.526697" style="fill: #c43c39; stroke: #c43c39"/>
     <use xlink:href="#m249bf2644f" x="538.768519" y="226.617376" style="fill: #c43c39; stroke: #c43c39"/>
     <use xlink:href="#m249bf2644f" x="543.071734" y="230.708055" style="fill: #c43c39; stroke: #c43c39"/>
     <use xlink:href="#m249bf2644f" x="547.374774" y="234.798734" style="fill: #c43c39; stroke: #c43c39"/>
     <use xlink:href="#m249bf2644f" x="551.677813" y="238.889413" style="fill: #c43c39; stroke: #c43c39"/>
     <use xlink:href="#m249bf2644f" x="555.980852" y="242.980092" style="fill: #c43c39; stroke: #c43c39"/>
     <use xlink:href="#m249bf2644f" x="560.284067" y="247.070771" style="fill: #c43c39; stroke: #c43c39"/>
     <use xlink:href="#m249bf2644f" x="564.587106" y="251.16145" style="fill: #c43c39; stroke: #c43c39"/>
     <use xlink:href="#m249bf2644f" x="568.890145" y="255.252129" style="fill: #c43c39; stroke: #c43c39"/>
     <use xlink:href="#m249bf2644f" x="573.19336" y="259.342808" style="fill: #c43c39; stroke: #c43c39"/>
     <use xlink:href="#m249bf2644f" x="577.496399" y="263.433487" style="fill: #c43c39; stroke: #c43c39"/>
     <use xlink:href="#m249bf2644f" x="581.799438" y="267.524166" style="fill: #c43c39; stroke: #c43c39"/>
     <use xlink:href="#m249bf2644f" x="586.102477" y="271.614845" style="fill: #c43c39; stroke: #c43c39"/>
     <use xlink:href="#m249bf2644f" x="590.405692" y="275.705524" style="fill: #c43c39; stroke: #c43c39"/>
     <use xlink:href="#m249bf2644f" x="594.708731" y="279.796203" style="fill: #c43c39; stroke: #c43c39"/>
     <use xlink:href="#m249bf2644f" x="599.01177" y="283.886881" style="fill: #c43c39; stroke: #c43c39"/>
     <use xlink:href="#m249bf2644f" x="603.314985" y="287.97756" style="fill: #c43c39; stroke: #c43c39"/>
     <use xlink:href="#m249bf2644f" x="607.618024" y="292.068239" style="fill: #c43c39; stroke: #c43c39"/>
     <use xlink:href="#m249bf2644f" x="611.921063" y="296.158918" style="fill: #c43c39; stroke: #c43c39"/>
     <use xlink:href="#m249bf2644f" x="616.224278" y="300.249597" style="fill: #c43c39; stroke: #c43c39"/>
     <use xlink:href="#m249bf2644f" x="620.527317" y="304.340276" style="fill: #c43c39; stroke: #c43c39"/>
     <use xlink:href="#m249bf2644f" x="624.830356" y="308.430955" style="fill: #c43c39; stroke: #c43c39"/>
     <use xlink:href="#m249bf2644f" x="629.133571" y="312.521634" style="fill: #c43c39; stroke: #c43c39"/>
     <use xlink:href="#m249bf2644f" x="633.43661" y="316.612313" style="fill: #c43c39; stroke: #c43c39"/>
     <use xlink:href="#m249bf2644f" x="637.739649" y="320.702992" style="fill: #c43c39; stroke: #c43c39"/>
     <use xlink:href="#m249bf2644f" x="642.042864" y="324.793671" style="fill: #c43c39; stroke: #c43c39"/>
     <use xlink:href="#m249bf2644f" x="646.345903" y="328.88435" style="fill: #c43c39; stroke: #c43c39"/>
     <use xlink:href="#m249bf2644f" x="650.649119" y="332.975029" style="fill: #c43c39; stroke: #c43c39"/>
     <use xlink:href="#m249bf2644f" x="654.952158" y="337.065708" style="fill: #c43c39; stroke: #c43c39"/>
     <use xlink:href="#m249bf2644f" x="659.255197" y="341.156387" style="fill: #c43c39; stroke: #c43c39"/>
     <use xlink:href="#m249bf2644f" x="663.558412" y="345.247066" style="fill: #c43c39; stroke: #c43c39"/>
     <use xlink:href="#m249bf2644f" x="667.861451" y="349.337745" style="fill: #c43c39; stroke: #c43c39"/>
     <use xlink:href="#m249bf2644f" x="672.16449" y="353.428423" style="fill: #c43c39; stroke: #c43c39"/>
     <use xlink:href="#m249bf2644f" x="676.468233" y="357.519102" style="fill: #c43c39; stroke: #c43c39"/>
     <use xlink:href="#m249bf2644f" x="680.77004" y="361.609781" style="fill: #c43c39; stroke: #c43c39"/>
     <use xlink:href="#m249bf2644f" x="685.073607" y="365.70046" style="fill: #c43c39; stroke: #c43c39"/>
     <use xlink:href="#m249bf2644f" x="689.377174" y="369.791139" style="fill: #c43c39; stroke: #c43c39"/>
     <use xlink:href="#m249bf2644f" x="693.680741" y="373.881818" style="fill: #c43c39; stroke: #c43c39"/>
    </g>
   </g>
   <g id="patch_8">
    <path d="M 393.641588 390.04 
L 393.641588 34.56 
" style="fill: none; stroke: #000000; stroke-width: 0.8; stroke-linejoin: miter; stroke-linecap: square"/>
   </g>
   <g id="patch_9">
    <path d="M 707.96832 390.04 
L 707.96832 34.56 
" style="fill: none; stroke: #000000; stroke-width: 0.8; stroke-linejoin: miter; stroke-linecap: square"/>
   </g>
   <g id="patch_10">
    <path d="M 393.641588 390.04 
L 707.96832 390.04 
" style="fill: none; stroke: #000000; stroke-width: 0.8; stroke-linejoin: miter; stroke-linecap: square"/>
   </g>
   <g id="patch_11">
    <path d="M 393.641588 34.56 
L 707.96832 34.56 
" style="fill: none; stroke: #000000; stroke-width: 0.8; stroke-linejoin: miter; stroke-linecap: square"/>
   </g>
  </g>
  <g id="text_26">
   <!-- t = 7 d, кадр 1 -->
   <g transform="translate(314.475937 17.758125) scale(0.12 -0.12)">
    <defs>
     <path id="DejaVuSans-74" d="M 1172 4494 
L 1172 3500 
L 2356 3500 
L 2356 3053 
L 1172 3053 
L 1172 1153 
Q 1172 725 1289 603 
Q 1406 481 1766 481 
L 2356 481 
L 2356 0 
L 1766 0 
Q 1100 0 847 248 
Q 594 497 594 1153 
L 594 3053 
L 172 3053 
L 172 3500 
L 594 3500 
L 594 4494 
L 1172 4494 
z
" transform="scale(0.015625)"/>
     <path id="DejaVuSans-3d" d="M 678 2906 
L 4684 2906 
L 4684 2381 
L 678 2381 
L 678 2906 
z
M 678 1631 
L 4684 1631 
L 4684 1100 
L 678 1100 
L 678 1631 
z
" transform="scale(0.015625)"/>
     <path id="DejaVuSans-64" d="M 2906 2969 
L 2906 4863 
L 3481 4863 
L 3481 0 
L 2906 0 
L 2906 525 
Q 2725 213 2448 61 
Q 2172 -91 1784 -91 
Q 1150 -91 751 415 
Q 353 922 353 1747 
Q 353 2572 751 3078 
Q 1150 3584 1784 3584 
Q 2172 3584 2448 3432 
Q 2725 3281 2906 2969 
z
M 947 1747 
Q 947 1113 1208 752 
Q 1469 391 1925 391 
Q 2381 391 2643 752 
Q 2906 1113 2906 1747 
Q 2906 2381 2643 2742 
Q 2381 3103 1925 3103 
Q 1469 3103 1208 2742 
Q 947 2381 947 1747 
z
" transform="scale(0.015625)"/>
     <path id="DejaVuSans-43a" d="M 581 3500 
L 1153 3500 
L 1153 1856 
L 2775 3500 
L 3481 3500 
L 2144 2147 
L 3653 0 
L 3009 0 
L 1769 1766 
L 1153 1141 
L 1153 0 
L 581 0 
L 581 3500 
z
" transform="scale(0.015625)"/>
    </defs>
    <use xlink:href="#DejaVuSans-74"/>
    <use xlink:href="#DejaVuSans-20" transform="translate(39.208984 0)"/>
    <use xlink:href="#DejaVuSans-3d" transform="translate(70.996094 0)"/>
    <use xlink:href="#DejaVuSans-20" transform="translate(154.785156 0)"/>
    <use xlink:href="#DejaVuSans-37" transform="translate(186.572266 0)"/>
    <use xlink:href="#DejaVuSans-20" transform="translate(250.195312 0)"/>
    <use xlink:href="#DejaVuSans-64" transform="translate(281.982422 0)"/>
    <use xlink:href="#DejaVuSans-2c" transform="translate(345.458984 0)"/>
    <use xlink:href="#DejaVuSans-20" transform="translate(377.246094 0)"/>
    <use xlink:href="#DejaVuSans-43a" transform="translate(409.033203 0)"/>
    <use xlink:href="#DejaVuSans-430" transform="translate(469.433594 0)"/>
    <use xlink:href="#DejaVuSans-434" transform="translate(530.712891 0)"/>
    <use xlink:href="#DejaVuSans-440" transform="translate(599.853516 0)"/>
    <use xlink:href="#DejaVuSans-20" transform="translate(663.330078 0)"/>
    <use xlink:href="#DejaVuSans-31" transform="translate(695.117188 0)"/>
   </g>
  </g>
 </g>
 <defs>
  <clipPath id="p0b77ae366c">
   <rect x="54.0875" y="34.56" width="314.326731" height="355.48"/>
  </clipPath>
  <clipPath id="p28537d226e">
   <rect x="393.641588" y="34.56" width="314.326731" height="355.48"/>
  </clipPath>
 </defs>
</svg>
