<?xml version="1.0" encoding="UTF-8" standalone="no"?>
<!DOCTYPE svg PUBLIC "-//W3C//DTD SVG 1.1//EN"
 "http://www.w3.org/Graphics/SVG/1.1/DTD/svg11.dtd">
<!-- Generated by graphviz version 2.42.4 (0)
 -->
<!-- Title: soilflow_algorithm Pages: 1 -->
<svg width="495pt" height="1580pt"
 viewBox="0.00 0.00 495.00 1580.10" xmlns="http://www.w3.org/2000/svg" xmlns:xlink="http://www.w3.org/1999/xlink">
<g id="graph0" class="graph" transform="scale(1 1) rotate(0) translate(4 1576.1)">
<title>soilflow_algorithm</title>
<polygon fill="white" stroke="transparent" points="-4,4 -4,-1576.1 491,-1576.1 491,4 -4,4"/>
<text text-anchor="middle" x="243.5" y="-1557.7" font-family="DejaVu Sans" font-size="13.00">Алгоритм сборки образа и запуска demo&#45;задачи PFLOTRAN/Richards</text>
<!-- start -->
<g id="node1" class="node">
<title>start</title>
<ellipse fill="#fff2cc" stroke="black" cx="243.5" cy="-1528.89" rx="84.71" ry="21.43"/>
<text text-anchor="middle" x="243.5" y="-1531.89" font-family="DejaVu Sans" font-size="10.00">Старт</text>
<text text-anchor="middle" x="243.5" y="-1520.89" font-family="DejaVu Sans" font-size="10.00">WSL Ubuntu + Docker</text>
</g>
<!-- build_cmd -->
<g id="node2" class="node">
<title>build_cmd</title>
<path fill="#d9ead3" stroke="black" d="M295.5,-1460.68C295.5,-1460.68 191.5,-1460.68 191.5,-1460.68 185.5,-1460.68 179.5,-1454.68 179.5,-1448.68 179.5,-1448.68 179.5,-1436.68 179.5,-1436.68 179.5,-1430.68 185.5,-1424.68 191.5,-1424.68 191.5,-1424.68 295.5,-1424.68 295.5,-1424.68 301.5,-1424.68 307.5,-1430.68 307.5,-1436.68 307.5,-1436.68 307.5,-1448.68 307.5,-1448.68 307.5,-1454.68 301.5,-1460.68 295.5,-1460.68"/>
<text text-anchor="middle" x="243.5" y="-1445.68" font-family="DejaVu Sans" font-size="10.00">./scripts/build_image.sh</text>
<text text-anchor="middle" x="243.5" y="-1434.68" font-family="DejaVu Sans" font-size="10.00">или make build</text>
</g>
<!-- start&#45;&gt;build_cmd -->
<g id="edge1" class="edge">
<title>start&#45;&gt;build_cmd</title>
<path fill="none" stroke="black" d="M243.5,-1507.58C243.5,-1507.58 243.5,-1470.83 243.5,-1470.83"/>
<polygon fill="black" stroke="black" points="247,-1470.83 243.5,-1460.83 240,-1470.83 247,-1470.83"/>
</g>
<!-- docker_build -->
<g id="node3" class="node">
<title>docker_build</title>
<path fill="#cfe2f3" stroke="black" d="M267.5,-1377.68C267.5,-1377.68 219.5,-1377.68 219.5,-1377.68 213.5,-1377.68 207.5,-1371.68 207.5,-1365.68 207.5,-1365.68 207.5,-1353.68 207.5,-1353.68 207.5,-1347.68 213.5,-1341.68 219.5,-1341.68 219.5,-1341.68 267.5,-1341.68 267.5,-1341.68 273.5,-1341.68 279.5,-1347.68 279.5,-1353.68 279.5,-1353.68 279.5,-1365.68 279.5,-1365.68 279.5,-1371.68 273.5,-1377.68 267.5,-1377.68"/>
<text text-anchor="middle" x="243.5" y="-1362.68" font-family="DejaVu Sans" font-size="10.00">docker build</text>
<text text-anchor="middle" x="243.5" y="-1351.68" font-family="DejaVu Sans" font-size="10.00">Dockerfile</text>
</g>
<!-- build_cmd&#45;&gt;docker_build -->
<g id="edge2" class="edge">
<title>build_cmd&#45;&gt;docker_build</title>
<path fill="none" stroke="black" d="M243.5,-1424.67C243.5,-1424.67 243.5,-1387.94 243.5,-1387.94"/>
<polygon fill="black" stroke="black" points="247,-1387.94 243.5,-1377.94 240,-1387.94 247,-1387.94"/>
</g>
<!-- builder -->
<g id="node4" class="node">
<title>builder</title>
<path fill="#cfe2f3" stroke="black" d="M359,-1294.68C359,-1294.68 128,-1294.68 128,-1294.68 122,-1294.68 116,-1288.68 116,-1282.68 116,-1282.68 116,-1265.68 116,-1265.68 116,-1259.68 122,-1253.68 128,-1253.68 128,-1253.68 359,-1253.68 359,-1253.68 365,-1253.68 371,-1259.68 371,-1265.68 371,-1265.68 371,-1282.68 371,-1282.68 371,-1288.68 365,-1294.68 359,-1294.68"/>
<text text-anchor="middle" x="243.5" y="-1282.68" font-family="DejaVu Sans" font-size="10.00">Builder stage:</text>
<text text-anchor="middle" x="243.5" y="-1271.68" font-family="DejaVu Sans" font-size="10.00">apt packages → git clone PETSc → configure/make</text>
<text text-anchor="middle" x="243.5" y="-1260.68" font-family="DejaVu Sans" font-size="10.00">→ git clone PFLOTRAN → make pflotran</text>
</g>
<!-- docker_build&#45;&gt;builder -->
<g id="edge3" class="edge">
<title>docker_build&#45;&gt;builder</title>
<path fill="none" stroke="black" d="M243.5,-1341.54C243.5,-1341.54 243.5,-1304.68 243.5,-1304.68"/>
<polygon fill="black" stroke="black" points="247,-1304.68 243.5,-1294.68 240,-1304.68 247,-1304.68"/>
</g>
<!-- runtime -->
<g id="node5" class="node">
<title>runtime</title>
<path fill="#eadcf8" stroke="black" d="M347,-1206.68C347,-1206.68 140,-1206.68 140,-1206.68 134,-1206.68 128,-1200.68 128,-1194.68 128,-1194.68 128,-1166.68 128,-1166.68 128,-1160.68 134,-1154.68 140,-1154.68 140,-1154.68 347,-1154.68 347,-1154.68 353,-1154.68 359,-1160.68 359,-1166.68 359,-1166.68 359,-1194.68 359,-1194.68 359,-1200.68 353,-1206.68 347,-1206.68"/>
<text text-anchor="middle" x="243.5" y="-1194.68" font-family="DejaVu Sans" font-size="10.00">Runtime stage:</text>
<text text-anchor="middle" x="243.5" y="-1183.68" font-family="DejaVu Sans" font-size="10.00">копирование PETSc/PFLOTRAN</text>
<text text-anchor="middle" x="243.5" y="-1172.68" font-family="DejaVu Sans" font-size="10.00">копирование Python&#45;адаптера, XLSX, docs</text>
<text text-anchor="middle" x="243.5" y="-1161.68" font-family="DejaVu Sans" font-size="10.00">dry&#45;run проверка генерации input</text>
</g>
<!-- builder&#45;&gt;runtime -->
<g id="edge4" class="edge">
<title>builder&#45;&gt;runtime</title>
<path fill="none" stroke="black" d="M243.5,-1253.43C243.5,-1253.43 243.5,-1216.72 243.5,-1216.72"/>
<polygon fill="black" stroke="black" points="247,-1216.72 243.5,-1206.72 240,-1216.72 247,-1216.72"/>
</g>
<!-- image -->
<g id="node6" class="node">
<title>image</title>
<path fill="#eadcf8" stroke="black" d="M302.5,-1104.03C302.5,-1106.11 276.06,-1107.8 243.5,-1107.8 210.94,-1107.8 184.5,-1106.11 184.5,-1104.03 184.5,-1104.03 184.5,-1070.07 184.5,-1070.07 184.5,-1067.99 210.94,-1066.3 243.5,-1066.3 276.06,-1066.3 302.5,-1067.99 302.5,-1070.07 302.5,-1070.07 302.5,-1104.03 302.5,-1104.03"/>
<path fill="none" stroke="black" d="M302.5,-1104.03C302.5,-1101.95 276.06,-1100.26 243.5,-1100.26 210.94,-1100.26 184.5,-1101.95 184.5,-1104.03"/>
<text text-anchor="middle" x="243.5" y="-1090.05" font-family="DejaVu Sans" font-size="10.00">Docker image</text>
<text text-anchor="middle" x="243.5" y="-1079.05" font-family="DejaVu Sans" font-size="10.00">soilflow&#45;pflotran:local</text>
</g>
<!-- runtime&#45;&gt;image -->
<g id="edge5" class="edge">
<title>runtime&#45;&gt;image</title>
<path fill="none" stroke="black" d="M243.5,-1154.6C243.5,-1154.6 243.5,-1117.96 243.5,-1117.96"/>
<polygon fill="black" stroke="black" points="247,-1117.96 243.5,-1107.96 240,-1117.96 247,-1117.96"/>
</g>
<!-- run_cmd -->
<g id="node7" class="node">
<title>run_cmd</title>
<path fill="#d9ead3" stroke="black" d="M308.5,-1019.43C308.5,-1019.43 178.5,-1019.43 178.5,-1019.43 172.5,-1019.43 166.5,-1013.43 166.5,-1007.43 166.5,-1007.43 166.5,-995.43 166.5,-995.43 166.5,-989.43 172.5,-983.43 178.5,-983.43 178.5,-983.43 308.5,-983.43 308.5,-983.43 314.5,-983.43 320.5,-989.43 320.5,-995.43 320.5,-995.43 320.5,-1007.43 320.5,-1007.43 320.5,-1013.43 314.5,-1019.43 308.5,-1019.43"/>
<text text-anchor="middle" x="243.5" y="-1004.43" font-family="DejaVu Sans" font-size="10.00">./scripts/run_demo_docker.sh</text>
<text text-anchor="middle" x="243.5" y="-993.43" font-family="DejaVu Sans" font-size="10.00">или make run</text>
</g>
<!-- image&#45;&gt;run_cmd -->
<g id="edge6" class="edge">
<title>image&#45;&gt;run_cmd</title>
<path fill="none" stroke="black" d="M243.5,-1066.32C243.5,-1066.32 243.5,-1029.64 243.5,-1029.64"/>
<polygon fill="black" stroke="black" points="247,-1029.64 243.5,-1019.64 240,-1029.64 247,-1029.64"/>
</g>
<!-- docker_run -->
<g id="node8" class="node">
<title>docker_run</title>
<path fill="#d9ead3" stroke="black" d="M353.5,-936.43C353.5,-936.43 133.5,-936.43 133.5,-936.43 127.5,-936.43 121.5,-930.43 121.5,-924.43 121.5,-924.43 121.5,-912.43 121.5,-912.43 121.5,-906.43 127.5,-900.43 133.5,-900.43 133.5,-900.43 353.5,-900.43 353.5,-900.43 359.5,-900.43 365.5,-906.43 365.5,-912.43 365.5,-912.43 365.5,-924.43 365.5,-924.43 365.5,-930.43 359.5,-936.43 353.5,-936.43"/>
<text text-anchor="middle" x="243.5" y="-921.43" font-family="DejaVu Sans" font-size="10.00">docker run &#45;&#45;network none</text>
<text text-anchor="middle" x="243.5" y="-910.43" font-family="DejaVu Sans" font-size="10.00">volume: output → /work или /workspace/output</text>
</g>
<!-- run_cmd&#45;&gt;docker_run -->
<g id="edge7" class="edge">
<title>run_cmd&#45;&gt;docker_run</title>
<path fill="none" stroke="black" d="M243.5,-983.42C243.5,-983.42 243.5,-946.69 243.5,-946.69"/>
<polygon fill="black" stroke="black" points="247,-946.69 243.5,-936.69 240,-946.69 247,-946.69"/>
</g>
<!-- entry -->
<g id="node9" class="node">
<title>entry</title>
<path fill="#eadcf8" stroke="black" d="M308,-853.43C308,-853.43 179,-853.43 179,-853.43 173,-853.43 167,-847.43 167,-841.43 167,-841.43 167,-829.43 167,-829.43 167,-823.43 173,-817.43 179,-817.43 179,-817.43 308,-817.43 308,-817.43 314,-817.43 320,-823.43 320,-829.43 320,-829.43 320,-841.43 320,-841.43 320,-847.43 314,-853.43 308,-853.43"/>
<text text-anchor="middle" x="243.5" y="-832.93" font-family="DejaVu Sans" font-size="10.00">entrypoint: demo / run&#45;demo</text>
</g>
<!-- docker_run&#45;&gt;entry -->
<g id="edge8" class="edge">
<title>docker_run&#45;&gt;entry</title>
<path fill="none" stroke="black" d="M243.5,-900.42C243.5,-900.42 243.5,-863.69 243.5,-863.69"/>
<polygon fill="black" stroke="black" points="247,-863.69 243.5,-853.69 240,-863.69 247,-863.69"/>
</g>
<!-- py -->
<g id="node10" class="node">
<title>py</title>
<path fill="#d9ead3" stroke="black" d="M307,-770.43C307,-770.43 180,-770.43 180,-770.43 174,-770.43 168,-764.43 168,-758.43 168,-758.43 168,-746.43 168,-746.43 168,-740.43 174,-734.43 180,-734.43 180,-734.43 307,-734.43 307,-734.43 313,-734.43 319,-740.43 319,-746.43 319,-746.43 319,-758.43 319,-758.43 319,-764.43 313,-770.43 307,-770.43"/>
<text text-anchor="middle" x="243.5" y="-755.43" font-family="DejaVu Sans" font-size="10.00">python3 soilflow_pflotran.py</text>
<text text-anchor="middle" x="243.5" y="-744.43" font-family="DejaVu Sans" font-size="10.00">&#45;&#45;xlsx ... &#45;&#45;workdir ... &#45;&#45;run</text>
</g>
<!-- entry&#45;&gt;py -->
<g id="edge9" class="edge">
<title>entry&#45;&gt;py</title>
<path fill="none" stroke="black" d="M243.5,-817.42C243.5,-817.42 243.5,-780.69 243.5,-780.69"/>
<polygon fill="black" stroke="black" points="247,-780.69 243.5,-770.69 240,-780.69 247,-780.69"/>
</g>
<!-- xlsx_load -->
<g id="node11" class="node">
<title>xlsx_load</title>
<path fill="#d9ead3" stroke="black" d="M343,-687.43C343,-687.43 144,-687.43 144,-687.43 138,-687.43 132,-681.43 132,-675.43 132,-675.43 132,-663.43 132,-663.43 132,-657.43 138,-651.43 144,-651.43 144,-651.43 343,-651.43 343,-651.43 349,-651.43 355,-657.43 355,-663.43 355,-663.43 355,-675.43 355,-675.43 355,-681.43 349,-687.43 343,-687.43"/>
<text text-anchor="middle" x="243.5" y="-672.43" font-family="DejaVu Sans" font-size="10.00">load_workbook(data_only=True)</text>
<text text-anchor="middle" x="243.5" y="-661.43" font-family="DejaVu Sans" font-size="10.00">чтение листов 01–09 и 10_Weather_Daily</text>
</g>
<!-- py&#45;&gt;xlsx_load -->
<g id="edge10" class="edge">
<title>py&#45;&gt;xlsx_load</title>
<path fill="none" stroke="black" d="M243.5,-734.42C243.5,-734.42 243.5,-697.69 243.5,-697.69"/>
<polygon fill="black" stroke="black" points="247,-697.69 243.5,-687.69 240,-697.69 247,-697.69"/>
</g>
<!-- validate -->
<g id="node12" class="node">
<title>validate</title>
<path fill="#d9ead3" stroke="black" d="M344.5,-604.43C344.5,-604.43 142.5,-604.43 142.5,-604.43 136.5,-604.43 130.5,-598.43 130.5,-592.43 130.5,-592.43 130.5,-575.43 130.5,-575.43 130.5,-569.43 136.5,-563.43 142.5,-563.43 142.5,-563.43 344.5,-563.43 344.5,-563.43 350.5,-563.43 356.5,-569.43 356.5,-575.43 356.5,-575.43 356.5,-592.43 356.5,-592.43 356.5,-598.43 350.5,-604.43 344.5,-604.43"/>
<text text-anchor="middle" x="243.5" y="-592.43" font-family="DejaVu Sans" font-size="10.00">Проверка и преобразование параметров</text>
<text text-anchor="middle" x="243.5" y="-581.43" font-family="DejaVu Sans" font-size="10.00">as_float/as_int/as_bool</text>
<text text-anchor="middle" x="243.5" y="-570.43" font-family="DejaVu Sans" font-size="10.00">контроль θr &lt; θs, n &gt; 1, Ks &gt; 0</text>
</g>
<!-- xlsx_load&#45;&gt;validate -->
<g id="edge11" class="edge">
<title>xlsx_load&#45;&gt;validate</title>
<path fill="none" stroke="black" d="M243.5,-651.29C243.5,-651.29 243.5,-614.43 243.5,-614.43"/>
<polygon fill="black" stroke="black" points="247,-614.43 243.5,-604.43 240,-614.43 247,-614.43"/>
</g>
<!-- derive -->
<g id="node13" class="node">
<title>derive</title>
<path fill="#d9ead3" stroke="black" d="M325,-516.43C325,-516.43 162,-516.43 162,-516.43 156,-516.43 150,-510.43 150,-504.43 150,-504.43 150,-465.43 150,-465.43 150,-459.43 156,-453.43 162,-453.43 162,-453.43 325,-453.43 325,-453.43 331,-453.43 337,-459.43 337,-465.43 337,-465.43 337,-504.43 337,-504.43 337,-510.43 331,-516.43 325,-516.43"/>
<text text-anchor="middle" x="243.5" y="-504.43" font-family="DejaVu Sans" font-size="10.00">Расчёт производных параметров</text>
<text text-anchor="middle" x="243.5" y="-493.43" font-family="DejaVu Sans" font-size="10.00">Sr = θr/θs</text>
<text text-anchor="middle" x="243.5" y="-482.43" font-family="DejaVu Sans" font-size="10.00">m = 1 &#45; 1/n</text>
<text text-anchor="middle" x="243.5" y="-471.43" font-family="DejaVu Sans" font-size="10.00">permeability = Ks μ/(ρg)</text>
<text text-anchor="middle" x="243.5" y="-460.43" font-family="DejaVu Sans" font-size="10.00">mean top flux</text>
</g>
<!-- validate&#45;&gt;derive -->
<g id="edge12" class="edge">
<title>validate&#45;&gt;derive</title>
<path fill="none" stroke="black" d="M243.5,-563.41C243.5,-563.41 243.5,-526.72 243.5,-526.72"/>
<polygon fill="black" stroke="black" points="247,-526.72 243.5,-516.72 240,-526.72 247,-526.72"/>
</g>
<!-- write_files -->
<g id="node14" class="node">
<title>write_files</title>
<path fill="#f4cccc" stroke="black" d="M300.5,-406.43C300.5,-406.43 186.5,-406.43 186.5,-406.43 180.5,-406.43 174.5,-400.43 174.5,-394.43 174.5,-394.43 174.5,-366.43 174.5,-366.43 174.5,-360.43 180.5,-354.43 186.5,-354.43 186.5,-354.43 300.5,-354.43 300.5,-354.43 306.5,-354.43 312.5,-360.43 312.5,-366.43 312.5,-366.43 312.5,-394.43 312.5,-394.43 312.5,-400.43 306.5,-406.43 300.5,-406.43"/>
<text text-anchor="middle" x="243.5" y="-394.43" font-family="DejaVu Sans" font-size="10.00">Запись файлов задачи</text>
<text text-anchor="middle" x="243.5" y="-383.43" font-family="DejaVu Sans" font-size="10.00">pflotran.in</text>
<text text-anchor="middle" x="243.5" y="-372.43" font-family="DejaVu Sans" font-size="10.00">forcing_daily.csv</text>
<text text-anchor="middle" x="243.5" y="-361.43" font-family="DejaVu Sans" font-size="10.00">soilflow_run_summary.txt</text>
</g>
<!-- derive&#45;&gt;write_files -->
<g id="edge13" class="edge">
<title>derive&#45;&gt;write_files</title>
<path fill="none" stroke="black" d="M243.5,-453.29C243.5,-453.29 243.5,-416.68 243.5,-416.68"/>
<polygon fill="black" stroke="black" points="247,-416.68 243.5,-406.68 240,-416.68 247,-416.68"/>
</g>
<!-- find_exe -->
<g id="node15" class="node">
<title>find_exe</title>
<path fill="#fce5cd" stroke="black" d="M355,-307.43C355,-307.43 132,-307.43 132,-307.43 126,-307.43 120,-301.43 120,-295.43 120,-295.43 120,-283.43 120,-283.43 120,-277.43 126,-271.43 132,-271.43 132,-271.43 355,-271.43 355,-271.43 361,-271.43 367,-277.43 367,-283.43 367,-283.43 367,-295.43 367,-295.43 367,-301.43 361,-307.43 355,-307.43"/>
<text text-anchor="middle" x="243.5" y="-292.43" font-family="DejaVu Sans" font-size="10.00">Поиск PFLOTRAN_EXE</text>
<text text-anchor="middle" x="243.5" y="-281.43" font-family="DejaVu Sans" font-size="10.00">в контейнере: /opt/pflotran/src/pflotran/pflotran</text>
</g>
<!-- write_files&#45;&gt;find_exe -->
<g id="edge14" class="edge">
<title>write_files&#45;&gt;find_exe</title>
<path fill="none" stroke="black" d="M243.5,-354.11C243.5,-354.11 243.5,-317.61 243.5,-317.61"/>
<polygon fill="black" stroke="black" points="247,-317.61 243.5,-307.61 240,-317.61 247,-317.61"/>
</g>
<!-- mpirun -->
<g id="node16" class="node">
<title>mpirun</title>
<path fill="#fce5cd" stroke="black" d="M289,-224.43C289,-224.43 198,-224.43 198,-224.43 192,-224.43 186,-218.43 186,-212.43 186,-212.43 186,-200.43 186,-200.43 186,-194.43 192,-188.43 198,-188.43 198,-188.43 289,-188.43 289,-188.43 295,-188.43 301,-194.43 301,-200.43 301,-200.43 301,-212.43 301,-212.43 301,-218.43 295,-224.43 289,-224.43"/>
<text text-anchor="middle" x="243.5" y="-209.43" font-family="DejaVu Sans" font-size="10.00">mpirun &#45;n N pflotran</text>
<text text-anchor="middle" x="243.5" y="-198.43" font-family="DejaVu Sans" font-size="10.00">&#45;pflotranin pflotran.in</text>
</g>
<!-- find_exe&#45;&gt;mpirun -->
<g id="edge15" class="edge">
<title>find_exe&#45;&gt;mpirun</title>
<path fill="none" stroke="black" d="M243.5,-271.42C243.5,-271.42 243.5,-234.69 243.5,-234.69"/>
<polygon fill="black" stroke="black" points="247,-234.69 243.5,-224.69 240,-234.69 247,-234.69"/>
</g>
<!-- results -->
<g id="node17" class="node">
<title>results</title>
<polygon fill="#f4cccc" stroke="black" points="316,-141.43 313,-145.43 292,-145.43 289,-141.43 171,-141.43 171,-89.43 316,-89.43 316,-141.43"/>
<text text-anchor="middle" x="243.5" y="-129.43" font-family="DejaVu Sans" font-size="10.00">Результаты</text>
<text text-anchor="middle" x="243.5" y="-118.43" font-family="DejaVu Sans" font-size="10.00">run_pflotran.log</text>
<text text-anchor="middle" x="243.5" y="-107.43" font-family="DejaVu Sans" font-size="10.00">PFLOTRAN TECPLOT output</text>
<text text-anchor="middle" x="243.5" y="-96.43" font-family="DejaVu Sans" font-size="10.00">сводка и форсинг</text>
</g>
<!-- mpirun&#45;&gt;results -->
<g id="edge16" class="edge">
<title>mpirun&#45;&gt;results</title>
<path fill="none" stroke="black" d="M243.5,-188.01C243.5,-188.01 243.5,-151.75 243.5,-151.75"/>
<polygon fill="black" stroke="black" points="247,-151.75 243.5,-141.75 240,-151.75 247,-151.75"/>
</g>
<!-- end -->
<g id="node18" class="node">
<title>end</title>
<ellipse fill="#fff2cc" stroke="black" cx="243.5" cy="-21.21" rx="106.13" ry="21.43"/>
<text text-anchor="middle" x="243.5" y="-24.21" font-family="DejaVu Sans" font-size="10.00">Конец</text>
<text text-anchor="middle" x="243.5" y="-13.21" font-family="DejaVu Sans" font-size="10.00">файлы доступны в output/</text>
</g>
<!-- results&#45;&gt;end -->
<g id="edge17" class="edge">
<title>results&#45;&gt;end</title>
<path fill="none" stroke="black" d="M243.5,-89.18C243.5,-89.18 243.5,-52.56 243.5,-52.56"/>
<polygon fill="black" stroke="black" points="247,-52.56 243.5,-42.56 240,-52.56 247,-52.56"/>
</g>
</g>
</svg>
