<?xml version="1.0" encoding="UTF-8" standalone="no"?>
<!DOCTYPE svg PUBLIC "-//W3C//DTD SVG 1.1//EN"
 "http://www.w3.org/Graphics/SVG/1.1/DTD/svg11.dtd">
<!-- Generated by graphviz version 2.42.4 (0)
 -->
<!-- Title: soilflow_components Pages: 1 -->
<svg width="2402pt" height="1073pt"
 viewBox="0.00 0.00 2402.00 1073.00" xmlns="http://www.w3.org/2000/svg" xmlns:xlink="http://www.w3.org/1999/xlink">
<g id="graph0" class="graph" transform="scale(1 1) rotate(0) translate(4 1069)">
<title>soilflow_components</title>
<polygon fill="white" stroke="transparent" points="-4,4 -4,-1069 2398,-1069 2398,4 -4,4"/>
<text text-anchor="middle" x="1197" y="-1050.6" font-family="DejaVu Sans" font-size="13.00">Компонентная схема Docker&#45;пакета SoilFlow/PFLOTRAN</text>
<g id="clust1" class="cluster">
<title>cluster_host</title>
<path fill="none" stroke="#7f8c8d" d="M1349.5,-641C1349.5,-641 1851,-641 1851,-641 1857,-641 1863,-647 1863,-653 1863,-653 1863,-860 1863,-860 1863,-866 1857,-872 1851,-872 1851,-872 1349.5,-872 1349.5,-872 1343.5,-872 1337.5,-866 1337.5,-860 1337.5,-860 1337.5,-653 1337.5,-653 1337.5,-647 1343.5,-641 1349.5,-641"/>
<text text-anchor="middle" x="1600.25" y="-858.4" font-family="DejaVu Sans" font-size="12.00">Хост: WSL Ubuntu 24.04 + Docker</text>
</g>
<g id="clust2" class="cluster">
<title>cluster_build</title>
<path fill="none" stroke="#6fa8dc" d="M842.5,-8C842.5,-8 1485.5,-8 1485.5,-8 1491.5,-8 1497.5,-14 1497.5,-20 1497.5,-20 1497.5,-75 1497.5,-75 1497.5,-81 1491.5,-87 1485.5,-87 1485.5,-87 842.5,-87 842.5,-87 836.5,-87 830.5,-81 830.5,-75 830.5,-75 830.5,-20 830.5,-20 830.5,-14 836.5,-8 842.5,-8"/>
<text text-anchor="middle" x="1164" y="-73.4" font-family="DejaVu Sans" font-size="12.00">Dockerfile: стадия builder</text>
</g>
<g id="clust3" class="cluster">
<title>cluster_runtime</title>
<path fill="none" stroke="#8e7cc3" d="M1704,-880C1704,-880 2374,-880 2374,-880 2380,-880 2386,-886 2386,-892 2386,-892 2386,-1017 2386,-1017 2386,-1023 2380,-1029 2374,-1029 2374,-1029 1704,-1029 1704,-1029 1698,-1029 1692,-1023 1692,-1017 1692,-1017 1692,-892 1692,-892 1692,-886 1698,-880 1704,-880"/>
<text text-anchor="middle" x="2039" y="-1015.4" font-family="DejaVu Sans" font-size="12.00">Docker image: runtime</text>
</g>
<g id="clust4" class="cluster">
<title>cluster_adapter</title>
<path fill="none" stroke="#93c47d" d="M490,-147C490,-147 1492.5,-147 1492.5,-147 1498.5,-147 1504.5,-153 1504.5,-159 1504.5,-159 1504.5,-312 1504.5,-312 1504.5,-318 1498.5,-324 1492.5,-324 1492.5,-324 490,-324 490,-324 484,-324 478,-318 478,-312 478,-312 478,-159 478,-159 478,-153 484,-147 490,-147"/>
<text text-anchor="middle" x="991.25" y="-310.4" font-family="DejaVu Sans" font-size="12.00">Python&#45;адаптер: scripts/soilflow_pflotran.py</text>
</g>
<g id="clust5" class="cluster">
<title>cluster_pflotran</title>
<path fill="none" stroke="#e69138" d="M825,-880C825,-880 1541,-880 1541,-880 1547,-880 1553,-886 1553,-892 1553,-892 1553,-1023 1553,-1023 1553,-1029 1547,-1035 1541,-1035 1541,-1035 825,-1035 825,-1035 819,-1035 813,-1029 813,-1023 813,-1023 813,-892 813,-892 813,-886 819,-880 825,-880"/>
<text text-anchor="middle" x="1183" y="-1021.4" font-family="DejaVu Sans" font-size="12.00">PFLOTRAN расчётное ядро</text>
</g>
<g id="clust6" class="cluster">
<title>cluster_outputs</title>
<path fill="none" stroke="#cc0000" d="M1074.5,-332C1074.5,-332 1497,-332 1497,-332 1503,-332 1509,-338 1509,-344 1509,-344 1509,-621 1509,-621 1509,-627 1503,-633 1497,-633 1497,-633 1074.5,-633 1074.5,-633 1068.5,-633 1062.5,-627 1062.5,-621 1062.5,-621 1062.5,-344 1062.5,-344 1062.5,-338 1068.5,-332 1074.5,-332"/>
<text text-anchor="middle" x="1285.75" y="-619.4" font-family="DejaVu Sans" font-size="12.00">Файлы расчётной задачи</text>
</g>
<g id="clust7" class="cluster">
<title>cluster_future</title>
<path fill="none" stroke="#999999" stroke-dasharray="5,2" d="M12,-109C12,-109 367,-109 367,-109 373,-109 379,-115 379,-121 379,-121 379,-474 379,-474 379,-480 373,-486 367,-486 367,-486 12,-486 12,-486 6,-486 0,-480 0,-474 0,-474 0,-121 0,-121 0,-115 6,-109 12,-109"/>
<text text-anchor="middle" x="189.5" y="-472.4" font-family="DejaVu Sans" font-size="12.00">Заложенные контракты расширения в XLSX/архитектуре</text>
</g>
<!-- user -->
<g id="node1" class="node">
<title>user</title>
<path fill="#fff2cc" stroke="black" d="M1460,-767C1460,-767 1397,-767 1397,-767 1391,-767 1385,-761 1385,-755 1385,-755 1385,-743 1385,-743 1385,-737 1391,-731 1397,-731 1397,-731 1460,-731 1460,-731 1466,-731 1472,-737 1472,-743 1472,-743 1472,-755 1472,-755 1472,-761 1466,-767 1460,-767"/>
<text text-anchor="middle" x="1428.5" y="-752" font-family="DejaVu Sans" font-size="10.00">Пользователь</text>
<text text-anchor="middle" x="1428.5" y="-741" font-family="DejaVu Sans" font-size="10.00">команды shell</text>
</g>
<!-- build_sh -->
<g id="node2" class="node">
<title>build_sh</title>
<path fill="#d9ead3" stroke="black" d="M1841.5,-709C1841.5,-709 1720.5,-709 1720.5,-709 1714.5,-709 1708.5,-703 1708.5,-697 1708.5,-697 1708.5,-685 1708.5,-685 1708.5,-679 1714.5,-673 1720.5,-673 1720.5,-673 1841.5,-673 1841.5,-673 1847.5,-673 1853.5,-679 1853.5,-685 1853.5,-685 1853.5,-697 1853.5,-697 1853.5,-703 1847.5,-709 1841.5,-709"/>
<text text-anchor="middle" x="1781" y="-694" font-family="DejaVu Sans" font-size="10.00">scripts/build_image.sh</text>
<text text-anchor="middle" x="1781" y="-683" font-family="DejaVu Sans" font-size="10.00">или docker/build_image.sh</text>
</g>
<!-- user&#45;&gt;build_sh -->
<g id="edge1" class="edge">
<title>user&#45;&gt;build_sh</title>
<path fill="none" stroke="black" d="M1429,-730.75C1429,-717.85 1429,-702.83 1429,-702.83 1429,-702.83 1698.49,-702.83 1698.49,-702.83"/>
<polygon fill="black" stroke="black" points="1698.49,-706.33 1708.49,-702.83 1698.49,-699.33 1698.49,-706.33"/>
<text text-anchor="middle" x="1622.5" y="-704.8" font-family="DejaVu Sans" font-size="9.00">build</text>
</g>
<!-- run_sh -->
<g id="node3" class="node">
<title>run_sh</title>
<path fill="#d9ead3" stroke="black" d="M1843,-788C1843,-788 1719,-788 1719,-788 1713,-788 1707,-782 1707,-776 1707,-776 1707,-764 1707,-764 1707,-758 1713,-752 1719,-752 1719,-752 1843,-752 1843,-752 1849,-752 1855,-758 1855,-764 1855,-764 1855,-776 1855,-776 1855,-782 1849,-788 1843,-788"/>
<text text-anchor="middle" x="1781" y="-773" font-family="DejaVu Sans" font-size="10.00">scripts/run_demo_docker.sh</text>
<text text-anchor="middle" x="1781" y="-762" font-family="DejaVu Sans" font-size="10.00">или docker/run_demo.sh</text>
</g>
<!-- user&#45;&gt;run_sh -->
<g id="edge8" class="edge">
<title>user&#45;&gt;run_sh</title>
<path fill="none" stroke="black" d="M1472.08,-759.5C1472.08,-759.5 1696.78,-759.5 1696.78,-759.5"/>
<polygon fill="black" stroke="black" points="1696.78,-763 1706.78,-759.5 1696.78,-756 1696.78,-763"/>
<text text-anchor="middle" x="1622.5" y="-761.8" font-family="DejaVu Sans" font-size="9.00">run</text>
</g>
<!-- ubuntu_build -->
<g id="node6" class="node">
<title>ubuntu_build</title>
<path fill="#cfe2f3" stroke="black" d="M962.5,-53C962.5,-53 850.5,-53 850.5,-53 844.5,-53 838.5,-47 838.5,-41 838.5,-41 838.5,-29 838.5,-29 838.5,-23 844.5,-17 850.5,-17 850.5,-17 962.5,-17 962.5,-17 968.5,-17 974.5,-23 974.5,-29 974.5,-29 974.5,-41 974.5,-41 974.5,-47 968.5,-53 962.5,-53"/>
<text text-anchor="middle" x="906.5" y="-38" font-family="DejaVu Sans" font-size="10.00">ubuntu:24.04</text>
<text text-anchor="middle" x="906.5" y="-27" font-family="DejaVu Sans" font-size="10.00">компиляторы, git, make</text>
</g>
<!-- build_sh&#45;&gt;ubuntu_build -->
<g id="edge2" class="edge">
<title>build_sh&#45;&gt;ubuntu_build</title>
<path fill="none" stroke="black" d="M1708.41,-696.67C1508.21,-696.67 963,-696.67 963,-696.67 963,-696.67 963,-63.04 963,-63.04"/>
<polygon fill="black" stroke="black" points="966.5,-63.04 963,-53.04 959.5,-63.04 966.5,-63.04"/>
</g>
<!-- entrypoint -->
<g id="node10" class="node">
<title>entrypoint</title>
<path fill="#eadcf8" stroke="black" d="M2125,-948.5C2125,-948.5 1986,-948.5 1986,-948.5 1980,-948.5 1974,-942.5 1974,-936.5 1974,-936.5 1974,-919.5 1974,-919.5 1974,-913.5 1980,-907.5 1986,-907.5 1986,-907.5 2125,-907.5 2125,-907.5 2131,-907.5 2137,-913.5 2137,-919.5 2137,-919.5 2137,-936.5 2137,-936.5 2137,-942.5 2131,-948.5 2125,-948.5"/>
<text text-anchor="middle" x="2055.5" y="-936.5" font-family="DejaVu Sans" font-size="10.00">docker/entrypoint.sh</text>
<text text-anchor="middle" x="2055.5" y="-925.5" font-family="DejaVu Sans" font-size="10.00">команды: demo, run&#45;demo,</text>
<text text-anchor="middle" x="2055.5" y="-914.5" font-family="DejaVu Sans" font-size="10.00">generate, check, pflotran, shell</text>
</g>
<!-- run_sh&#45;&gt;entrypoint -->
<g id="edge9" class="edge">
<title>run_sh&#45;&gt;entrypoint</title>
<path fill="none" stroke="black" d="M1855.06,-770C1936.51,-770 2056,-770 2056,-770 2056,-770 2056,-897.34 2056,-897.34"/>
<polygon fill="black" stroke="black" points="2052.5,-897.34 2056,-907.34 2059.5,-897.34 2052.5,-897.34"/>
<text text-anchor="middle" x="1918" y="-842.8" font-family="DejaVu Sans" font-size="9.00">docker run</text>
</g>
<!-- save_load -->
<g id="node4" class="node">
<title>save_load</title>
<path fill="#d9ead3" stroke="black" d="M1499.5,-843C1499.5,-843 1357.5,-843 1357.5,-843 1351.5,-843 1345.5,-837 1345.5,-831 1345.5,-831 1345.5,-819 1345.5,-819 1345.5,-813 1351.5,-807 1357.5,-807 1357.5,-807 1499.5,-807 1499.5,-807 1505.5,-807 1511.5,-813 1511.5,-819 1511.5,-819 1511.5,-831 1511.5,-831 1511.5,-837 1505.5,-843 1499.5,-843"/>
<text text-anchor="middle" x="1428.5" y="-828" font-family="DejaVu Sans" font-size="10.00">save_image.sh / load_image.sh</text>
<text text-anchor="middle" x="1428.5" y="-817" font-family="DejaVu Sans" font-size="10.00">перенос образа</text>
</g>
<!-- runtime_libs -->
<g id="node9" class="node">
<title>runtime_libs</title>
<path fill="#eadcf8" stroke="black" d="M1850,-924C1850,-924 1712,-924 1712,-924 1706,-924 1700,-918 1700,-912 1700,-912 1700,-900 1700,-900 1700,-894 1706,-888 1712,-888 1712,-888 1850,-888 1850,-888 1856,-888 1862,-894 1862,-900 1862,-900 1862,-912 1862,-912 1862,-918 1856,-924 1850,-924"/>
<text text-anchor="middle" x="1781" y="-909" font-family="DejaVu Sans" font-size="10.00">runtime libraries</text>
<text text-anchor="middle" x="1781" y="-898" font-family="DejaVu Sans" font-size="10.00">PETSc + PFLOTRAN + Python3</text>
</g>
<!-- save_load&#45;&gt;runtime_libs -->
<g id="edge31" class="edge">
<title>save_load&#45;&gt;runtime_libs</title>
<path fill="none" stroke="black" stroke-dasharray="5,2" d="M1511.6,-825C1592.4,-825 1703,-825 1703,-825 1703,-825 1703,-877.62 1703,-877.62"/>
<polygon fill="black" stroke="black" points="1699.5,-877.62 1703,-887.62 1706.5,-877.62 1699.5,-877.62"/>
<text text-anchor="middle" x="1622.5" y="-867.8" font-family="DejaVu Sans" font-size="9.00">portable image</text>
</g>
<!-- out_host -->
<g id="node5" class="node">
<title>out_host</title>
<path fill="#fce5cd" stroke="black" d="M1478.5,-690.5C1478.5,-690.5 1378.5,-690.5 1378.5,-690.5 1372.5,-690.5 1366.5,-684.5 1366.5,-678.5 1366.5,-678.5 1366.5,-661.5 1366.5,-661.5 1366.5,-655.5 1372.5,-649.5 1378.5,-649.5 1378.5,-649.5 1478.5,-649.5 1478.5,-649.5 1484.5,-649.5 1490.5,-655.5 1490.5,-661.5 1490.5,-661.5 1490.5,-678.5 1490.5,-678.5 1490.5,-684.5 1484.5,-690.5 1478.5,-690.5"/>
<text text-anchor="middle" x="1428.5" y="-678.5" font-family="DejaVu Sans" font-size="10.00">output/</text>
<text text-anchor="middle" x="1428.5" y="-667.5" font-family="DejaVu Sans" font-size="10.00">каталог результатов</text>
<text text-anchor="middle" x="1428.5" y="-656.5" font-family="DejaVu Sans" font-size="10.00">на хосте</text>
</g>
<!-- petsc_build -->
<g id="node7" class="node">
<title>petsc_build</title>
<path fill="#cfe2f3" stroke="black" d="M1200.5,-57.5C1200.5,-57.5 1070.5,-57.5 1070.5,-57.5 1064.5,-57.5 1058.5,-51.5 1058.5,-45.5 1058.5,-45.5 1058.5,-28.5 1058.5,-28.5 1058.5,-22.5 1064.5,-16.5 1070.5,-16.5 1070.5,-16.5 1200.5,-16.5 1200.5,-16.5 1206.5,-16.5 1212.5,-22.5 1212.5,-28.5 1212.5,-28.5 1212.5,-45.5 1212.5,-45.5 1212.5,-51.5 1206.5,-57.5 1200.5,-57.5"/>
<text text-anchor="middle" x="1135.5" y="-45.5" font-family="DejaVu Sans" font-size="10.00">PETSc</text>
<text text-anchor="middle" x="1135.5" y="-34.5" font-family="DejaVu Sans" font-size="10.00">MPICH, HDF5, BLAS/LAPACK,</text>
<text text-anchor="middle" x="1135.5" y="-23.5" font-family="DejaVu Sans" font-size="10.00">METIS/ParMETIS</text>
</g>
<!-- ubuntu_build&#45;&gt;petsc_build -->
<g id="edge3" class="edge">
<title>ubuntu_build&#45;&gt;petsc_build</title>
<path fill="none" stroke="black" d="M974.59,-35C974.59,-35 1048.44,-35 1048.44,-35"/>
<polygon fill="black" stroke="black" points="1048.44,-38.5 1058.44,-35 1048.44,-31.5 1048.44,-38.5"/>
</g>
<!-- pflotran_build -->
<g id="node8" class="node">
<title>pflotran_build</title>
<path fill="#cfe2f3" stroke="black" d="M1477.5,-57C1477.5,-57 1379.5,-57 1379.5,-57 1373.5,-57 1367.5,-51 1367.5,-45 1367.5,-45 1367.5,-33 1367.5,-33 1367.5,-27 1373.5,-21 1379.5,-21 1379.5,-21 1477.5,-21 1477.5,-21 1483.5,-21 1489.5,-27 1489.5,-33 1489.5,-33 1489.5,-45 1489.5,-45 1489.5,-51 1483.5,-57 1477.5,-57"/>
<text text-anchor="middle" x="1428.5" y="-42" font-family="DejaVu Sans" font-size="10.00">PFLOTRAN</text>
<text text-anchor="middle" x="1428.5" y="-31" font-family="DejaVu Sans" font-size="10.00">сборка pflotran binary</text>
</g>
<!-- petsc_build&#45;&gt;pflotran_build -->
<g id="edge4" class="edge">
<title>petsc_build&#45;&gt;pflotran_build</title>
<path fill="none" stroke="black" d="M1212.87,-39C1212.87,-39 1357.42,-39 1357.42,-39"/>
<polygon fill="black" stroke="black" points="1357.42,-42.5 1367.42,-39 1357.42,-35.5 1357.42,-42.5"/>
</g>
<!-- pflotran_build&#45;&gt;runtime_libs -->
<g id="edge5" class="edge">
<title>pflotran_build&#45;&gt;runtime_libs</title>
<path fill="none" stroke="black" d="M1489.52,-39C1570.95,-39 1705,-39 1705,-39 1705,-39 1705,-877.89 1705,-877.89"/>
<polygon fill="black" stroke="black" points="1701.5,-877.89 1705,-887.89 1708.5,-877.89 1701.5,-877.89"/>
<text text-anchor="middle" x="1622.5" y="-333.8" font-family="DejaVu Sans" font-size="9.00">COPY &#45;&#45;from=builder</text>
</g>
<!-- runtime_libs&#45;&gt;entrypoint -->
<g id="edge6" class="edge">
<title>runtime_libs&#45;&gt;entrypoint</title>
<path fill="none" stroke="black" d="M1862.24,-915.75C1862.24,-915.75 1963.99,-915.75 1963.99,-915.75"/>
<polygon fill="black" stroke="black" points="1963.99,-919.25 1973.99,-915.75 1963.99,-912.25 1963.99,-919.25"/>
</g>
<!-- check -->
<g id="node11" class="node">
<title>check</title>
<path fill="#eadcf8" stroke="black" d="M2366,-924C2366,-924 2239,-924 2239,-924 2233,-924 2227,-918 2227,-912 2227,-912 2227,-900 2227,-900 2227,-894 2233,-888 2239,-888 2239,-888 2366,-888 2366,-888 2372,-888 2378,-894 2378,-900 2378,-900 2378,-912 2378,-912 2378,-918 2372,-924 2366,-924"/>
<text text-anchor="middle" x="2302.5" y="-909" font-family="DejaVu Sans" font-size="10.00">soilflow&#45;check</text>
<text text-anchor="middle" x="2302.5" y="-898" font-family="DejaVu Sans" font-size="10.00">самопроверка контейнера</text>
</g>
<!-- entrypoint&#45;&gt;check -->
<g id="edge7" class="edge">
<title>entrypoint&#45;&gt;check</title>
<path fill="none" stroke="black" d="M2137.06,-915.75C2137.06,-915.75 2216.87,-915.75 2216.87,-915.75"/>
<polygon fill="black" stroke="black" points="2216.87,-919.25 2226.87,-915.75 2216.87,-912.25 2216.87,-919.25"/>
<text text-anchor="middle" x="2182" y="-930.8" font-family="DejaVu Sans" font-size="9.00">check</text>
</g>
<!-- app -->
<g id="node12" class="node">
<title>app</title>
<path fill="#eadcf8" stroke="black" d="M2344,-1000C2344,-1000 2261,-1000 2261,-1000 2255,-1000 2249,-994 2249,-988 2249,-988 2249,-976 2249,-976 2249,-970 2255,-964 2261,-964 2261,-964 2344,-964 2344,-964 2350,-964 2356,-970 2356,-976 2356,-976 2356,-988 2356,-988 2356,-994 2350,-1000 2344,-1000"/>
<text text-anchor="middle" x="2302.5" y="-985" font-family="DejaVu Sans" font-size="10.00">/opt/soilflow/</text>
<text text-anchor="middle" x="2302.5" y="-974" font-family="DejaVu Sans" font-size="10.00">код + XLSX + docs</text>
</g>
<!-- entrypoint&#45;&gt;app -->
<g id="edge10" class="edge">
<title>entrypoint&#45;&gt;app</title>
<path fill="none" stroke="black" d="M2137.33,-936.25C2215.34,-936.25 2321,-936.25 2321,-936.25 2321,-936.25 2321,-953.92 2321,-953.92"/>
<polygon fill="black" stroke="black" points="2317.5,-953.92 2321,-963.92 2324.5,-953.92 2317.5,-953.92"/>
</g>
<!-- runner -->
<g id="node18" class="node">
<title>runner</title>
<path fill="#d9ead3" stroke="black" d="M612.5,-218.5C612.5,-218.5 536.5,-218.5 536.5,-218.5 530.5,-218.5 524.5,-212.5 524.5,-206.5 524.5,-206.5 524.5,-189.5 524.5,-189.5 524.5,-183.5 530.5,-177.5 536.5,-177.5 536.5,-177.5 612.5,-177.5 612.5,-177.5 618.5,-177.5 624.5,-183.5 624.5,-189.5 624.5,-189.5 624.5,-206.5 624.5,-206.5 624.5,-212.5 618.5,-218.5 612.5,-218.5"/>
<text text-anchor="middle" x="574.5" y="-206.5" font-family="DejaVu Sans" font-size="10.00">run_native()</text>
<text text-anchor="middle" x="574.5" y="-195.5" font-family="DejaVu Sans" font-size="10.00">mpirun/pflotran</text>
<text text-anchor="middle" x="574.5" y="-184.5" font-family="DejaVu Sans" font-size="10.00">лог выполнения</text>
</g>
<!-- entrypoint&#45;&gt;runner -->
<g id="edge21" class="edge">
<title>entrypoint&#45;&gt;runner</title>
<path fill="none" stroke="black" d="M1973.7,-939C1729.73,-939 1024,-939 1024,-939 1024,-939 1024,-187.75 1024,-187.75 1024,-187.75 634.75,-187.75 634.75,-187.75"/>
<polygon fill="black" stroke="black" points="634.75,-184.25 624.75,-187.75 634.75,-191.25 634.75,-184.25"/>
</g>
<!-- xlsx -->
<g id="node13" class="node">
<title>xlsx</title>
<path fill="#d9ead3" stroke="black" d="M651,-295C651,-295 498,-295 498,-295 492,-295 486,-289 486,-283 486,-283 486,-271 486,-271 486,-265 492,-259 498,-259 498,-259 651,-259 651,-259 657,-259 663,-265 663,-271 663,-271 663,-283 663,-283 663,-289 657,-295 651,-295"/>
<text text-anchor="middle" x="574.5" y="-280" font-family="DejaVu Sans" font-size="10.00">input/soilflow_pflotran_demo.xlsx</text>
<text text-anchor="middle" x="574.5" y="-269" font-family="DejaVu Sans" font-size="10.00">табличные исходные данные</text>
</g>
<!-- app&#45;&gt;xlsx -->
<g id="edge11" class="edge">
<title>app&#45;&gt;xlsx</title>
<path fill="none" stroke="black" d="M2285,-963.84C2285,-959.58 2285,-956.25 2285,-956.25 2285,-956.25 604,-956.25 604,-956.25 604,-956.25 604,-305.17 604,-305.17"/>
<polygon fill="black" stroke="black" points="607.5,-305.17 604,-295.17 600.5,-305.17 607.5,-305.17"/>
</g>
<!-- read -->
<g id="node14" class="node">
<title>read</title>
<path fill="#d9ead3" stroke="black" d="M938,-295C938,-295 875,-295 875,-295 869,-295 863,-289 863,-283 863,-283 863,-271 863,-271 863,-265 869,-259 875,-259 875,-259 938,-259 938,-259 944,-259 950,-265 950,-271 950,-271 950,-283 950,-283 950,-289 944,-295 938,-295"/>
<text text-anchor="middle" x="906.5" y="-280" font-family="DejaVu Sans" font-size="10.00">read_params()</text>
<text text-anchor="middle" x="906.5" y="-269" font-family="DejaVu Sans" font-size="10.00">read_weather()</text>
</g>
<!-- xlsx&#45;&gt;read -->
<g id="edge12" class="edge">
<title>xlsx&#45;&gt;read</title>
<path fill="none" stroke="black" d="M663.03,-277C663.03,-277 852.85,-277 852.85,-277"/>
<polygon fill="black" stroke="black" points="852.85,-280.5 862.85,-277 852.85,-273.5 852.85,-280.5"/>
</g>
<!-- derived -->
<g id="node15" class="node">
<title>derived</title>
<path fill="#d9ead3" stroke="black" d="M1176,-218.5C1176,-218.5 1095,-218.5 1095,-218.5 1089,-218.5 1083,-212.5 1083,-206.5 1083,-206.5 1083,-167.5 1083,-167.5 1083,-161.5 1089,-155.5 1095,-155.5 1095,-155.5 1176,-155.5 1176,-155.5 1182,-155.5 1188,-161.5 1188,-167.5 1188,-167.5 1188,-206.5 1188,-206.5 1188,-212.5 1182,-218.5 1176,-218.5"/>
<text text-anchor="middle" x="1135.5" y="-206.5" font-family="DejaVu Sans" font-size="10.00">compute_derived()</text>
<text text-anchor="middle" x="1135.5" y="-195.5" font-family="DejaVu Sans" font-size="10.00">θr/θs → Sr</text>
<text text-anchor="middle" x="1135.5" y="-184.5" font-family="DejaVu Sans" font-size="10.00">Ks → permeability</text>
<text text-anchor="middle" x="1135.5" y="-173.5" font-family="DejaVu Sans" font-size="10.00">α 1/m → α 1/Pa</text>
<text text-anchor="middle" x="1135.5" y="-162.5" font-family="DejaVu Sans" font-size="10.00">средний top flux</text>
</g>
<!-- read&#45;&gt;derived -->
<g id="edge13" class="edge">
<title>read&#45;&gt;derived</title>
<path fill="none" stroke="black" d="M907,-258.94C907,-238.57 907,-208.25 907,-208.25 907,-208.25 1072.79,-208.25 1072.79,-208.25"/>
<polygon fill="black" stroke="black" points="1072.79,-211.75 1082.79,-208.25 1072.79,-204.75 1072.79,-211.75"/>
</g>
<!-- write -->
<g id="node17" class="node">
<title>write</title>
<path fill="#d9ead3" stroke="black" d="M1179.5,-295C1179.5,-295 1091.5,-295 1091.5,-295 1085.5,-295 1079.5,-289 1079.5,-283 1079.5,-283 1079.5,-271 1079.5,-271 1079.5,-265 1085.5,-259 1091.5,-259 1091.5,-259 1179.5,-259 1179.5,-259 1185.5,-259 1191.5,-265 1191.5,-271 1191.5,-271 1191.5,-283 1191.5,-283 1191.5,-289 1185.5,-295 1179.5,-295"/>
<text text-anchor="middle" x="1135.5" y="-280" font-family="DejaVu Sans" font-size="10.00">write_weather_csv()</text>
<text text-anchor="middle" x="1135.5" y="-269" font-family="DejaVu Sans" font-size="10.00">write_summary()</text>
</g>
<!-- read&#45;&gt;write -->
<g id="edge15" class="edge">
<title>read&#45;&gt;write</title>
<path fill="none" stroke="black" d="M950.11,-277C950.11,-277 1069.46,-277 1069.46,-277"/>
<polygon fill="black" stroke="black" points="1069.46,-280.5 1079.46,-277 1069.46,-273.5 1069.46,-280.5"/>
</g>
<!-- generate -->
<g id="node16" class="node">
<title>generate</title>
<path fill="#d9ead3" stroke="black" d="M1484.5,-261.5C1484.5,-261.5 1372.5,-261.5 1372.5,-261.5 1366.5,-261.5 1360.5,-255.5 1360.5,-249.5 1360.5,-249.5 1360.5,-232.5 1360.5,-232.5 1360.5,-226.5 1366.5,-220.5 1372.5,-220.5 1372.5,-220.5 1484.5,-220.5 1484.5,-220.5 1490.5,-220.5 1496.5,-226.5 1496.5,-232.5 1496.5,-232.5 1496.5,-249.5 1496.5,-249.5 1496.5,-255.5 1490.5,-261.5 1484.5,-261.5"/>
<text text-anchor="middle" x="1428.5" y="-249.5" font-family="DejaVu Sans" font-size="10.00">generate_pflotran_input()</text>
<text text-anchor="middle" x="1428.5" y="-238.5" font-family="DejaVu Sans" font-size="10.00">PFLOTRAN input deck</text>
<text text-anchor="middle" x="1428.5" y="-227.5" font-family="DejaVu Sans" font-size="10.00">RICHARDS mode</text>
</g>
<!-- derived&#45;&gt;generate -->
<g id="edge14" class="edge">
<title>derived&#45;&gt;generate</title>
<path fill="none" stroke="black" d="M1188.21,-187C1255.69,-187 1364,-187 1364,-187 1364,-187 1364,-210.28 1364,-210.28"/>
<polygon fill="black" stroke="black" points="1360.5,-210.28 1364,-220.28 1367.5,-210.28 1360.5,-210.28"/>
</g>
<!-- infile -->
<g id="node23" class="node">
<title>infile</title>
<path fill="#f4cccc" stroke="black" d="M1181.5,-376C1181.5,-376 1089.5,-376 1089.5,-376 1083.5,-376 1077.5,-370 1077.5,-364 1077.5,-364 1077.5,-352 1077.5,-352 1077.5,-346 1083.5,-340 1089.5,-340 1089.5,-340 1181.5,-340 1181.5,-340 1187.5,-340 1193.5,-346 1193.5,-352 1193.5,-352 1193.5,-364 1193.5,-364 1193.5,-370 1187.5,-376 1181.5,-376"/>
<text text-anchor="middle" x="1135.5" y="-361" font-family="DejaVu Sans" font-size="10.00">pflotran.in</text>
<text text-anchor="middle" x="1135.5" y="-350" font-family="DejaVu Sans" font-size="10.00">основной input deck</text>
</g>
<!-- generate&#45;&gt;infile -->
<g id="edge16" class="edge">
<title>generate&#45;&gt;infile</title>
<path fill="none" stroke="black" d="M1406,-261.65C1406,-295.24 1406,-358 1406,-358 1406,-358 1203.53,-358 1203.53,-358"/>
<polygon fill="black" stroke="black" points="1203.53,-354.5 1193.53,-358 1203.53,-361.5 1203.53,-354.5"/>
</g>
<!-- forcing -->
<g id="node24" class="node">
<title>forcing</title>
<path fill="#f4cccc" stroke="black" d="M1179,-452C1179,-452 1092,-452 1092,-452 1086,-452 1080,-446 1080,-440 1080,-440 1080,-428 1080,-428 1080,-422 1086,-416 1092,-416 1092,-416 1179,-416 1179,-416 1185,-416 1191,-422 1191,-428 1191,-428 1191,-440 1191,-440 1191,-446 1185,-452 1179,-452"/>
<text text-anchor="middle" x="1135.5" y="-437" font-family="DejaVu Sans" font-size="10.00">forcing_daily.csv</text>
<text text-anchor="middle" x="1135.5" y="-426" font-family="DejaVu Sans" font-size="10.00">суточный форсинг</text>
</g>
<!-- write&#45;&gt;forcing -->
<g id="edge17" class="edge">
<title>write&#45;&gt;forcing</title>
<path fill="none" stroke="black" d="M1191.76,-283.83C1195.01,-283.83 1197,-283.83 1197,-283.83 1197,-283.83 1197,-428 1197,-428 1197,-428 1196.43,-428 1196.43,-428"/>
<polygon fill="black" stroke="black" points="1201.32,-424.5 1191.32,-428 1201.32,-431.5 1201.32,-424.5"/>
</g>
<!-- summary -->
<g id="node25" class="node">
<title>summary</title>
<path fill="#f4cccc" stroke="black" d="M1489,-452C1489,-452 1368,-452 1368,-452 1362,-452 1356,-446 1356,-440 1356,-440 1356,-428 1356,-428 1356,-422 1362,-416 1368,-416 1368,-416 1489,-416 1489,-416 1495,-416 1501,-422 1501,-428 1501,-428 1501,-440 1501,-440 1501,-446 1495,-452 1489,-452"/>
<text text-anchor="middle" x="1428.5" y="-437" font-family="DejaVu Sans" font-size="10.00">soilflow_run_summary.txt</text>
<text text-anchor="middle" x="1428.5" y="-426" font-family="DejaVu Sans" font-size="10.00">производные параметры</text>
</g>
<!-- write&#45;&gt;summary -->
<g id="edge18" class="edge">
<title>write&#45;&gt;summary</title>
<path fill="none" stroke="black" d="M1191.72,-272.67C1282.67,-272.67 1452,-272.67 1452,-272.67 1452,-272.67 1452,-405.81 1452,-405.81"/>
<polygon fill="black" stroke="black" points="1448.5,-405.81 1452,-415.81 1455.5,-405.81 1448.5,-405.81"/>
</g>
<!-- pflotran -->
<g id="node19" class="node">
<title>pflotran</title>
<path fill="#fce5cd" stroke="black" d="M980,-929.5C980,-929.5 833,-929.5 833,-929.5 827,-929.5 821,-923.5 821,-917.5 821,-917.5 821,-900.5 821,-900.5 821,-894.5 827,-888.5 833,-888.5 833,-888.5 980,-888.5 980,-888.5 986,-888.5 992,-894.5 992,-900.5 992,-900.5 992,-917.5 992,-917.5 992,-923.5 986,-929.5 980,-929.5"/>
<text text-anchor="middle" x="906.5" y="-917.5" font-family="DejaVu Sans" font-size="10.00">pflotran &#45;pflotranin pflotran.in</text>
<text text-anchor="middle" x="906.5" y="-906.5" font-family="DejaVu Sans" font-size="10.00">SIMULATION_TYPE SUBSURFACE</text>
<text text-anchor="middle" x="906.5" y="-895.5" font-family="DejaVu Sans" font-size="10.00">MODE RICHARDS</text>
</g>
<!-- runner&#45;&gt;pflotran -->
<g id="edge20" class="edge">
<title>runner&#45;&gt;pflotran</title>
<path fill="none" stroke="black" d="M624.67,-198C699.08,-198 830,-198 830,-198 830,-198 830,-878.49 830,-878.49"/>
<polygon fill="black" stroke="black" points="826.5,-878.49 830,-888.49 833.5,-878.49 826.5,-878.49"/>
<text text-anchor="middle" x="742" y="-618.8" font-family="DejaVu Sans" font-size="9.00">запуск</text>
</g>
<!-- fvm -->
<g id="node20" class="node">
<title>fvm</title>
<path fill="#fce5cd" stroke="black" d="M1204,-929.5C1204,-929.5 1067,-929.5 1067,-929.5 1061,-929.5 1055,-923.5 1055,-917.5 1055,-917.5 1055,-900.5 1055,-900.5 1055,-894.5 1061,-888.5 1067,-888.5 1067,-888.5 1204,-888.5 1204,-888.5 1210,-888.5 1216,-894.5 1216,-900.5 1216,-900.5 1216,-917.5 1216,-917.5 1216,-923.5 1210,-929.5 1204,-929.5"/>
<text text-anchor="middle" x="1135.5" y="-917.5" font-family="DejaVu Sans" font-size="10.00">FVM / integrated finite volume</text>
<text text-anchor="middle" x="1135.5" y="-906.5" font-family="DejaVu Sans" font-size="10.00">структурированная сетка</text>
<text text-anchor="middle" x="1135.5" y="-895.5" font-family="DejaVu Sans" font-size="10.00">1D/2D/3D через NXYZ</text>
</g>
<!-- pflotran&#45;&gt;fvm -->
<g id="edge22" class="edge">
<title>pflotran&#45;&gt;fvm</title>
<path fill="none" stroke="black" d="M992.1,-909C992.1,-909 1044.93,-909 1044.93,-909"/>
<polygon fill="black" stroke="black" points="1044.93,-912.5 1054.93,-909 1044.93,-905.5 1044.93,-912.5"/>
</g>
<!-- log -->
<g id="node26" class="node">
<title>log</title>
<path fill="#f4cccc" stroke="black" d="M1188.5,-604C1188.5,-604 1082.5,-604 1082.5,-604 1076.5,-604 1070.5,-598 1070.5,-592 1070.5,-592 1070.5,-580 1070.5,-580 1070.5,-574 1076.5,-568 1082.5,-568 1082.5,-568 1188.5,-568 1188.5,-568 1194.5,-568 1200.5,-574 1200.5,-580 1200.5,-580 1200.5,-592 1200.5,-592 1200.5,-598 1194.5,-604 1188.5,-604"/>
<text text-anchor="middle" x="1135.5" y="-589" font-family="DejaVu Sans" font-size="10.00">run_pflotran.log</text>
<text text-anchor="middle" x="1135.5" y="-578" font-family="DejaVu Sans" font-size="10.00">stdout/stderr PFLOTRAN</text>
</g>
<!-- pflotran&#45;&gt;log -->
<g id="edge25" class="edge">
<title>pflotran&#45;&gt;log</title>
<path fill="none" stroke="black" d="M988,-888.3C988,-817.01 988,-586 988,-586 988,-586 1060.37,-586 1060.37,-586"/>
<polygon fill="black" stroke="black" points="1060.38,-589.5 1070.37,-586 1060.37,-582.5 1060.38,-589.5"/>
</g>
<!-- tecplot -->
<g id="node27" class="node">
<title>tecplot</title>
<path fill="#f4cccc" stroke="black" d="M1179.5,-528C1179.5,-528 1091.5,-528 1091.5,-528 1085.5,-528 1079.5,-522 1079.5,-516 1079.5,-516 1079.5,-504 1079.5,-504 1079.5,-498 1085.5,-492 1091.5,-492 1091.5,-492 1179.5,-492 1179.5,-492 1185.5,-492 1191.5,-498 1191.5,-504 1191.5,-504 1191.5,-516 1191.5,-516 1191.5,-522 1185.5,-528 1179.5,-528"/>
<text text-anchor="middle" x="1135.5" y="-513" font-family="DejaVu Sans" font-size="10.00">PFLOTRAN output</text>
<text text-anchor="middle" x="1135.5" y="-502" font-family="DejaVu Sans" font-size="10.00">TECPLOT POINT files</text>
</g>
<!-- pflotran&#45;&gt;tecplot -->
<g id="edge26" class="edge">
<title>pflotran&#45;&gt;tecplot</title>
<path fill="none" stroke="black" d="M984,-888.39C984,-806.68 984,-510 984,-510 984,-510 1069.09,-510 1069.09,-510"/>
<polygon fill="black" stroke="black" points="1069.09,-513.5 1079.09,-510 1069.09,-506.5 1069.09,-513.5"/>
</g>
<!-- vg -->
<g id="node21" class="node">
<title>vg</title>
<path fill="#fce5cd" stroke="black" d="M1504,-924C1504,-924 1353,-924 1353,-924 1347,-924 1341,-918 1341,-912 1341,-912 1341,-900 1341,-900 1341,-894 1347,-888 1353,-888 1353,-888 1504,-888 1504,-888 1510,-888 1516,-894 1516,-900 1516,-900 1516,-912 1516,-912 1516,-918 1510,-924 1504,-924"/>
<text text-anchor="middle" x="1428.5" y="-909" font-family="DejaVu Sans" font-size="10.00">van Genuchten saturation</text>
<text text-anchor="middle" x="1428.5" y="-898" font-family="DejaVu Sans" font-size="10.00">Mualem VG relative permeability</text>
</g>
<!-- fvm&#45;&gt;vg -->
<g id="edge23" class="edge">
<title>fvm&#45;&gt;vg</title>
<path fill="none" stroke="black" d="M1216.34,-900.33C1216.34,-900.33 1330.99,-900.33 1330.99,-900.33"/>
<polygon fill="black" stroke="black" points="1330.99,-903.83 1340.99,-900.33 1330.99,-896.83 1330.99,-903.83"/>
</g>
<!-- bc -->
<g id="node22" class="node">
<title>bc</title>
<path fill="#fce5cd" stroke="black" d="M1533,-1005.5C1533,-1005.5 1324,-1005.5 1324,-1005.5 1318,-1005.5 1312,-999.5 1312,-993.5 1312,-993.5 1312,-976.5 1312,-976.5 1312,-970.5 1318,-964.5 1324,-964.5 1324,-964.5 1533,-964.5 1533,-964.5 1539,-964.5 1545,-970.5 1545,-976.5 1545,-976.5 1545,-993.5 1545,-993.5 1545,-999.5 1539,-1005.5 1533,-1005.5"/>
<text text-anchor="middle" x="1428.5" y="-993.5" font-family="DejaVu Sans" font-size="10.00">Boundary conditions</text>
<text text-anchor="middle" x="1428.5" y="-982.5" font-family="DejaVu Sans" font-size="10.00">верх: LIQUID_FLUX NEUMANN</text>
<text text-anchor="middle" x="1428.5" y="-971.5" font-family="DejaVu Sans" font-size="10.00">низ: hydrostatic / no&#45;flow / constant pressure</text>
</g>
<!-- fvm&#45;&gt;bc -->
<g id="edge24" class="edge">
<title>fvm&#45;&gt;bc</title>
<path fill="none" stroke="black" d="M1216.16,-912.17C1268.49,-912.17 1327,-912.17 1327,-912.17 1327,-912.17 1327,-954.32 1327,-954.32"/>
<polygon fill="black" stroke="black" points="1323.5,-954.32 1327,-964.32 1330.5,-954.32 1323.5,-954.32"/>
</g>
<!-- infile&#45;&gt;pflotran -->
<g id="edge19" class="edge">
<title>infile&#45;&gt;pflotran</title>
<path fill="none" stroke="black" d="M1077.23,-360.5C1032.73,-360.5 979,-360.5 979,-360.5 979,-360.5 979,-878.5 979,-878.5"/>
<polygon fill="black" stroke="black" points="975.5,-878.5 979,-888.5 982.5,-878.5 975.5,-878.5"/>
</g>
<!-- forcing&#45;&gt;summary -->
<g id="edge27" class="edge">
<title>forcing&#45;&gt;summary</title>
<path fill="none" stroke="black" stroke-dasharray="1,5" d="M1191.3,-440C1191.3,-440 1345.98,-440 1345.98,-440"/>
<polygon fill="black" stroke="black" points="1345.98,-443.5 1355.98,-440 1345.98,-436.5 1345.98,-443.5"/>
</g>
<!-- summary&#45;&gt;out_host -->
<g id="edge30" class="edge">
<title>summary&#45;&gt;out_host</title>
<path fill="none" stroke="black" d="M1460,-452.13C1460,-452.13 1460,-639.48 1460,-639.48"/>
<polygon fill="black" stroke="black" points="1456.5,-639.48 1460,-649.48 1463.5,-639.48 1456.5,-639.48"/>
</g>
<!-- log&#45;&gt;out_host -->
<g id="edge28" class="edge">
<title>log&#45;&gt;out_host</title>
<path fill="none" stroke="black" d="M1200.72,-586C1278.47,-586 1398,-586 1398,-586 1398,-586 1398,-639.24 1398,-639.24"/>
<polygon fill="black" stroke="black" points="1394.5,-639.24 1398,-649.24 1401.5,-639.24 1394.5,-639.24"/>
<text text-anchor="middle" x="1264" y="-630.8" font-family="DejaVu Sans" font-size="9.00">volume</text>
</g>
<!-- tecplot&#45;&gt;out_host -->
<g id="edge29" class="edge">
<title>tecplot&#45;&gt;out_host</title>
<path fill="none" stroke="black" d="M1191.74,-510C1276.97,-510 1429,-510 1429,-510 1429,-510 1429,-639.41 1429,-639.41"/>
<polygon fill="black" stroke="black" points="1425.5,-639.41 1429,-649.41 1432.5,-639.41 1425.5,-639.41"/>
<text text-anchor="middle" x="1264" y="-543.8" font-family="DejaVu Sans" font-size="9.00">volume</text>
</g>
<!-- et -->
<g id="node28" class="node">
<title>et</title>
<path fill="#eeeeee" stroke="black" stroke-dasharray="5,2" d="M240,-153C240,-153 139,-153 139,-153 133,-153 127,-147 127,-141 127,-141 127,-129 127,-129 127,-123 133,-117 139,-117 139,-117 240,-117 240,-117 246,-117 252,-123 252,-129 252,-129 252,-141 252,-141 252,-147 246,-153 240,-153"/>
<text text-anchor="middle" x="189.5" y="-138" font-family="DejaVu Sans" font-size="10.00">внешняя ET/T&#45;модель</text>
<text text-anchor="middle" x="189.5" y="-127" font-family="DejaVu Sans" font-size="10.00">Epot, Tpot, Zroot</text>
</g>
<!-- et&#45;&gt;xlsx -->
<g id="edge32" class="edge">
<title>et&#45;&gt;xlsx</title>
<path fill="none" stroke="black" stroke-dasharray="5,2" d="M252.03,-141C344.27,-141 506,-141 506,-141 506,-141 506,-248.94 506,-248.94"/>
<polygon fill="black" stroke="black" points="502.5,-248.94 506,-258.94 509.5,-248.94 502.5,-248.94"/>
<text text-anchor="middle" x="428.5" y="-184.8" font-family="DejaVu Sans" font-size="9.00">параметры</text>
</g>
<!-- et&#45;&gt;derived -->
<g id="edge37" class="edge">
<title>et&#45;&gt;derived</title>
<path fill="none" stroke="black" stroke-dasharray="5,2" d="M252.34,-129C463.73,-129 1136,-129 1136,-129 1136,-129 1136,-145.28 1136,-145.28"/>
<polygon fill="black" stroke="black" points="1132.5,-145.28 1136,-155.28 1139.5,-145.28 1132.5,-145.28"/>
<text text-anchor="middle" x="742" y="-118.8" font-family="DejaVu Sans" font-size="9.00">пока: Epot в top flux</text>
</g>
<!-- roots -->
<g id="node29" class="node">
<title>roots</title>
<path fill="#eeeeee" stroke="black" stroke-dasharray="5,2" d="M212.5,-457C212.5,-457 166.5,-457 166.5,-457 160.5,-457 154.5,-451 154.5,-445 154.5,-445 154.5,-433 154.5,-433 154.5,-427 160.5,-421 166.5,-421 166.5,-421 212.5,-421 212.5,-421 218.5,-421 224.5,-427 224.5,-433 224.5,-433 224.5,-445 224.5,-445 224.5,-451 218.5,-457 212.5,-457"/>
<text text-anchor="middle" x="189.5" y="-442" font-family="DejaVu Sans" font-size="10.00">root uptake</text>
<text text-anchor="middle" x="189.5" y="-431" font-family="DejaVu Sans" font-size="10.00">Sroot[cell,t]</text>
</g>
<!-- roots&#45;&gt;xlsx -->
<g id="edge33" class="edge">
<title>roots&#45;&gt;xlsx</title>
<path fill="none" stroke="black" stroke-dasharray="5,2" d="M224.56,-436.5C314.25,-436.5 545,-436.5 545,-436.5 545,-436.5 545,-305.3 545,-305.3"/>
<polygon fill="black" stroke="black" points="548.5,-305.3 545,-295.3 541.5,-305.3 548.5,-305.3"/>
<text text-anchor="middle" x="428.5" y="-430.8" font-family="DejaVu Sans" font-size="9.00">параметры</text>
</g>
<!-- irr -->
<g id="node30" class="node">
<title>irr</title>
<path fill="#eeeeee" stroke="black" stroke-dasharray="5,2" d="M268,-381C268,-381 111,-381 111,-381 105,-381 99,-375 99,-369 99,-369 99,-357 99,-357 99,-351 105,-345 111,-345 111,-345 268,-345 268,-345 274,-345 280,-351 280,-357 280,-357 280,-369 280,-369 280,-375 274,-381 268,-381"/>
<text text-anchor="middle" x="189.5" y="-366" font-family="DejaVu Sans" font-size="10.00">полив</text>
<text text-anchor="middle" x="189.5" y="-355" font-family="DejaVu Sans" font-size="10.00">события, интенсивность, норма</text>
</g>
<!-- irr&#45;&gt;xlsx -->
<g id="edge34" class="edge">
<title>irr&#45;&gt;xlsx</title>
<path fill="none" stroke="black" stroke-dasharray="5,2" d="M258,-344.83C258,-322.16 258,-286.33 258,-286.33 258,-286.33 475.92,-286.33 475.92,-286.33"/>
<polygon fill="black" stroke="black" points="475.92,-289.83 485.92,-286.33 475.92,-282.83 475.92,-289.83"/>
<text text-anchor="middle" x="428.5" y="-359.8" font-family="DejaVu Sans" font-size="9.00">параметры</text>
</g>
<!-- drain -->
<g id="node31" class="node">
<title>drain</title>
<path fill="#eeeeee" stroke="black" stroke-dasharray="5,2" d="M234.5,-305C234.5,-305 144.5,-305 144.5,-305 138.5,-305 132.5,-299 132.5,-293 132.5,-293 132.5,-281 132.5,-281 132.5,-275 138.5,-269 144.5,-269 144.5,-269 234.5,-269 234.5,-269 240.5,-269 246.5,-275 246.5,-281 246.5,-281 246.5,-293 246.5,-293 246.5,-299 240.5,-305 234.5,-305"/>
<text text-anchor="middle" x="189.5" y="-290" font-family="DejaVu Sans" font-size="10.00">дренаж</text>
<text text-anchor="middle" x="189.5" y="-279" font-family="DejaVu Sans" font-size="10.00">linear sink / drain BC</text>
</g>
<!-- drain&#45;&gt;xlsx -->
<g id="edge35" class="edge">
<title>drain&#45;&gt;xlsx</title>
<path fill="none" stroke="black" stroke-dasharray="5,2" d="M246.72,-277.67C246.72,-277.67 475.87,-277.67 475.87,-277.67"/>
<polygon fill="black" stroke="black" points="475.87,-281.17 485.87,-277.67 475.87,-274.17 475.87,-281.17"/>
<text text-anchor="middle" x="428.5" y="-294.8" font-family="DejaVu Sans" font-size="9.00">параметры</text>
</g>
<!-- gw -->
<g id="node32" class="node">
<title>gw</title>
<path fill="#eeeeee" stroke="black" stroke-dasharray="5,2" d="M266.5,-229C266.5,-229 112.5,-229 112.5,-229 106.5,-229 100.5,-223 100.5,-217 100.5,-217 100.5,-205 100.5,-205 100.5,-199 106.5,-193 112.5,-193 112.5,-193 266.5,-193 266.5,-193 272.5,-193 278.5,-199 278.5,-205 278.5,-205 278.5,-217 278.5,-217 278.5,-223 272.5,-229 266.5,-229"/>
<text text-anchor="middle" x="189.5" y="-214" font-family="DejaVu Sans" font-size="10.00">динамические грунтовые воды</text>
<text text-anchor="middle" x="189.5" y="-203" font-family="DejaVu Sans" font-size="10.00">Hgw(t) / reservoir</text>
</g>
<!-- gw&#45;&gt;xlsx -->
<g id="edge36" class="edge">
<title>gw&#45;&gt;xlsx</title>
<path fill="none" stroke="black" stroke-dasharray="5,2" d="M268,-229.24C268,-244.57 268,-264 268,-264 268,-264 475.85,-264 475.85,-264"/>
<polygon fill="black" stroke="black" points="475.85,-267.5 485.85,-264 475.85,-260.5 475.85,-267.5"/>
<text text-anchor="middle" x="428.5" y="-239.8" font-family="DejaVu Sans" font-size="9.00">параметры</text>
</g>
</g>
</svg>
