<?xml version="1.0" encoding="UTF-8" standalone="no"?>
<!DOCTYPE svg PUBLIC "-//W3C//DTD SVG 1.1//EN"
 "http://www.w3.org/Graphics/SVG/1.1/DTD/svg11.dtd">
<!-- Generated by graphviz version 2.42.4 (0)
 -->
<!-- Title: soilflow_data_contract Pages: 1 -->
<svg width="1393pt" height="775pt"
 viewBox="0.00 0.00 1393.00 775.00" xmlns="http://www.w3.org/2000/svg" xmlns:xlink="http://www.w3.org/1999/xlink">
<g id="graph0" class="graph" transform="scale(1 1) rotate(0) translate(4 771)">
<title>soilflow_data_contract</title>
<polygon fill="white" stroke="transparent" points="-4,4 -4,-771 1389,-771 1389,4 -4,4"/>
<text text-anchor="middle" x="692.5" y="-752.6" font-family="DejaVu Sans" font-size="13.00">Контракт данных XLSX → Python&#45;адаптер → PFLOTRAN input/output</text>
<g id="clust1" class="cluster">
<title>cluster_xlsx</title>
<path fill="none" stroke="#93c47d" d="M20,-10C20,-10 194,-10 194,-10 200,-10 206,-16 206,-22 206,-22 206,-725 206,-725 206,-731 200,-737 194,-737 194,-737 20,-737 20,-737 14,-737 8,-731 8,-725 8,-725 8,-22 8,-22 8,-16 14,-10 20,-10"/>
<text text-anchor="middle" x="107" y="-723.4" font-family="DejaVu Sans" font-size="12.00">XLSX исходные данные</text>
</g>
<g id="clust2" class="cluster">
<title>cluster_py</title>
<path fill="none" stroke="#6fa8dc" d="M387,-229C387,-229 927,-229 927,-229 933,-229 939,-235 939,-241 939,-241 939,-362 939,-362 939,-368 933,-374 927,-374 927,-374 387,-374 387,-374 381,-374 375,-368 375,-362 375,-362 375,-241 375,-241 375,-235 381,-229 387,-229"/>
<text text-anchor="middle" x="657" y="-360.4" font-family="DejaVu Sans" font-size="12.00">Python mapping layer</text>
</g>
<g id="clust3" class="cluster">
<title>cluster_pf</title>
<path fill="none" stroke="#e69138" d="M994,-149C994,-149 1168,-149 1168,-149 1174,-149 1180,-155 1180,-161 1180,-161 1180,-664 1180,-664 1180,-670 1174,-676 1168,-676 1168,-676 994,-676 994,-676 988,-676 982,-670 982,-664 982,-664 982,-161 982,-161 982,-155 988,-149 994,-149"/>
<text text-anchor="middle" x="1081" y="-662.4" font-family="DejaVu Sans" font-size="12.00">PFLOTRAN input deck</text>
</g>
<g id="clust4" class="cluster">
<title>cluster_out</title>
<path fill="none" stroke="#cc0000" d="M1235,-8C1235,-8 1365,-8 1365,-8 1371,-8 1377,-14 1377,-20 1377,-20 1377,-285 1377,-285 1377,-291 1371,-297 1365,-297 1365,-297 1235,-297 1235,-297 1229,-297 1223,-291 1223,-285 1223,-285 1223,-20 1223,-20 1223,-14 1229,-8 1235,-8"/>
<text text-anchor="middle" x="1300" y="-283.4" font-family="DejaVu Sans" font-size="12.00">Output / diagnostics</text>
</g>
<!-- s01 -->
<g id="node1" class="node">
<title>s01</title>
<path fill="#d9ead3" stroke="black" d="M155,-414C155,-414 59,-414 59,-414 53,-414 47,-408 47,-402 47,-402 47,-390 47,-390 47,-384 53,-378 59,-378 59,-378 155,-378 155,-378 161,-378 167,-384 167,-390 167,-390 167,-402 167,-402 167,-408 161,-414 155,-414"/>
<text text-anchor="middle" x="107" y="-399" font-family="DejaVu Sans" font-size="10.00">01_Project</text>
<text text-anchor="middle" x="107" y="-388" font-family="DejaVu Sans" font-size="10.00">имя проекта, режим</text>
</g>
<!-- params -->
<g id="node11" class="node">
<title>params</title>
<path fill="#cfe2f3" stroke="black" d="M465,-345C465,-345 395,-345 395,-345 389,-345 383,-339 383,-333 383,-333 383,-321 383,-321 383,-315 389,-309 395,-309 395,-309 465,-309 465,-309 471,-309 477,-315 477,-321 477,-321 477,-333 477,-333 477,-339 471,-345 465,-345"/>
<text text-anchor="middle" x="430" y="-330" font-family="DejaVu Sans" font-size="10.00">params dict</text>
<text text-anchor="middle" x="430" y="-319" font-family="DejaVu Sans" font-size="10.00">CONFIG_SHEETS</text>
</g>
<!-- s01&#45;&gt;params -->
<g id="edge1" class="edge">
<title>s01&#45;&gt;params</title>
<path fill="none" stroke="black" d="M167.15,-394C252.63,-394 399,-394 399,-394 399,-394 399,-355.31 399,-355.31"/>
<polygon fill="black" stroke="black" points="402.5,-355.31 399,-345.31 395.5,-355.31 402.5,-355.31"/>
</g>
<!-- s02 -->
<g id="node2" class="node">
<title>s02</title>
<path fill="#d9ead3" stroke="black" d="M184,-342C184,-342 30,-342 30,-342 24,-342 18,-336 18,-330 18,-330 18,-318 18,-318 18,-312 24,-306 30,-306 30,-306 184,-306 184,-306 190,-306 196,-312 196,-318 196,-318 196,-330 196,-330 196,-336 190,-342 184,-342"/>
<text text-anchor="middle" x="107" y="-327" font-family="DejaVu Sans" font-size="10.00">02_Domain</text>
<text text-anchor="middle" x="107" y="-316" font-family="DejaVu Sans" font-size="10.00">размерность, Lx,Ly,Dz, Nx,Ny,Nz</text>
</g>
<!-- s02&#45;&gt;params -->
<g id="edge2" class="edge">
<title>s02&#45;&gt;params</title>
<path fill="none" stroke="black" d="M196.12,-325.5C196.12,-325.5 372.57,-325.5 372.57,-325.5"/>
<polygon fill="black" stroke="black" points="372.57,-329 382.57,-325.5 372.57,-322 372.57,-329"/>
</g>
<!-- s03 -->
<g id="node3" class="node">
<title>s03</title>
<path fill="#d9ead3" stroke="black" d="M165,-708C165,-708 49,-708 49,-708 43,-708 37,-702 37,-696 37,-696 37,-684 37,-684 37,-678 43,-672 49,-672 49,-672 165,-672 165,-672 171,-672 177,-678 177,-684 177,-684 177,-696 177,-696 177,-702 171,-708 165,-708"/>
<text text-anchor="middle" x="107" y="-693" font-family="DejaVu Sans" font-size="10.00">03_Soil</text>
<text text-anchor="middle" x="107" y="-682" font-family="DejaVu Sans" font-size="10.00">θs, θr, α, n, Ks, anisotropy</text>
</g>
<!-- s03&#45;&gt;params -->
<g id="edge3" class="edge">
<title>s03&#45;&gt;params</title>
<path fill="none" stroke="black" d="M177.14,-690C280.59,-690 462,-690 462,-690 462,-690 462,-355 462,-355"/>
<polygon fill="black" stroke="black" points="465.5,-355 462,-345 458.5,-355 465.5,-355"/>
</g>
<!-- s04 -->
<g id="node4" class="node">
<title>s04</title>
<path fill="#d9ead3" stroke="black" d="M156.5,-635.5C156.5,-635.5 57.5,-635.5 57.5,-635.5 51.5,-635.5 45.5,-629.5 45.5,-623.5 45.5,-623.5 45.5,-606.5 45.5,-606.5 45.5,-600.5 51.5,-594.5 57.5,-594.5 57.5,-594.5 156.5,-594.5 156.5,-594.5 162.5,-594.5 168.5,-600.5 168.5,-606.5 168.5,-606.5 168.5,-623.5 168.5,-623.5 168.5,-629.5 162.5,-635.5 156.5,-635.5"/>
<text text-anchor="middle" x="107" y="-623.5" font-family="DejaVu Sans" font-size="10.00">04_Initial_BC</text>
<text text-anchor="middle" x="107" y="-612.5" font-family="DejaVu Sans" font-size="10.00">начальное давление</text>
<text text-anchor="middle" x="107" y="-601.5" font-family="DejaVu Sans" font-size="10.00">нижняя граница</text>
</g>
<!-- s04&#45;&gt;params -->
<g id="edge4" class="edge">
<title>s04&#45;&gt;params</title>
<path fill="none" stroke="black" d="M168.78,-602.75C266.56,-602.75 446,-602.75 446,-602.75 446,-602.75 446,-355.09 446,-355.09"/>
<polygon fill="black" stroke="black" points="449.5,-355.09 446,-345.09 442.5,-355.09 449.5,-355.09"/>
</g>
<!-- s05 -->
<g id="node5" class="node">
<title>s05</title>
<path fill="#d9ead3" stroke="black" d="M145,-558C145,-558 69,-558 69,-558 63,-558 57,-552 57,-546 57,-546 57,-534 57,-534 57,-528 63,-522 69,-522 69,-522 145,-522 145,-522 151,-522 157,-528 157,-534 157,-534 157,-546 157,-546 157,-552 151,-558 145,-558"/>
<text text-anchor="middle" x="107" y="-543" font-family="DejaVu Sans" font-size="10.00">05_Time_Forcing</text>
<text text-anchor="middle" x="107" y="-532" font-family="DejaVu Sans" font-size="10.00">период, timestep</text>
</g>
<!-- s05&#45;&gt;params -->
<g id="edge5" class="edge">
<title>s05&#45;&gt;params</title>
<path fill="none" stroke="black" d="M157.11,-527.75C247.84,-527.75 430,-527.75 430,-527.75 430,-527.75 430,-355.17 430,-355.17"/>
<polygon fill="black" stroke="black" points="433.5,-355.17 430,-345.17 426.5,-355.17 433.5,-355.17"/>
</g>
<!-- s06 -->
<g id="node6" class="node">
<title>s06</title>
<path fill="#eeeeee" stroke="black" stroke-dasharray="5,2" d="M157,-198C157,-198 57,-198 57,-198 51,-198 45,-192 45,-186 45,-186 45,-174 45,-174 45,-168 51,-162 57,-162 57,-162 157,-162 157,-162 163,-162 169,-168 169,-174 169,-174 169,-186 169,-186 169,-192 163,-198 157,-198"/>
<text text-anchor="middle" x="107" y="-183" font-family="DejaVu Sans" font-size="10.00">06_ET_Roots</text>
<text text-anchor="middle" x="107" y="-172" font-family="DejaVu Sans" font-size="10.00">Epot/Tpot/root contract</text>
</g>
<!-- weather -->
<g id="node12" class="node">
<title>weather</title>
<path fill="#cfe2f3" stroke="black" d="M457.5,-273C457.5,-273 402.5,-273 402.5,-273 396.5,-273 390.5,-267 390.5,-261 390.5,-261 390.5,-249 390.5,-249 390.5,-243 396.5,-237 402.5,-237 402.5,-237 457.5,-237 457.5,-237 463.5,-237 469.5,-243 469.5,-249 469.5,-249 469.5,-261 469.5,-261 469.5,-267 463.5,-273 457.5,-273"/>
<text text-anchor="middle" x="430" y="-258" font-family="DejaVu Sans" font-size="10.00">weather rows</text>
<text text-anchor="middle" x="430" y="-247" font-family="DejaVu Sans" font-size="10.00">forcing table</text>
</g>
<!-- s06&#45;&gt;weather -->
<g id="edge8" class="edge">
<title>s06&#45;&gt;weather</title>
<path fill="none" stroke="black" stroke-dasharray="5,2" d="M169.16,-172.33C257.03,-172.33 407,-172.33 407,-172.33 407,-172.33 407,-226.65 407,-226.65"/>
<polygon fill="black" stroke="black" points="403.5,-226.65 407,-236.65 410.5,-226.65 403.5,-226.65"/>
<text text-anchor="middle" x="290.5" y="-211.8" font-family="DejaVu Sans" font-size="9.00">Epot/Tpot пока как данные</text>
</g>
<!-- s07 -->
<g id="node7" class="node">
<title>s07</title>
<path fill="#eeeeee" stroke="black" stroke-dasharray="5,2" d="M162,-126C162,-126 52,-126 52,-126 46,-126 40,-120 40,-114 40,-114 40,-102 40,-102 40,-96 46,-90 52,-90 52,-90 162,-90 162,-90 168,-90 174,-96 174,-102 174,-102 174,-114 174,-114 174,-120 168,-126 162,-126"/>
<text text-anchor="middle" x="107" y="-111" font-family="DejaVu Sans" font-size="10.00">07_Irrigation_Drainage</text>
<text text-anchor="middle" x="107" y="-100" font-family="DejaVu Sans" font-size="10.00">полив, дренаж contract</text>
</g>
<!-- s07&#45;&gt;weather -->
<g id="edge9" class="edge">
<title>s07&#45;&gt;weather</title>
<path fill="none" stroke="black" stroke-dasharray="5,2" d="M174.02,-107C266.77,-107 423,-107 423,-107 423,-107 423,-226.85 423,-226.85"/>
<polygon fill="black" stroke="black" points="419.5,-226.85 423,-236.85 426.5,-226.85 419.5,-226.85"/>
<text text-anchor="middle" x="290.5" y="-140.8" font-family="DejaVu Sans" font-size="9.00">irrigation пока как данные</text>
</g>
<!-- s08 -->
<g id="node8" class="node">
<title>s08</title>
<path fill="#eeeeee" stroke="black" stroke-dasharray="5,2" d="M169,-54C169,-54 45,-54 45,-54 39,-54 33,-48 33,-42 33,-42 33,-30 33,-30 33,-24 39,-18 45,-18 45,-18 169,-18 169,-18 175,-18 181,-24 181,-30 181,-30 181,-42 181,-42 181,-48 175,-54 169,-54"/>
<text text-anchor="middle" x="107" y="-39" font-family="DejaVu Sans" font-size="10.00">08_Groundwater</text>
<text text-anchor="middle" x="107" y="-28" font-family="DejaVu Sans" font-size="10.00">динамические ГВ contract</text>
</g>
<!-- s08&#45;&gt;weather -->
<g id="edge10" class="edge">
<title>s08&#45;&gt;weather</title>
<path fill="none" stroke="black" stroke-dasharray="5,2" d="M181.28,-40.67C278.87,-40.67 438,-40.67 438,-40.67 438,-40.67 438,-226.73 438,-226.73"/>
<polygon fill="black" stroke="black" points="434.5,-226.73 438,-236.73 441.5,-226.73 434.5,-226.73"/>
<text text-anchor="middle" x="290.5" y="-49.8" font-family="DejaVu Sans" font-size="9.00">Hgw пока как данные</text>
</g>
<!-- s09 -->
<g id="node9" class="node">
<title>s09</title>
<path fill="#d9ead3" stroke="black" d="M186,-486C186,-486 28,-486 28,-486 22,-486 16,-480 16,-474 16,-474 16,-462 16,-462 16,-456 22,-450 28,-450 28,-450 186,-450 186,-450 192,-450 198,-456 198,-462 198,-462 198,-474 198,-474 198,-480 192,-486 186,-486"/>
<text text-anchor="middle" x="107" y="-471" font-family="DejaVu Sans" font-size="10.00">09_Solver</text>
<text text-anchor="middle" x="107" y="-460" font-family="DejaVu Sans" font-size="10.00">mpi_processes, PFLOTRAN options</text>
</g>
<!-- s09&#45;&gt;params -->
<g id="edge6" class="edge">
<title>s09&#45;&gt;params</title>
<path fill="none" stroke="black" d="M198.16,-466.33C288.98,-466.33 415,-466.33 415,-466.33 415,-466.33 415,-355.22 415,-355.22"/>
<polygon fill="black" stroke="black" points="418.5,-355.22 415,-345.22 411.5,-355.22 418.5,-355.22"/>
</g>
<!-- s10 -->
<g id="node10" class="node">
<title>s10</title>
<path fill="#d9ead3" stroke="black" d="M171,-270C171,-270 43,-270 43,-270 37,-270 31,-264 31,-258 31,-258 31,-246 31,-246 31,-240 37,-234 43,-234 43,-234 171,-234 171,-234 177,-234 183,-240 183,-246 183,-246 183,-258 183,-258 183,-264 177,-270 171,-270"/>
<text text-anchor="middle" x="107" y="-255" font-family="DejaVu Sans" font-size="10.00">10_Weather_Daily</text>
<text text-anchor="middle" x="107" y="-244" font-family="DejaVu Sans" font-size="10.00">P, irrigation, Epot, Tpot, Hgw</text>
</g>
<!-- s10&#45;&gt;weather -->
<g id="edge7" class="edge">
<title>s10&#45;&gt;weather</title>
<path fill="none" stroke="black" d="M183.14,-253.5C183.14,-253.5 380.22,-253.5 380.22,-253.5"/>
<polygon fill="black" stroke="black" points="380.22,-257 390.22,-253.5 380.22,-250 380.22,-257"/>
</g>
<!-- derived2 -->
<g id="node13" class="node">
<title>derived2</title>
<path fill="#cfe2f3" stroke="black" d="M679,-291C679,-291 548,-291 548,-291 542,-291 536,-285 536,-279 536,-279 536,-267 536,-267 536,-261 542,-255 548,-255 548,-255 679,-255 679,-255 685,-255 691,-261 691,-267 691,-267 691,-279 691,-279 691,-285 685,-291 679,-291"/>
<text text-anchor="middle" x="613.5" y="-276" font-family="DejaVu Sans" font-size="10.00">Derived dataclass</text>
<text text-anchor="middle" x="613.5" y="-265" font-family="DejaVu Sans" font-size="10.00">Sr, m, αPa⁻¹, perm X/Y/Z, flux</text>
</g>
<!-- params&#45;&gt;derived2 -->
<g id="edge11" class="edge">
<title>params&#45;&gt;derived2</title>
<path fill="none" stroke="black" d="M474,-308.96C474,-296.44 474,-282 474,-282 474,-282 526,-282 526,-282"/>
<polygon fill="black" stroke="black" points="526,-285.5 536,-282 526,-278.5 526,-285.5"/>
</g>
<!-- weather&#45;&gt;derived2 -->
<g id="edge12" class="edge">
<title>weather&#45;&gt;derived2</title>
<path fill="none" stroke="black" d="M469.82,-264C469.82,-264 525.66,-264 525.66,-264"/>
<polygon fill="black" stroke="black" points="525.66,-267.5 535.66,-264 525.66,-260.5 525.66,-267.5"/>
</g>
<!-- csv -->
<g id="node22" class="node">
<title>csv</title>
<path fill="#f4cccc" stroke="black" d="M1335,-52C1335,-52 1265,-52 1265,-52 1259,-52 1253,-46 1253,-40 1253,-40 1253,-28 1253,-28 1253,-22 1259,-16 1265,-16 1265,-16 1335,-16 1335,-16 1341,-16 1347,-22 1347,-28 1347,-28 1347,-40 1347,-40 1347,-46 1341,-52 1335,-52"/>
<text text-anchor="middle" x="1300" y="-31.5" font-family="DejaVu Sans" font-size="10.00">forcing_daily.csv</text>
</g>
<!-- weather&#45;&gt;csv -->
<g id="edge21" class="edge">
<title>weather&#45;&gt;csv</title>
<path fill="none" stroke="black" d="M454,-236.91C454,-183.36 454,-29.33 454,-29.33 454,-29.33 1242.7,-29.33 1242.7,-29.33"/>
<polygon fill="black" stroke="black" points="1242.7,-32.83 1252.7,-29.33 1242.7,-25.83 1242.7,-32.83"/>
</g>
<!-- inputdeck -->
<g id="node14" class="node">
<title>inputdeck</title>
<path fill="#cfe2f3" stroke="black" d="M919,-345C919,-345 762,-345 762,-345 756,-345 750,-339 750,-333 750,-333 750,-321 750,-321 750,-315 756,-309 762,-309 762,-309 919,-309 919,-309 925,-309 931,-315 931,-321 931,-321 931,-333 931,-333 931,-339 925,-345 919,-345"/>
<text text-anchor="middle" x="840.5" y="-330" font-family="DejaVu Sans" font-size="10.00">PFLOTRAN input text</text>
<text text-anchor="middle" x="840.5" y="-319" font-family="DejaVu Sans" font-size="10.00">SIMULATION/SUBSURFACE/GRID/...</text>
</g>
<!-- derived2&#45;&gt;inputdeck -->
<g id="edge13" class="edge">
<title>derived2&#45;&gt;inputdeck</title>
<path fill="none" stroke="black" d="M614,-291.28C614,-306.95 614,-327 614,-327 614,-327 739.68,-327 739.68,-327"/>
<polygon fill="black" stroke="black" points="739.68,-330.5 749.68,-327 739.68,-323.5 739.68,-330.5"/>
</g>
<!-- sum2 -->
<g id="node23" class="node">
<title>sum2</title>
<path fill="#f4cccc" stroke="black" d="M1357,-124C1357,-124 1243,-124 1243,-124 1237,-124 1231,-118 1231,-112 1231,-112 1231,-100 1231,-100 1231,-94 1237,-88 1243,-88 1243,-88 1357,-88 1357,-88 1363,-88 1369,-94 1369,-100 1369,-100 1369,-112 1369,-112 1369,-118 1363,-124 1357,-124"/>
<text text-anchor="middle" x="1300" y="-103.5" font-family="DejaVu Sans" font-size="10.00">soilflow_run_summary.txt</text>
</g>
<!-- derived2&#45;&gt;sum2 -->
<g id="edge22" class="edge">
<title>derived2&#45;&gt;sum2</title>
<path fill="none" stroke="black" d="M691.27,-280.75C858.03,-280.75 1235,-280.75 1235,-280.75 1235,-280.75 1235,-134.04 1235,-134.04"/>
<polygon fill="black" stroke="black" points="1238.5,-134.04 1235,-124.04 1231.5,-134.04 1238.5,-134.04"/>
</g>
<!-- grid -->
<g id="node15" class="node">
<title>grid</title>
<path fill="#fce5cd" stroke="black" d="M1113.5,-497.5C1113.5,-497.5 1048.5,-497.5 1048.5,-497.5 1042.5,-497.5 1036.5,-491.5 1036.5,-485.5 1036.5,-485.5 1036.5,-468.5 1036.5,-468.5 1036.5,-462.5 1042.5,-456.5 1048.5,-456.5 1048.5,-456.5 1113.5,-456.5 1113.5,-456.5 1119.5,-456.5 1125.5,-462.5 1125.5,-468.5 1125.5,-468.5 1125.5,-485.5 1125.5,-485.5 1125.5,-491.5 1119.5,-497.5 1113.5,-497.5"/>
<text text-anchor="middle" x="1081" y="-485.5" font-family="DejaVu Sans" font-size="10.00">GRID</text>
<text text-anchor="middle" x="1081" y="-474.5" font-family="DejaVu Sans" font-size="10.00">TYPE structured</text>
<text text-anchor="middle" x="1081" y="-463.5" font-family="DejaVu Sans" font-size="10.00">NXYZ / DXYZ</text>
</g>
<!-- inputdeck&#45;&gt;grid -->
<g id="edge14" class="edge">
<title>inputdeck&#45;&gt;grid</title>
<path fill="none" stroke="black" d="M841,-345.29C841,-385.12 841,-476.17 841,-476.17 841,-476.17 1026.42,-476.17 1026.42,-476.17"/>
<polygon fill="black" stroke="black" points="1026.42,-479.67 1036.42,-476.17 1026.42,-472.67 1026.42,-479.67"/>
</g>
<!-- mat -->
<g id="node16" class="node">
<title>mat</title>
<path fill="#fce5cd" stroke="black" d="M1138,-420C1138,-420 1024,-420 1024,-420 1018,-420 1012,-414 1012,-408 1012,-408 1012,-396 1012,-396 1012,-390 1018,-384 1024,-384 1024,-384 1138,-384 1138,-384 1144,-384 1150,-390 1150,-396 1150,-396 1150,-408 1150,-408 1150,-414 1144,-420 1138,-420"/>
<text text-anchor="middle" x="1081" y="-405" font-family="DejaVu Sans" font-size="10.00">MATERIAL_PROPERTY</text>
<text text-anchor="middle" x="1081" y="-394" font-family="DejaVu Sans" font-size="10.00">POROSITY, PERMEABILITY</text>
</g>
<!-- inputdeck&#45;&gt;mat -->
<g id="edge15" class="edge">
<title>inputdeck&#45;&gt;mat</title>
<path fill="none" stroke="black" d="M886,-345.25C886,-368.02 886,-404 886,-404 886,-404 1001.98,-404 1001.98,-404"/>
<polygon fill="black" stroke="black" points="1001.98,-407.5 1011.98,-404 1001.98,-400.5 1001.98,-407.5"/>
</g>
<!-- cc -->
<g id="node17" class="node">
<title>cc</title>
<path fill="#fce5cd" stroke="black" d="M1140,-347.5C1140,-347.5 1022,-347.5 1022,-347.5 1016,-347.5 1010,-341.5 1010,-335.5 1010,-335.5 1010,-318.5 1010,-318.5 1010,-312.5 1016,-306.5 1022,-306.5 1022,-306.5 1140,-306.5 1140,-306.5 1146,-306.5 1152,-312.5 1152,-318.5 1152,-318.5 1152,-335.5 1152,-335.5 1152,-341.5 1146,-347.5 1140,-347.5"/>
<text text-anchor="middle" x="1081" y="-335.5" font-family="DejaVu Sans" font-size="10.00">CHARACTERISTIC_CURVES</text>
<text text-anchor="middle" x="1081" y="-324.5" font-family="DejaVu Sans" font-size="10.00">VAN_GENUCHTEN</text>
<text text-anchor="middle" x="1081" y="-313.5" font-family="DejaVu Sans" font-size="10.00">MUALEM_VG_LIQ</text>
</g>
<!-- inputdeck&#45;&gt;cc -->
<g id="edge16" class="edge">
<title>inputdeck&#45;&gt;cc</title>
<path fill="none" stroke="black" d="M931.08,-321C931.08,-321 999.99,-321 999.99,-321"/>
<polygon fill="black" stroke="black" points="999.99,-324.5 1009.99,-321 999.99,-317.5 999.99,-324.5"/>
</g>
<!-- time -->
<g id="node18" class="node">
<title>time</title>
<path fill="#fce5cd" stroke="black" d="M1141,-270.5C1141,-270.5 1021,-270.5 1021,-270.5 1015,-270.5 1009,-264.5 1009,-258.5 1009,-258.5 1009,-241.5 1009,-241.5 1009,-235.5 1015,-229.5 1021,-229.5 1021,-229.5 1141,-229.5 1141,-229.5 1147,-229.5 1153,-235.5 1153,-241.5 1153,-241.5 1153,-258.5 1153,-258.5 1153,-264.5 1147,-270.5 1141,-270.5"/>
<text text-anchor="middle" x="1081" y="-258.5" font-family="DejaVu Sans" font-size="10.00">TIME</text>
<text text-anchor="middle" x="1081" y="-247.5" font-family="DejaVu Sans" font-size="10.00">FINAL_TIME</text>
<text text-anchor="middle" x="1081" y="-236.5" font-family="DejaVu Sans" font-size="10.00">MAXIMUM_TIMESTEP_SIZE</text>
</g>
<!-- inputdeck&#45;&gt;time -->
<g id="edge17" class="edge">
<title>inputdeck&#45;&gt;time</title>
<path fill="none" stroke="black" d="M871,-308.76C871,-289.77 871,-262.75 871,-262.75 871,-262.75 998.73,-262.75 998.73,-262.75"/>
<polygon fill="black" stroke="black" points="998.73,-266.25 1008.73,-262.75 998.73,-259.25 998.73,-266.25"/>
</g>
<!-- regions -->
<g id="node19" class="node">
<title>regions</title>
<path fill="#fce5cd" stroke="black" d="M1110,-193C1110,-193 1052,-193 1052,-193 1046,-193 1040,-187 1040,-181 1040,-181 1040,-169 1040,-169 1040,-163 1046,-157 1052,-157 1052,-157 1110,-157 1110,-157 1116,-157 1122,-163 1122,-169 1122,-169 1122,-181 1122,-181 1122,-187 1116,-193 1110,-193"/>
<text text-anchor="middle" x="1081" y="-178" font-family="DejaVu Sans" font-size="10.00">REGION</text>
<text text-anchor="middle" x="1081" y="-167" font-family="DejaVu Sans" font-size="10.00">all/top/bottom</text>
</g>
<!-- inputdeck&#45;&gt;regions -->
<g id="edge18" class="edge">
<title>inputdeck&#45;&gt;regions</title>
<path fill="none" stroke="black" d="M811,-308.72C811,-269.88 811,-182.67 811,-182.67 811,-182.67 1029.99,-182.67 1029.99,-182.67"/>
<polygon fill="black" stroke="black" points="1029.99,-186.17 1039.99,-182.67 1029.99,-179.17 1029.99,-186.17"/>
</g>
<!-- flow -->
<g id="node20" class="node">
<title>flow</title>
<path fill="#fce5cd" stroke="black" d="M1160,-647C1160,-647 1002,-647 1002,-647 996,-647 990,-641 990,-635 990,-635 990,-623 990,-623 990,-617 996,-611 1002,-611 1002,-611 1160,-611 1160,-611 1166,-611 1172,-617 1172,-623 1172,-623 1172,-635 1172,-635 1172,-641 1166,-647 1160,-647"/>
<text text-anchor="middle" x="1081" y="-632" font-family="DejaVu Sans" font-size="10.00">FLOW_CONDITION</text>
<text text-anchor="middle" x="1081" y="-621" font-family="DejaVu Sans" font-size="10.00">top flux, initial hydrostatic, bottom</text>
</g>
<!-- inputdeck&#45;&gt;flow -->
<g id="edge19" class="edge">
<title>inputdeck&#45;&gt;flow</title>
<path fill="none" stroke="black" d="M931.43,-333C967.25,-333 1000,-333 1000,-333 1000,-333 1000,-600.93 1000,-600.93"/>
<polygon fill="black" stroke="black" points="996.5,-600.93 1000,-610.93 1003.5,-600.93 996.5,-600.93"/>
</g>
<!-- bc2 -->
<g id="node21" class="node">
<title>bc2</title>
<path fill="#fce5cd" stroke="black" d="M1134,-574.5C1134,-574.5 1028,-574.5 1028,-574.5 1022,-574.5 1016,-568.5 1016,-562.5 1016,-562.5 1016,-545.5 1016,-545.5 1016,-539.5 1022,-533.5 1028,-533.5 1028,-533.5 1134,-533.5 1134,-533.5 1140,-533.5 1146,-539.5 1146,-545.5 1146,-545.5 1146,-562.5 1146,-562.5 1146,-568.5 1140,-574.5 1134,-574.5"/>
<text text-anchor="middle" x="1081" y="-562.5" font-family="DejaVu Sans" font-size="10.00">BOUNDARY_CONDITION</text>
<text text-anchor="middle" x="1081" y="-551.5" font-family="DejaVu Sans" font-size="10.00">INITIAL_CONDITION</text>
<text text-anchor="middle" x="1081" y="-540.5" font-family="DejaVu Sans" font-size="10.00">STRATA</text>
</g>
<!-- inputdeck&#45;&gt;bc2 -->
<g id="edge20" class="edge">
<title>inputdeck&#45;&gt;bc2</title>
<path fill="none" stroke="black" d="M796,-345.27C796,-397.85 796,-545.75 796,-545.75 796,-545.75 1005.97,-545.75 1005.97,-545.75"/>
<polygon fill="black" stroke="black" points="1005.97,-549.25 1015.97,-545.75 1005.97,-542.25 1005.97,-549.25"/>
</g>
<!-- runlog -->
<g id="node24" class="node">
<title>runlog</title>
<path fill="#f4cccc" stroke="black" d="M1332.5,-268C1332.5,-268 1267.5,-268 1267.5,-268 1261.5,-268 1255.5,-262 1255.5,-256 1255.5,-256 1255.5,-244 1255.5,-244 1255.5,-238 1261.5,-232 1267.5,-232 1267.5,-232 1332.5,-232 1332.5,-232 1338.5,-232 1344.5,-238 1344.5,-244 1344.5,-244 1344.5,-256 1344.5,-256 1344.5,-262 1338.5,-268 1332.5,-268"/>
<text text-anchor="middle" x="1300" y="-247.5" font-family="DejaVu Sans" font-size="10.00">run_pflotran.log</text>
</g>
<!-- bc2&#45;&gt;runlog -->
<g id="edge23" class="edge">
<title>bc2&#45;&gt;runlog</title>
<path fill="none" stroke="black" d="M1146.11,-560.83C1210.67,-560.83 1300,-560.83 1300,-560.83 1300,-560.83 1300,-278.06 1300,-278.06"/>
<polygon fill="black" stroke="black" points="1303.5,-278.06 1300,-268.06 1296.5,-278.06 1303.5,-278.06"/>
</g>
<!-- pfout -->
<g id="node25" class="node">
<title>pfout</title>
<path fill="#f4cccc" stroke="black" d="M1350,-196C1350,-196 1250,-196 1250,-196 1244,-196 1238,-190 1238,-184 1238,-184 1238,-172 1238,-172 1238,-166 1244,-160 1250,-160 1250,-160 1350,-160 1350,-160 1356,-160 1362,-166 1362,-172 1362,-172 1362,-184 1362,-184 1362,-190 1356,-196 1350,-196"/>
<text text-anchor="middle" x="1300" y="-175.5" font-family="DejaVu Sans" font-size="10.00">TECPLOT POINT output</text>
</g>
<!-- bc2&#45;&gt;pfout -->
<g id="edge24" class="edge">
<title>bc2&#45;&gt;pfout</title>
<path fill="none" stroke="black" d="M1146.13,-547.17C1192.64,-547.17 1247,-547.17 1247,-547.17 1247,-547.17 1247,-206.06 1247,-206.06"/>
<polygon fill="black" stroke="black" points="1250.5,-206.06 1247,-196.06 1243.5,-206.06 1250.5,-206.06"/>
</g>
</g>
</svg>
