<svg xmlns="http://www.w3.org/2000/svg" width="900" height="520" viewBox="0 0 900 520">
  <rect width="100%" height="100%" fill="#ffffff"/>
  <text x="450" y="26" text-anchor="middle" font-family="Arial" font-size="18" font-weight="700">Transient uniform storage: saturation</text>
  <line x1="90" y1="42" x2="90" y2="448" stroke="#222"/>
  <line x1="90" y1="448" x2="860" y2="448" stroke="#222"/>
  <text x="475" y="498" text-anchor="middle" font-family="Arial" font-size="13">time, days</text>
  <text x="22" y="245" transform="rotate(-90 22 245)" text-anchor="middle" font-family="Arial" font-size="13">S</text>
  <polyline fill="none" stroke="#1f77b4" stroke-width="3" points="90.00,448.00 93.44,447.92 100.78,447.21 108.48,445.70 116.18,443.38 123.88,440.29 131.58,436.43 139.28,431.80 146.98,426.45 154.68,420.37 162.38,413.61 170.08,406.17 177.78,398.11 185.48,389.43 193.18,380.19 200.88,370.41 208.58,360.14 216.28,349.42 223.98,338.28 231.68,326.77 239.38,314.94 247.08,302.84 254.78,290.50 262.48,277.99 270.18,265.34 277.88,252.62 285.58,239.87 293.28,227.13 300.98,214.47 308.68,201.92 316.38,189.55 324.08,177.39 331.78,165.51 339.48,153.93 347.18,142.72 354.88,131.90 362.58,121.54 370.28,111.66 377.98,102.31 385.68,93.52 393.38,85.33 401.08,77.76 408.78,70.86 416.48,64.65 424.18,59.14 431.88,54.37 439.58,50.36 447.28,47.11 454.98,44.64 462.68,42.96 470.38,42.08 478.08,42.00 485.78,42.72 493.48,44.24 501.18,46.55 508.88,49.65 516.58,53.51 524.28,58.13 531.98,63.49 539.68,69.56 547.38,76.33 555.08,83.76 562.78,91.83 570.48,100.50 578.18,109.75 585.88,119.52 593.58,129.79 601.28,140.52 608.98,151.66 616.68,163.17 624.38,174.99 632.08,187.10 639.78,199.43 647.48,211.95 655.18,224.59 662.88,237.32 670.58,250.07 678.28,262.80 685.98,275.47 693.68,288.01 701.38,300.39 709.08,312.54 716.78,324.43 724.48,336.00 732.18,347.22 739.88,358.03 747.58,368.40 755.28,378.28 762.98,387.63 770.68,396.42 778.38,404.61 786.08,412.17 793.78,419.07 801.48,425.29 809.18,430.79 816.88,435.56 824.58,439.58 832.28,442.83 839.98,445.30 847.68,446.97 855.38,447.86 860.00,448.00"/>
  <polyline fill="none" stroke="#d62728" stroke-width="2" stroke-dasharray="7,5" points="90.00,448.00 93.44,448.00 100.78,447.68 108.48,446.56 116.18,444.64 123.88,441.94 131.58,438.46 139.28,434.22 146.98,429.23 154.68,423.51 162.38,417.09 170.08,409.99 177.78,402.24 185.48,393.86 193.18,384.90 200.88,375.39 208.58,365.37 216.28,354.87 223.98,343.93 231.68,332.61 239.38,320.94 247.08,308.97 254.78,296.75 262.48,284.32 270.18,271.74 277.88,259.05 285.58,246.31 293.28,233.56 300.98,220.86 308.68,208.26 316.38,195.80 324.08,183.53 331.78,171.50 339.48,159.77 347.18,148.37 354.88,137.36 362.58,126.77 370.28,116.64 377.98,107.03 385.68,97.95 393.38,89.46 401.08,81.58 408.78,74.35 416.48,67.79 424.18,61.93 431.88,56.79 439.58,52.40 447.28,48.76 454.98,45.90 462.68,43.83 470.38,42.55 478.08,42.07 485.78,42.39 493.48,43.51 501.18,45.43 508.88,48.13 516.58,51.61 524.28,55.85 531.98,60.84 539.68,66.56 547.38,72.98 555.08,80.08 562.78,87.83 570.48,96.21 578.18,105.17 585.88,114.68 593.58,124.70 601.28,135.20 608.98,146.14 616.68,157.46 624.38,169.13 632.08,181.10 639.78,193.32 647.48,205.75 655.18,218.33 662.88,231.02 670.58,243.76 678.28,256.51 685.98,269.21 693.68,281.81 701.38,294.27 709.08,306.54 716.78,318.57 724.48,330.30 732.18,341.70 739.88,352.71 747.58,363.30 755.28,373.43 762.98,383.04 770.68,392.12 778.38,400.61 786.08,408.49 793.78,415.72 801.48,422.28 809.18,428.14 816.88,433.28 824.58,437.67 832.28,441.31 839.98,444.17 847.68,446.24 855.38,447.52 860.00,448.00"/>
  <text x="650" y="78" font-family="Arial" font-size="12" fill="#1f77b4">аналитика</text>
  <text x="650" y="100" font-family="Arial" font-size="12" fill="#d62728">PFLOTRAN</text>
</svg>